{"glyphs":{"0":{"ha":957,"x_min":54,"x_max":965,"o":"m 514 885 q 460 684 485 799 q 425 525 435 569 q 378 233 382 331 q 503 135 417 171 q 539 278 504 142 q 596 525 574 414 q 621 840 636 711 q 514 885 578 879 m 501 1039 q 672 1007 593 1039 q 804 922 751 975 q 893 801 857 868 q 947 529 965 668 q 781 142 915 283 q 428 0 647 0 q 231 68 319 0 q 99 261 143 136 q 76 535 54 386 q 221 903 114 768 q 501 1039 328 1039 z "},"1":{"ha":590,"x_min":43,"x_max":628,"o":"m 540 758 l 431 253 l 411 -1 q 225 -9 301 -19 q 71 47 149 1 l 204 658 l 271 765 l 246 782 l 176 711 q 43 776 100 699 l 224 1053 q 511 1053 358 1092 q 628 993 589 1033 l 540 758 z "},"2":{"ha":814,"x_min":13,"x_max":831,"o":"m 439 842 q 369 820 406 842 q 308 764 332 799 l 335 690 q 278 649 325 674 q 213 619 232 624 q 117 719 165 660 q 44 831 68 778 q 206 1010 103 940 q 415 1079 310 1079 q 576 1008 490 1079 q 719 837 663 938 q 776 654 776 736 q 607 386 776 524 l 365 188 l 379 176 l 760 257 q 683 -33 831 178 l 322 29 l 157 -1 q 55 97 97 39 q 17 219 13 156 l 457 621 q 556 758 529 690 q 439 842 510 842 z "},"3":{"ha":843,"x_min":32,"x_max":831,"o":"m 417 821 q 306 767 357 821 l 332 690 q 276 649 322 674 q 210 619 229 624 q 113 720 161 661 q 44 831 65 779 q 222 1010 114 942 q 451 1079 329 1079 q 701 970 572 1079 q 831 763 829 861 q 697 593 828 643 l 590 551 q 757 449 699 501 q 810 329 815 396 q 598 107 801 201 q 110 -3 394 13 q 48 93 64 29 q 44 201 32 157 q 508 376 386 272 q 311 456 460 418 l 324 540 l 556 721 q 417 821 511 821 z "},"4":{"ha":997,"x_min":-19,"x_max":968,"o":"m 628 1058 q 968 922 874 1058 l 885 731 l 811 376 l 950 382 q 961 297 967 346 q 929 224 956 249 l 788 229 l 769 0 q 593 -13 704 -26 q 428 51 482 0 l 474 242 l 438 243 l 57 218 q -4 365 -19 275 l 493 1047 q 628 1058 574 1058 m 431 361 l 503 364 l 529 476 l 658 888 l 644 894 l 521 688 l 357 368 l 431 361 z "},"5":{"ha":783,"x_min":1,"x_max":804,"o":"m 743 396 q 595 117 728 243 q 315 -10 463 -10 q 13 61 167 -10 q 32 255 1 178 q 118 356 63 332 l 436 213 q 504 350 472 258 q 456 415 488 390 q 351 467 424 440 l 253 506 q 136 588 168 536 q 111 735 104 640 l 118 856 q 151 987 126 953 q 235 1042 176 1021 l 413 997 l 733 1081 q 782 908 804 983 q 719 793 763 844 l 415 854 l 340 678 l 489 656 q 697 569 639 632 q 743 396 754 506 z "},"6":{"ha":888,"x_min":1,"x_max":874,"o":"m 304 349 q 449 611 357 521 q 649 701 540 701 q 815 626 757 701 q 858 428 874 550 q 698 131 840 264 q 392 -4 556 -3 q 240 31 313 -4 q 111 129 167 65 q 28 293 56 193 q 18 513 1 393 q 248 901 51 758 q 807 1053 444 1044 q 844 955 849 1025 q 799 824 840 885 q 629 826 731 831 q 464 806 528 821 q 353 629 389 728 q 307 383 317 531 q 304 349 304 358 m 540 356 q 518 492 558 468 q 351 199 425 447 q 412 187 375 186 q 489 239 449 188 q 540 356 529 290 z "},"7":{"ha":835,"x_min":79,"x_max":876,"o":"m 841 978 q 859 959 841 978 q 876 907 876 940 q 854 826 876 874 l 371 3 q 210 -7 294 -24 q 94 63 126 10 l 383 608 l 544 793 l 529 811 l 115 781 q 104 915 79 828 q 201 1067 129 1001 l 558 996 l 735 1042 q 841 978 806 1015 z "},"8":{"ha":911,"x_min":29,"x_max":936,"o":"m 710 599 q 832 490 788 547 q 875 345 876 432 q 799 173 874 258 q 614 40 724 88 q 397 -6 504 -8 q 133 72 238 -1 q 35 243 29 146 q 339 518 43 392 q 194 623 240 582 q 133 697 149 664 q 118 767 117 731 q 279 992 122 900 q 650 1081 436 1083 q 844 1000 757 1076 q 933 840 931 924 q 884 722 936 778 q 710 599 832 665 m 575 889 q 456 789 494 861 q 589 671 481 736 q 663 743 632 710 q 575 889 654 835 m 518 171 q 554 226 540 192 q 571 290 568 261 q 461 436 561 361 q 353 279 394 368 q 518 171 396 174 z "},"9":{"ha":896,"x_min":36,"x_max":921,"o":"m 521 1078 q 805 934 689 1078 q 890 557 921 790 q 694 172 860 324 q 235 -15 529 21 q 153 88 185 15 q 153 214 121 160 q 429 243 308 207 q 549 434 503 317 q 604 685 594 551 q 608 735 606 711 q 464 465 557 558 q 263 372 371 372 q 95 449 154 372 q 49 640 36 525 q 133 855 63 756 q 308 1016 203 954 q 521 1078 413 1078 m 392 579 q 557 874 479 624 q 497 885 533 886 q 420 833 461 885 q 368 715 379 782 q 392 579 354 606 z "},"\u0000":{"ha":0,"x_min":0,"x_max":0,"o":""},"\r":{"ha":611,"x_min":0,"x_max":0,"o":""}," ":{"ha":611,"x_min":0,"x_max":0,"o":""},"!":{"ha":663,"x_min":69,"x_max":699,"o":"m 188 -11 q 108 23 142 -11 q 69 110 75 57 q 141 247 88 188 q 263 317 194 307 q 360 256 311 317 q 417 126 408 194 q 188 -11 311 -11 m 488 764 l 408 438 q 194 439 340 325 l 268 867 l 324 1332 q 533 1356 421 1375 q 699 1274 646 1338 l 488 764 z "},"\"":{"ha":635,"x_min":153,"x_max":746,"o":"m 451 940 l 514 1278 q 746 1278 668 1308 l 726 1146 l 599 918 q 451 940 511 907 m 153 940 l 218 1278 q 453 1278 372 1308 l 431 1146 l 318 918 q 153 940 221 907 z "},"#":{"ha":1303,"x_min":36,"x_max":1360,"o":"m 1306 724 l 1101 721 l 1026 428 l 1208 438 q 1199 304 1257 403 l 1004 301 l 971 -47 q 811 -60 906 -71 q 665 0 717 -49 l 731 297 l 517 293 l 485 -47 q 325 -60 419 -71 q 179 0 231 -49 l 244 289 l 69 286 q 75 413 36 328 l 271 411 l 314 600 l 336 711 l 143 708 q 144 835 106 749 l 361 832 l 439 1215 q 611 1231 506 1240 q 767 1176 717 1222 l 656 881 l 642 828 l 754 826 l 847 832 l 926 1215 q 1098 1231 993 1240 q 1251 1176 1203 1222 l 1142 881 l 1133 847 l 1317 857 q 1306 724 1360 822 m 757 413 l 824 717 l 614 714 l 535 408 l 649 407 l 757 413 z "},"$":{"ha":1006,"x_min":19,"x_max":981,"o":"m 622 892 l 586 675 q 772 571 739 594 q 840 520 804 547 q 896 472 876 493 q 960 365 944 418 q 803 119 936 214 q 472 3 671 25 l 440 -182 q 335 -131 369 -201 l 381 8 q 162 89 260 33 q 19 217 64 144 q 340 392 132 457 q 431 165 351 296 l 433 172 l 475 400 q 383 444 413 429 q 294 494 353 458 q 205 562 236 531 q 144 642 174 593 q 106 747 114 692 q 299 959 171 878 q 597 1061 428 1040 l 626 1218 q 728 1175 696 1240 l 683 1056 q 862 989 785 1039 q 981 868 939 939 q 883 732 957 767 q 669 726 810 697 q 622 893 665 828 l 622 892 m 429 790 q 532 704 429 760 l 568 901 q 429 790 429 838 m 613 299 q 533 371 613 329 l 499 163 q 581 219 549 183 q 613 299 613 256 z "},"%":{"ha":1360,"x_min":88,"x_max":1325,"o":"m 682 561 l 929 1210 q 1052 1212 1017 1224 q 1111 1151 1088 1200 l 406 -128 q 286 -110 321 -132 q 246 -37 251 -89 l 682 561 m 1053 475 q 1011 315 1035 425 q 985 139 988 206 q 1050 89 1007 107 q 1106 323 1093 253 q 1110 454 1118 393 q 1053 475 1086 474 m 1004 -19 q 840 72 904 -19 q 799 296 776 163 q 881 515 818 435 q 1049 597 944 596 q 1252 499 1179 597 q 1313 294 1325 401 q 1214 64 1293 147 q 1004 -19 1135 -19 m 364 946 q 322 786 346 894 q 296 610 299 678 q 361 558 315 576 q 416 790 403 719 q 421 925 429 861 q 364 946 397 942 m 110 767 q 192 985 129 904 q 351 1067 256 1067 q 513 1017 447 1067 q 605 899 578 967 q 624 764 632 831 q 524 533 604 618 q 315 449 444 449 q 151 541 215 449 q 110 767 88 633 z "},"&":{"ha":1043,"x_min":93,"x_max":979,"o":"m 429 -26 q 656 -56 599 17 l 657 -306 q 342 -324 450 -422 l 429 -26 m 788 1083 q 561 1113 618 1040 l 560 1364 q 876 1381 768 1481 l 788 1083 m 685 1008 q 791 993 740 1008 q 867 964 842 978 q 940 919 893 950 q 938 783 974 829 q 775 704 901 738 l 685 838 q 561 797 613 825 q 454 717 510 768 q 576 614 478 647 q 694 644 656 617 q 763 581 750 631 q 744 461 775 532 q 407 319 531 426 q 447 261 417 286 q 528 207 476 236 q 671 285 614 244 q 806 399 728 326 q 937 351 894 413 q 953 193 979 290 q 739 93 831 125 q 483 43 647 61 q 224 135 315 82 q 93 296 133 188 q 210 454 132 385 q 397 544 288 524 q 218 594 293 547 q 126 711 143 640 q 337 922 179 836 q 685 1008 494 1008 z "},"'":{"ha":322,"x_min":139,"x_max":439,"o":"m 139 940 l 204 1278 q 439 1278 358 1308 l 417 1146 l 304 918 q 139 940 207 907 z "},"(":{"ha":890,"x_min":217,"x_max":949,"o":"m 744 1068 q 556 550 596 864 q 735 -93 513 174 q 673 -153 717 -132 q 568 -162 629 -174 q 319 160 422 -44 q 238 585 217 365 q 800 1329 285 1065 q 907 1299 865 1336 q 946 1204 949 1261 l 744 1068 z "},")":{"ha":890,"x_min":14,"x_max":739,"o":"m 163 -165 q 56 -133 97 -171 q 17 -40 14 -96 l 217 96 q 406 615 367 306 q 228 1257 451 994 q 289 1317 246 1297 q 394 1328 332 1338 q 690 883 603 1157 q 724 579 739 729 q 163 -165 679 103 z "},"*":{"ha":590,"x_min":161,"x_max":679,"o":"m 496 1124 l 665 1157 q 651 1032 679 1093 l 490 1065 l 619 971 q 522 883 585 907 l 444 1018 l 458 857 q 333 857 403 838 l 382 1022 l 275 883 q 197 971 219 913 l 344 1064 l 176 1032 q 189 1157 161 1097 l 351 1124 l 222 1218 q 318 1304 257 1275 l 396 1171 l 382 1332 q 507 1332 447 1347 l 458 1168 l 565 1307 q 643 1218 621 1274 l 496 1124 z "},"+":{"ha":1075,"x_min":121,"x_max":999,"o":"m 611 547 l 978 558 q 990 501 999 546 q 949 415 982 457 l 589 421 l 522 64 q 463 63 500 51 q 392 108 425 75 l 463 424 l 136 428 q 127 488 121 449 q 161 565 133 528 l 485 547 l 536 914 q 594 917 551 932 q 671 864 636 903 l 611 547 z "},",":{"ha":449,"x_min":-79,"x_max":324,"o":"m 324 89 q 18 -283 282 -139 q -79 -207 -71 -269 l 29 -79 l 36 181 q 176 213 114 225 q 276 166 238 201 q 324 89 314 131 z "},"-":{"ha":819,"x_min":89,"x_max":767,"o":"m 744 556 q 760 500 767 544 q 721 414 753 456 l 106 399 q 94 458 89 418 q 125 535 100 499 l 399 528 l 744 556 z "},".":{"ha":461,"x_min":25,"x_max":349,"o":"m 135 0 q 59 31 90 0 q 25 113 28 63 q 93 242 42 186 q 210 307 144 299 q 299 250 256 307 q 349 131 343 193 q 135 0 256 0 z "},"/":{"ha":838,"x_min":13,"x_max":878,"o":"m 449 561 l 696 1210 q 819 1212 783 1224 q 878 1151 854 1200 l 172 -128 q 53 -110 88 -132 q 13 -37 18 -89 l 449 561 z "},":":{"ha":458,"x_min":19,"x_max":428,"o":"m 214 472 q 138 503 169 472 q 104 583 107 535 q 172 713 121 657 q 289 779 224 769 q 379 722 335 779 q 428 600 424 664 q 214 472 333 472 m 131 0 q 55 31 86 0 q 19 113 24 63 q 88 242 36 186 q 204 307 139 299 q 294 250 250 307 q 344 131 339 193 q 131 0 251 0 z "},";":{"ha":460,"x_min":-64,"x_max":428,"o":"m 339 89 q 33 -283 297 -139 q -64 -207 -56 -269 l 44 -79 l 51 181 q 191 213 129 225 q 291 166 253 201 q 339 89 329 131 m 214 472 q 138 503 169 472 q 104 583 107 535 q 172 713 121 657 q 289 779 224 769 q 379 722 335 779 q 428 600 424 664 q 214 472 333 472 z "},"<":{"ha":844,"x_min":86,"x_max":818,"o":"m 579 597 l 332 488 l 726 275 q 717 194 735 224 q 656 139 699 165 l 382 301 l 100 449 q 117 547 86 500 l 769 843 q 809 784 800 831 q 793 678 818 738 l 579 597 z "},"=":{"ha":963,"x_min":61,"x_max":939,"o":"m 869 438 q 885 381 892 426 q 846 294 878 336 l 78 279 q 67 339 61 299 q 97 415 72 379 l 482 408 l 869 438 m 917 690 q 933 635 939 679 q 894 549 926 590 l 125 533 q 114 592 108 551 q 146 669 119 633 l 529 661 l 917 690 z "},">":{"ha":844,"x_min":64,"x_max":796,"o":"m 156 707 q 167 788 149 758 q 226 843 185 817 l 782 533 q 765 436 796 486 l 428 292 l 111 139 q 73 198 82 151 q 89 304 64 244 l 550 494 l 353 611 l 156 707 z "},"?":{"ha":1118,"x_min":231,"x_max":1115,"o":"m 382 -11 q 303 24 336 -11 q 265 110 269 58 q 335 247 282 188 q 457 317 389 307 q 555 256 506 317 q 611 126 604 194 q 382 -11 506 -11 m 368 792 q 293 850 324 792 q 271 1149 231 965 q 806 1301 592 1301 q 973 1242 897 1301 q 1082 1091 1049 1183 q 1090 907 1115 999 q 538 506 1021 626 l 513 376 q 430 362 475 361 q 378 385 385 363 l 301 583 q 450 746 368 703 q 733 835 590 758 q 894 981 875 911 q 886 1043 906 1018 q 661 1001 779 1038 q 446 910 543 964 l 443 813 q 368 792 390 792 z "},"@":{"ha":1785,"x_min":54,"x_max":1774,"o":"m 324 335 q 789 -218 324 -125 q 1068 -53 981 -144 q 1191 -99 1157 -62 q 1217 -210 1225 -136 q 800 -356 1035 -318 q 265 -133 476 -322 q 54 326 54 57 q 146 657 54 497 q 385 929 238 817 q 725 1109 533 1042 q 1099 1176 917 1176 q 1433 1102 1282 1176 q 1678 892 1583 1028 q 1774 595 1774 756 q 1628 265 1774 435 q 1278 11 1483 94 q 1120 101 1157 40 q 1108 238 1083 163 l 1094 244 q 856 21 951 115 q 574 114 665 29 q 483 326 483 199 q 638 631 483 489 q 1040 781 793 772 q 1153 639 1094 736 q 1182 767 1153 721 q 1401 778 1326 794 q 1500 693 1475 763 l 1363 453 q 1325 172 1339 357 q 1511 354 1444 264 q 1611 568 1578 444 q 1442 910 1589 801 q 1083 1035 1308 1007 q 717 907 893 1011 q 433 648 542 803 q 324 335 324 493 m 1019 608 q 878 485 931 563 q 825 330 825 407 q 875 219 825 253 q 1106 388 932 258 l 1124 494 q 1019 608 1081 574 z "},"A":{"ha":1113,"x_min":21,"x_max":1143,"o":"m 72 335 q 39 400 39 368 q 76 482 39 432 l 231 482 l 347 710 l 413 982 q 626 1038 514 1024 q 819 1042 739 1051 q 939 1008 899 1032 l 906 781 l 931 526 l 1092 553 q 1086 410 1143 504 l 943 400 l 979 39 q 800 -1 935 -8 q 582 63 665 7 l 643 379 l 474 367 l 367 39 q 172 6 293 -8 q 21 71 50 19 l 160 342 l 72 335 m 510 481 l 661 481 l 649 843 l 626 839 l 510 481 z "},"B":{"ha":1046,"x_min":86,"x_max":1029,"o":"m 571 1042 q 915 974 800 1042 q 1026 803 1029 906 q 785 547 1025 631 l 783 535 q 944 481 885 524 q 1001 345 1003 419 q 963 206 999 271 q 835 61 926 140 q 603 8 703 21 q 322 0 503 -6 q 164 59 238 11 q 86 179 90 107 q 260 704 211 469 l 228 889 l 158 890 q 128 940 132 910 q 146 990 125 971 q 349 1027 217 1013 q 571 1042 481 1042 m 385 150 q 610 174 483 135 q 669 339 672 256 q 635 444 669 386 q 461 464 543 469 l 385 150 m 625 597 q 701 740 688 663 q 669 863 715 818 q 521 890 622 908 l 482 572 q 625 597 569 571 z "},"C":{"ha":1007,"x_min":72,"x_max":999,"o":"m 625 917 l 594 908 q 453 701 500 813 q 404 487 406 590 q 442 317 403 383 q 563 207 481 251 q 847 347 733 267 q 930 321 906 351 q 951 232 954 290 q 529 0 804 81 q 192 153 311 29 q 75 458 72 276 q 110 644 76 554 q 211 840 143 733 q 449 994 329 944 q 726 1064 569 1044 q 919 938 856 1017 q 999 746 982 860 q 880 657 976 685 q 682 672 783 629 q 625 917 675 861 z "},"D":{"ha":1103,"x_min":58,"x_max":1107,"o":"m 599 1046 q 978 919 850 1046 q 1103 582 1107 793 q 1019 310 1100 438 q 797 79 938 182 q 265 0 540 -7 q 128 69 186 22 q 58 185 71 115 q 228 626 186 449 l 233 825 l 169 817 q 122 899 126 854 q 146 968 117 943 q 367 1024 233 1003 q 599 1046 500 1046 m 438 444 l 399 142 q 578 182 511 151 q 724 355 669 256 q 780 578 778 454 q 736 777 782 701 q 567 864 690 853 q 438 444 457 507 z "},"E":{"ha":1010,"x_min":97,"x_max":1093,"o":"m 751 883 q 563 872 624 883 l 519 769 l 483 581 q 806 625 751 621 q 839 568 833 604 q 807 432 850 506 q 467 453 624 451 l 418 171 q 871 261 710 218 q 935 203 921 246 q 886 33 961 124 l 324 0 q 97 185 110 50 q 126 265 104 204 q 153 340 149 325 q 174 400 158 354 q 197 467 190 446 q 215 527 203 488 q 235 603 226 567 q 256 685 244 640 l 240 874 q 138 906 186 894 q 130 970 126 938 q 151 1021 133 1003 q 584 1044 413 1042 q 1011 1029 756 1046 q 889 753 1093 846 l 751 883 z "},"F":{"ha":968,"x_min":79,"x_max":1093,"o":"m 563 872 l 519 769 l 476 546 q 799 592 646 576 q 834 510 835 568 q 797 397 833 451 q 458 419 668 417 q 443 42 443 283 q 253 6 386 -8 q 79 78 121 19 q 256 685 206 378 l 240 874 q 138 906 186 894 q 130 970 126 938 q 151 1021 133 1003 q 584 1044 413 1042 q 1011 1029 756 1046 q 889 753 1093 846 l 751 883 q 563 872 624 883 z "},"G":{"ha":1068,"x_min":58,"x_max":1044,"o":"m 822 293 l 813 301 q 535 0 728 150 q 176 153 293 26 q 61 458 58 281 q 101 660 63 563 q 192 819 139 758 q 422 974 282 911 q 683 1057 561 1038 q 943 947 871 1017 q 1001 878 982 911 q 1043 790 1021 846 q 984 694 1032 736 q 872 645 936 653 q 742 681 808 638 q 737 714 740 689 q 732 747 733 739 q 726 777 731 756 q 719 808 722 799 q 709 835 715 818 q 694 864 703 853 q 654 917 675 896 l 633 917 q 455 708 517 810 q 388 485 393 606 q 528 186 383 314 q 753 396 675 293 l 747 404 l 586 371 q 531 462 538 399 q 569 565 525 525 q 969 551 803 536 q 996 261 1044 456 q 917 19 972 167 q 808 4 863 -7 q 729 56 753 15 q 822 293 786 174 z "},"H":{"ha":1196,"x_min":49,"x_max":1250,"o":"m 475 639 q 469 578 475 622 l 513 576 l 801 615 q 828 757 811 663 l 824 988 q 1061 1046 944 1046 q 1190 1021 1139 1046 l 1063 651 l 1183 668 q 1186 510 1250 626 l 1047 500 q 1036 303 1044 465 q 1021 43 1028 140 q 899 3 981 8 q 746 19 817 -3 q 658 78 675 42 q 774 481 724 250 l 464 460 l 463 460 q 451 270 460 413 q 438 43 443 128 q 315 3 397 8 q 163 19 233 -3 q 75 78 92 42 q 181 438 133 235 l 82 429 q 49 503 49 467 q 88 592 50 540 l 213 588 q 244 757 235 701 l 240 988 q 478 1046 361 1046 q 607 1021 556 1046 l 475 639 z "},"I":{"ha":494,"x_min":15,"x_max":547,"o":"m 418 1046 q 547 1021 494 1046 l 415 639 q 396 347 407 551 q 378 43 385 143 q 256 3 338 8 q 103 19 174 -3 q 15 78 32 42 q 185 757 106 317 l 181 988 q 418 1046 301 1046 z "},"J":{"ha":1033,"x_min":21,"x_max":1156,"o":"m 531 850 l 233 811 q 196 1021 151 917 q 642 1046 478 1043 q 1096 1029 807 1049 q 1064 818 1156 951 l 804 874 l 740 615 q 732 140 732 407 q 553 18 657 51 q 279 11 450 -15 q 21 271 100 94 q 170 376 88 351 q 328 361 253 401 q 356 249 343 283 q 396 165 368 214 l 428 176 q 475 379 463 325 q 532 750 513 543 l 531 850 z "},"K":{"ha":1044,"x_min":29,"x_max":1054,"o":"m 436 1063 q 565 1038 514 1063 l 429 639 l 425 597 l 600 708 l 797 1063 q 991 988 928 1047 q 1043 833 1054 928 q 558 535 922 744 q 703 349 611 410 q 949 274 794 288 q 942 117 992 207 q 767 0 893 28 q 537 202 613 78 q 464 483 461 326 l 417 460 q 406 270 414 413 q 392 43 397 128 q 269 3 351 8 q 117 19 188 -3 q 29 78 46 42 q 199 757 119 317 l 199 1004 q 436 1063 319 1063 z "},"L":{"ha":876,"x_min":49,"x_max":815,"o":"m 750 272 q 815 175 815 244 q 776 61 815 106 l 271 0 q 49 183 85 63 q 218 751 158 479 l 215 988 q 411 1044 311 1035 q 582 1021 511 1053 l 436 603 l 383 176 q 750 272 533 206 z "},"M":{"ha":1328,"x_min":15,"x_max":1369,"o":"m 1225 1046 q 1369 993 1333 1046 l 1246 631 q 1211 43 1235 475 q 1090 3 1171 8 q 938 19 1008 -3 q 850 78 867 42 q 988 604 949 358 l 990 619 l 768 278 q 628 256 694 244 q 514 318 561 267 q 426 669 454 500 l 415 638 q 376 43 389 211 q 177 6 313 -10 q 15 78 42 21 q 186 753 110 322 l 194 985 q 390 1046 296 1046 q 571 993 483 1046 q 640 542 575 832 l 699 426 l 901 694 l 1047 1001 q 1225 1046 1160 1046 z "},"N":{"ha":1139,"x_min":15,"x_max":1194,"o":"m 1064 1044 q 1194 1019 1142 1044 l 1063 640 q 1021 43 1054 532 q 830 1 932 -8 q 658 63 728 11 q 468 794 494 436 l 415 639 q 376 43 397 378 q 253 3 335 8 q 101 19 171 -3 q 15 78 31 42 q 183 749 121 375 l 185 988 q 439 1046 308 1046 q 563 1013 500 1046 q 592 847 571 968 q 682 392 631 608 l 731 288 q 831 743 799 576 l 826 986 q 1064 1044 944 1044 z "},"O":{"ha":1029,"x_min":54,"x_max":1097,"o":"m 369 471 q 476 151 369 311 q 642 321 569 219 q 739 524 714 422 q 700 734 728 644 q 607 917 672 824 q 439 706 508 838 q 369 471 369 575 m 54 453 q 131 744 54 603 q 340 976 207 886 q 622 1067 474 1067 q 754 1026 682 1067 q 888 922 826 986 q 992 769 950 858 q 954 311 1097 547 q 738 86 871 172 q 472 0 606 0 q 284 67 382 0 q 120 240 186 133 q 54 453 54 347 z "},"P":{"ha":1026,"x_min":88,"x_max":1056,"o":"m 143 1003 q 530 1063 308 1063 q 903 954 751 1063 q 1053 725 1056 846 q 984 529 1050 604 q 779 385 918 454 q 467 315 590 331 q 459 190 464 281 q 450 43 454 99 q 258 4 390 -8 q 88 76 125 17 q 188 415 151 269 q 258 760 225 560 l 236 876 l 172 889 q 133 943 142 908 q 143 1003 125 978 m 550 899 l 488 639 q 474 443 483 583 q 683 525 629 482 q 749 708 746 604 q 692 827 749 772 q 550 899 636 882 z "},"Q":{"ha":1029,"x_min":54,"x_max":1038,"o":"m 472 0 q 284 67 382 0 q 120 240 186 133 q 54 453 54 347 q 131 744 54 603 q 340 976 207 886 q 622 1067 474 1067 q 754 1026 682 1067 q 888 922 826 986 q 992 769 950 858 q 1036 590 1035 679 q 926 269 1038 425 q 656 42 815 113 l 686 -17 l 921 -93 q 880 -203 914 -157 q 800 -267 846 -249 q 703 -283 754 -285 q 611 -258 651 -282 l 486 0 l 472 0 m 369 471 q 476 151 369 311 q 642 321 569 219 q 739 524 714 422 q 700 734 728 644 q 607 917 672 824 q 439 706 508 838 q 369 471 369 575 z "},"R":{"ha":1056,"x_min":88,"x_max":1042,"o":"m 143 1003 q 531 1063 308 1063 q 897 967 753 1063 q 1039 751 1042 872 q 972 561 1036 631 q 750 413 908 492 q 642 401 714 407 q 762 312 689 339 q 972 275 835 285 q 967 116 1019 196 q 801 0 914 36 q 592 153 671 50 q 496 394 514 256 l 471 394 q 461 230 468 346 q 450 43 454 114 q 258 4 390 -8 q 88 76 125 17 q 188 415 151 269 q 258 760 225 560 l 236 876 l 172 889 q 133 943 142 908 q 143 1003 125 978 m 668 558 q 739 718 739 642 q 691 842 739 794 q 551 901 643 889 l 488 639 q 478 511 483 594 q 668 558 574 521 z "},"S":{"ha":1006,"x_min":19,"x_max":981,"o":"m 613 299 q 565 353 613 325 q 446 415 517 382 q 303 488 375 447 q 174 597 231 529 q 106 747 118 665 q 304 962 172 881 q 611 1063 436 1043 q 834 1004 738 1057 q 981 868 931 951 q 883 732 957 767 q 669 726 810 697 q 607 917 664 840 q 486 856 543 893 q 429 794 429 819 q 478 737 429 768 q 599 668 526 706 q 746 587 671 631 q 882 485 821 543 q 960 365 943 426 q 790 111 935 207 q 433 0 646 15 q 183 77 297 18 q 19 217 68 136 q 340 392 132 457 q 443 146 353 286 q 563 201 514 158 q 613 299 613 244 z "},"T":{"ha":1010,"x_min":101,"x_max":1118,"o":"m 440 844 l 183 810 q 146 1019 101 915 q 599 1044 428 1042 q 1060 1028 771 1047 q 1040 817 1118 951 l 724 856 l 668 650 q 643 43 656 425 q 442 6 578 -10 q 279 78 306 21 q 442 763 385 383 l 440 844 z "},"U":{"ha":1021,"x_min":82,"x_max":1064,"o":"m 978 457 q 819 122 939 243 q 514 0 700 0 q 215 90 328 0 q 82 317 103 179 q 178 1004 140 619 q 418 1063 299 1063 q 546 1038 494 1063 q 404 506 431 674 q 394 299 382 346 q 456 211 414 235 q 611 181 515 181 q 703 403 671 292 q 757 674 736 515 l 696 1004 q 936 1063 817 1063 q 1064 1038 1014 1063 q 978 457 1035 775 z "},"V":{"ha":1065,"x_min":125,"x_max":1136,"o":"m 833 642 l 756 982 q 873 1049 797 1035 q 1019 1047 949 1064 q 1128 993 1089 1029 q 1110 808 1136 906 q 1039 642 1083 711 q 753 200 858 369 l 672 15 q 472 10 575 -15 q 314 104 368 35 l 125 936 q 258 1031 176 999 q 410 1061 340 1064 q 517 1029 481 1058 l 511 514 l 571 167 l 833 642 z "},"W":{"ha":1549,"x_min":124,"x_max":1624,"o":"m 1324 642 l 1240 982 q 1356 1049 1282 1035 q 1499 1046 1431 1064 q 1613 993 1568 1028 q 1526 640 1624 818 l 1268 201 l 1207 15 q 1010 10 1107 -12 q 865 94 914 32 l 833 378 l 738 185 l 689 15 q 488 10 588 -14 q 328 103 388 35 l 124 935 q 260 1033 179 1001 q 408 1062 340 1065 q 514 1031 475 1058 l 518 515 l 583 163 l 788 561 l 696 890 q 850 987 757 963 q 1049 967 943 1011 l 1028 560 l 1103 164 l 1324 642 z "},"X":{"ha":1128,"x_min":43,"x_max":1164,"o":"m 638 643 l 953 1060 q 1115 1010 1065 1068 q 1154 863 1164 951 q 682 529 954 747 q 1047 300 824 376 q 1026 117 1085 206 q 815 0 967 29 q 576 406 644 161 l 292 0 q 97 69 151 8 q 58 213 43 131 q 331 374 231 310 q 529 519 432 438 q 357 673 464 607 q 133 767 250 739 q 190 965 121 881 q 390 1058 258 1049 q 542 885 476 1000 q 638 643 607 769 z "},"Y":{"ha":994,"x_min":117,"x_max":1072,"o":"m 117 892 q 272 1044 181 1007 q 464 1046 363 1081 l 464 733 l 554 464 l 567 464 l 613 554 l 768 732 l 697 1013 q 924 1062 826 1071 q 1072 990 1022 1053 q 1044 881 1067 929 q 980 779 1021 833 q 839 624 939 725 q 697 476 739 522 q 663 43 682 349 q 469 4 599 -10 q 300 76 339 18 q 401 413 358 236 q 117 892 246 721 z "},"Z":{"ha":1078,"x_min":33,"x_max":1117,"o":"m 826 0 l 338 111 l 329 107 l 342 50 q 89 6 243 -15 q 33 125 33 47 q 236 386 33 226 q 419 526 325 457 q 732 814 658 704 l 724 826 q 492 865 608 842 q 397 699 426 793 q 106 811 161 675 q 364 1063 183 1000 q 788 946 568 1014 l 828 1060 q 1007 1040 951 1060 q 1086 985 1063 1019 q 1117 896 1110 950 q 864 617 1054 782 q 574 380 715 490 q 400 244 432 269 l 401 233 q 718 218 594 214 q 761 361 744 275 q 965 359 890 389 q 1061 254 1039 329 q 985 119 1033 172 q 826 0 938 67 z "},"[":{"ha":946,"x_min":122,"x_max":1064,"o":"m 860 1206 l 731 1200 l 660 911 l 575 444 l 492 -35 l 793 4 q 772 -112 824 -40 l 197 -174 q 122 -65 122 -125 l 301 589 l 383 1304 l 1051 1313 q 1022 1196 1064 1247 l 860 1206 z "},"\\":{"ha":758,"x_min":93,"x_max":671,"o":"m 93 1188 q 163 1233 126 1229 q 283 1204 200 1238 l 382 518 l 671 -97 q 617 -158 654 -146 q 496 -150 581 -171 l 93 1188 z "},"]":{"ha":956,"x_min":-21,"x_max":900,"o":"m 689 322 l 663 -111 l -4 -179 q -19 -126 -21 -150 q 3 -51 -18 -101 l 301 -46 l 411 589 l 504 1204 l 238 1196 q 208 1263 211 1247 q 219 1307 206 1278 l 844 1297 q 900 1169 896 1242 l 689 322 z "},"^":{"ha":906,"x_min":78,"x_max":913,"o":"m 78 593 l 457 1199 q 742 1161 628 1226 l 913 583 q 805 534 867 544 q 701 532 743 524 q 622 556 658 540 l 518 1063 l 206 528 q 118 542 154 525 q 78 593 82 560 z "},"_":{"ha":965,"x_min":-25,"x_max":806,"o":"m 785 -60 q 799 -116 806 -71 q 761 -200 793 -161 l -8 -217 q -19 -158 -25 -197 q 13 -79 -14 -118 l 396 -87 l 785 -60 z "},"`":{"ha":456,"x_min":161,"x_max":526,"o":"m 428 1188 l 526 906 q 462 863 506 875 q 382 865 418 851 l 282 1007 l 161 1106 q 242 1183 188 1157 q 348 1208 297 1210 q 428 1188 399 1207 z "},"a":{"ha":1086,"x_min":50,"x_max":1081,"o":"m 50 326 q 205 631 50 489 q 607 781 360 772 q 735 614 671 731 q 763 767 728 711 q 981 778 907 794 q 1081 693 1056 763 l 943 453 q 969 43 940 263 q 805 1 926 -10 q 604 79 683 13 l 664 199 l 639 225 q 422 21 507 104 q 141 114 232 29 q 50 326 50 199 m 586 608 q 444 485 497 563 q 392 330 392 407 q 442 219 392 253 q 689 400 528 278 l 700 476 q 586 608 656 568 z "},"b":{"ha":1021,"x_min":68,"x_max":1010,"o":"m 376 579 l 396 561 q 582 781 529 721 q 895 694 803 771 q 1010 444 988 617 q 933 288 985 357 q 824 174 882 218 q 683 93 767 129 q 376 -1 554 36 q 68 200 128 31 q 221 747 154 433 l 200 1129 q 540 1163 400 1217 l 451 783 l 443 692 l 376 579 m 386 151 q 599 274 514 193 q 700 457 683 356 q 667 539 690 511 q 597 586 643 567 q 418 435 533 542 q 386 151 414 321 z "},"c":{"ha":883,"x_min":50,"x_max":856,"o":"m 50 315 q 85 475 50 407 q 188 611 121 543 q 582 797 363 753 q 775 717 719 772 q 821 651 804 685 q 856 561 838 618 q 758 453 838 485 q 547 436 678 421 q 511 642 558 528 l 467 631 q 382 369 385 514 q 458 169 379 257 q 735 296 618 210 q 811 265 788 296 q 817 169 835 233 q 645 62 753 108 q 413 0 538 15 q 136 107 222 21 q 50 315 50 193 z "},"d":{"ha":1043,"x_min":43,"x_max":1111,"o":"m 786 747 l 769 1129 q 1111 1163 982 1221 l 1011 818 q 926 43 1003 726 q 744 2 872 -7 q 558 81 617 11 l 646 194 l 628 215 q 419 21 508 106 q 141 110 239 22 q 49 326 43 199 q 92 487 51 407 q 204 632 133 567 q 384 738 275 697 q 621 781 493 779 q 750 593 693 715 q 786 747 772 675 m 689 400 l 713 476 q 586 607 649 572 q 446 485 497 563 q 391 332 394 408 q 440 219 388 256 q 689 400 540 288 z "},"e":{"ha":896,"x_min":42,"x_max":907,"o":"m 738 279 q 816 253 790 282 q 828 157 842 224 q 633 52 764 94 q 383 0 503 10 q 126 114 211 25 q 47 322 42 203 q 179 613 56 482 q 626 796 413 768 q 794 736 733 788 q 828 438 907 640 q 613 349 744 394 q 381 283 482 303 q 435 171 390 229 q 738 279 597 190 m 513 636 l 483 622 q 374 383 381 514 q 557 464 475 419 q 513 636 588 574 z "},"f":{"ha":846,"x_min":61,"x_max":950,"o":"m 313 668 l 256 990 q 443 1164 324 1092 q 675 1247 563 1236 q 897 1125 842 1211 q 950 1017 922 1088 q 851 908 933 942 q 657 890 769 875 q 640 1005 654 964 q 588 1085 626 1046 q 528 1044 536 1074 q 529 693 540 901 l 776 738 q 776 581 832 686 l 522 569 q 471 43 504 292 q 345 3 426 8 q 194 21 264 -1 q 103 79 124 43 q 271 531 197 301 l 97 499 q 62 572 63 536 q 96 661 61 608 l 310 656 l 313 668 z "},"g":{"ha":1056,"x_min":46,"x_max":1075,"o":"m 674 214 l 651 236 q 425 21 467 63 q 140 115 233 29 q 49 326 46 200 q 91 482 51 403 q 199 627 131 561 q 374 736 268 693 q 601 781 479 779 q 726 618 664 726 q 753 763 726 718 q 971 778 899 793 q 1075 693 1043 763 l 933 449 q 856 -221 889 169 q 661 -390 779 -339 q 357 -450 543 -440 q 152 -325 226 -389 q 49 -169 78 -261 q 194 -47 108 -75 q 358 -64 279 -18 q 388 -163 371 -124 q 446 -258 406 -203 q 517 -244 483 -260 q 565 -203 551 -228 q 614 121 589 -97 l 674 214 m 699 478 l 697 476 q 582 607 649 572 q 444 492 493 561 q 392 339 394 422 q 442 219 390 256 q 689 400 528 278 l 699 478 z "},"h":{"ha":1040,"x_min":29,"x_max":989,"o":"m 989 575 l 918 390 q 951 43 908 221 q 786 1 907 -10 q 583 81 665 13 q 619 289 589 164 q 678 499 650 414 q 626 571 664 550 q 431 422 551 533 q 399 43 428 275 q 272 3 353 8 q 120 21 190 -1 q 29 79 50 43 q 213 747 163 378 l 197 1108 q 550 1163 408 1226 l 453 824 l 460 649 l 400 581 l 414 560 q 682 781 565 701 q 989 575 915 767 z "},"i":{"ha":500,"x_min":22,"x_max":500,"o":"m 158 449 l 146 726 q 476 743 354 821 l 401 490 q 383 43 392 390 q 196 5 315 -10 q 22 78 76 19 q 158 449 128 310 m 500 1017 q 500 986 500 1017 q 455 908 500 954 q 344 861 410 861 q 231 908 279 861 q 183 1017 183 954 q 231 1126 183 1081 q 344 1172 279 1172 q 455 1126 410 1172 q 500 1017 500 1081 z "},"j":{"ha":589,"x_min":-294,"x_max":607,"o":"m 7 -50 q 79 -258 19 -167 l 122 -240 q 240 763 161 179 q 462 783 383 796 q 589 706 540 771 l 453 469 q 393 -301 424 210 q 230 -419 350 -385 q -64 -429 110 -454 q -294 -181 -242 -318 q -154 -44 -239 -78 q 7 -50 -69 -10 m 606 1022 q 606 989 606 1022 q 558 908 606 957 q 444 860 510 860 q 328 908 378 860 q 279 1021 279 956 q 328 1134 279 1086 q 444 1182 378 1182 q 559 1134 511 1182 q 606 1022 607 1086 z "},"k":{"ha":957,"x_min":58,"x_max":954,"o":"m 415 486 l 432 463 q 611 653 525 575 q 811 796 697 731 q 903 749 864 790 q 949 645 943 707 q 904 511 954 583 q 513 403 688 486 q 642 315 567 343 q 864 285 718 288 q 895 191 899 243 q 846 84 892 139 q 729 0 800 29 q 440 290 515 99 q 425 47 435 150 q 300 3 381 10 q 149 21 219 -3 q 58 88 78 44 q 256 742 169 322 l 178 1081 q 301 1158 235 1136 q 409 1177 367 1181 q 489 1160 451 1174 q 508 947 513 1068 q 469 563 504 826 l 415 486 z "},"l":{"ha":521,"x_min":31,"x_max":550,"o":"m 214 747 l 197 1110 q 384 1177 290 1164 q 550 1161 478 1190 l 451 824 q 406 47 408 76 q 281 4 365 10 q 122 20 196 -1 q 31 78 47 42 q 214 747 150 354 z "},"m":{"ha":1519,"x_min":38,"x_max":1457,"o":"m 906 43 q 762 1 838 4 q 636 20 686 -1 q 574 69 586 42 q 685 510 619 364 q 645 551 663 539 q 607 569 628 563 q 431 424 511 511 q 407 43 432 282 q 203 6 335 -10 q 38 79 71 21 q 176 474 121 278 l 124 693 q 228 757 171 736 q 425 761 333 794 q 446 657 446 713 l 394 594 l 413 565 q 676 781 511 672 q 810 757 753 782 q 936 674 868 732 l 851 561 l 867 551 q 1147 781 1044 718 q 1347 713 1264 776 q 1457 572 1431 650 l 1392 356 q 1431 43 1388 213 q 1267 2 1386 -10 q 1064 82 1149 14 q 1100 311 1072 181 q 1150 500 1128 442 q 1136 531 1140 522 q 1097 571 1126 554 q 904 425 1032 533 q 885 242 885 318 q 906 43 886 165 z "},"n":{"ha":1047,"x_min":38,"x_max":985,"o":"m 985 575 l 918 356 q 958 43 918 185 q 793 1 914 -10 q 590 81 672 13 q 623 298 596 174 q 675 499 650 422 q 624 571 660 549 q 431 424 543 525 q 407 43 432 282 q 203 6 335 -10 q 38 79 71 21 q 176 474 121 278 l 124 693 q 425 774 253 801 q 446 657 446 711 l 394 594 l 411 567 q 674 781 533 686 q 876 713 797 774 q 985 575 956 651 z "},"o":{"ha":911,"x_min":38,"x_max":893,"o":"m 38 347 q 74 481 38 407 q 174 626 111 556 q 338 745 238 697 q 555 793 439 793 q 781 670 671 793 q 893 431 890 547 q 822 229 893 329 q 631 65 750 129 q 386 0 513 0 q 149 110 260 0 q 38 347 38 221 m 517 660 q 393 499 444 592 q 340 324 342 406 q 361 228 339 281 q 417 143 383 176 q 604 385 561 247 q 581 539 600 479 q 517 660 563 599 z "},"p":{"ha":1028,"x_min":-24,"x_max":1013,"o":"m 381 594 l 396 568 q 515 720 483 685 q 574 781 547 756 q 881 688 783 776 q 1013 417 979 599 q 544 0 919 129 q 393 39 451 15 q 347 -358 365 -256 q 147 -398 271 -411 q -24 -325 22 -385 q 102 44 40 -204 q 172 433 164 292 l 110 693 q 408 772 232 800 q 432 657 433 711 l 381 594 m 538 157 q 656 283 618 224 q 704 433 694 342 q 669 526 703 485 q 590 586 636 567 q 418 421 518 538 q 406 194 415 315 q 538 157 469 168 z "},"q":{"ha":1069,"x_min":50,"x_max":1068,"o":"m 50 326 q 89 481 50 403 q 196 623 128 558 q 368 731 264 688 q 592 781 472 775 q 728 611 653 725 q 749 767 715 711 q 965 780 890 796 q 1068 693 1040 764 l 944 453 q 806 -156 869 75 l 822 -169 q 926 -91 865 -143 q 996 -32 986 -39 q 1053 -104 1053 -33 q 738 -421 972 -214 q 563 -348 619 -396 q 506 -246 506 -300 q 674 204 607 8 l 678 231 q 464 21 567 126 q 155 105 260 22 q 50 326 50 188 m 393 332 q 415 264 393 294 q 475 219 438 233 q 699 392 539 264 l 708 464 q 576 607 643 569 q 442 485 492 561 q 393 332 393 408 z "},"r":{"ha":863,"x_min":38,"x_max":879,"o":"m 411 565 l 644 781 q 810 682 747 757 q 879 482 874 607 q 741 418 824 426 q 590 447 658 410 q 567 551 590 472 q 431 440 547 536 q 407 43 432 275 q 202 6 333 -10 q 38 79 71 21 q 176 474 121 278 l 124 693 q 274 767 189 749 q 425 774 360 786 q 446 657 446 715 l 394 594 l 411 565 z "},"s":{"ha":831,"x_min":29,"x_max":772,"o":"m 482 214 q 428 266 482 233 q 306 333 374 299 q 171 426 238 368 q 83 546 104 485 q 253 738 144 668 q 501 815 361 808 q 667 766 606 804 q 772 660 728 728 q 707 559 768 590 q 533 544 646 528 q 457 694 506 650 q 379 652 413 678 q 346 604 346 626 q 406 547 346 582 q 539 476 465 511 q 683 386 613 442 q 769 274 753 331 q 619 77 735 149 q 346 0 503 6 q 29 150 114 19 q 121 281 60 236 q 278 293 182 326 q 302 194 288 228 q 354 111 317 160 q 442 155 403 125 q 482 214 482 185 z "},"t":{"ha":846,"x_min":82,"x_max":860,"o":"m 533 683 l 529 683 q 505 387 524 568 q 483 176 486 206 q 706 318 597 229 q 785 288 765 314 q 799 196 804 263 q 428 0 610 38 q 150 169 206 18 q 304 644 246 407 l 119 614 q 83 689 83 653 q 117 778 82 725 l 317 769 l 292 1026 q 500 1092 407 1088 q 636 1046 593 1096 l 561 813 l 804 857 q 807 697 860 803 l 533 683 z "},"u":{"ha":1036,"x_min":31,"x_max":1006,"o":"m 139 435 l 107 758 q 306 775 194 793 q 461 692 417 757 q 422 499 461 621 q 332 288 382 376 q 431 217 343 242 q 593 396 553 338 q 679 763 635 643 q 901 772 825 788 q 1006 693 978 757 l 878 453 q 919 43 882 269 q 754 1 878 -10 q 547 81 631 13 l 607 207 l 590 221 q 400 0 564 186 q 31 225 72 36 l 139 435 z "},"v":{"ha":913,"x_min":61,"x_max":931,"o":"m 610 721 q 780 801 683 790 q 931 763 876 813 q 586 8 900 353 q 356 19 469 -15 q 183 139 242 54 q 188 469 222 356 l 61 617 q 378 781 154 794 q 478 197 501 593 l 497 188 q 688 543 656 360 l 610 721 z "},"w":{"ha":1397,"x_min":61,"x_max":1414,"o":"m 979 197 l 996 181 q 1176 542 1157 369 l 1094 717 q 1266 802 1171 789 q 1414 767 1361 815 q 1088 6 1393 350 q 870 21 976 -18 q 718 150 764 60 q 771 314 746 219 l 754 324 q 563 8 675 158 q 339 22 444 -18 q 183 139 233 61 q 204 308 201 247 q 189 468 207 368 l 61 617 q 185 747 110 707 q 379 781 260 786 q 478 196 506 568 l 497 189 q 686 507 611 304 l 589 632 q 708 740 643 711 q 883 760 774 769 q 979 197 1000 608 z "},"x":{"ha":906,"x_min":8,"x_max":915,"o":"m 494 478 l 703 781 q 865 731 814 789 q 906 583 915 672 q 536 382 722 515 q 801 301 639 314 q 832 219 831 265 q 812 129 833 172 q 740 50 790 86 q 624 0 690 14 q 432 267 463 107 l 235 0 q 58 74 107 7 q 44 221 8 142 q 389 375 235 271 q 103 497 296 468 q 140 690 78 613 q 308 781 203 768 q 494 478 467 692 z "},"y":{"ha":965,"x_min":-1,"x_max":992,"o":"m 604 399 l 606 401 q 663 763 640 664 q 885 776 811 792 q 992 693 958 761 l 840 440 q 765 -269 767 -74 q 577 -403 693 -364 q 279 -439 461 -442 q -1 -168 49 -339 q 149 -48 65 -76 q 306 -62 233 -19 q 343 -174 325 -133 q 394 -258 361 -214 q 489 -222 464 -262 q 531 54 506 -57 l 600 186 l 579 204 q 419 36 513 124 q 179 110 275 51 q 65 256 83 169 l 138 436 q 122 609 133 506 q 107 758 111 713 q 227 781 158 781 q 364 758 296 782 q 472 689 432 735 q 364 308 457 522 q 440 242 381 267 q 604 399 529 308 z "},"z":{"ha":968,"x_min":49,"x_max":982,"o":"m 346 782 l 688 678 l 726 781 q 982 663 956 806 q 896 519 961 589 q 739 392 831 449 q 376 221 574 293 l 372 204 q 615 174 450 190 q 663 293 617 176 q 838 290 774 321 q 918 182 903 260 q 665 0 850 47 q 319 111 439 61 l 308 107 l 326 44 q 101 0 268 -12 q 56 131 49 50 q 128 260 58 197 q 283 363 197 322 q 621 546 554 489 l 619 561 q 443 600 547 579 q 368 465 400 557 q 186 481 247 454 q 104 578 125 507 q 346 782 181 747 z "},"{":{"ha":917,"x_min":100,"x_max":978,"o":"m 401 1225 q 669 1329 504 1329 q 978 1222 833 1329 q 853 1082 978 1125 l 739 1178 l 708 1158 q 737 872 761 1003 q 633 671 713 742 q 439 606 553 600 l 429 569 q 621 278 625 456 q 440 -24 613 124 l 460 -56 l 640 -21 q 681 -67 663 -35 q 703 -132 699 -99 q 560 -183 647 -160 q 388 -211 474 -206 q 212 -131 296 -193 q 100 10 128 -69 q 257 300 250 128 q 225 468 261 386 q 124 576 189 550 l 171 722 q 327 794 263 722 q 410 977 392 865 q 401 1225 428 1089 z "},"|":{"ha":544,"x_min":-21,"x_max":636,"o":"m 286 1349 q 493 1408 406 1408 q 636 1385 581 1408 l 471 704 q 381 160 428 463 q 322 -254 333 -142 q 131 -290 256 -306 q -21 -218 6 -274 q 117 296 39 -65 q 219 867 194 657 l 286 1349 z "},"}":{"ha":917,"x_min":17,"x_max":896,"o":"m 896 1119 q 783 987 824 1063 q 738 828 742 911 q 771 663 735 744 q 871 553 807 581 l 824 407 q 669 335 733 407 q 586 152 604 264 q 593 -96 568 40 q 325 -200 496 -197 q 17 -93 160 -196 q 142 47 17 4 l 256 -49 l 288 -29 q 258 258 233 128 q 363 460 283 388 q 556 528 443 533 l 568 561 q 376 851 368 675 q 558 1151 381 1010 l 536 1185 l 354 1150 q 316 1195 333 1163 q 293 1261 299 1228 q 604 1340 429 1332 q 781 1261 696 1324 q 896 1119 867 1199 z "},"~":{"ha":906,"x_min":7,"x_max":954,"o":"m 260 647 q 509 610 404 647 q 711 508 614 574 l 719 508 l 807 626 q 910 615 865 633 q 949 558 954 596 q 820 424 876 468 q 656 344 764 379 q 271 476 444 350 l 260 474 l 171 360 q 63 376 118 350 q 13 446 7 401 q 121 554 68 511 q 260 647 174 597 z "}," ":{"ha":611,"x_min":0,"x_max":0,"o":""},"¡":{"ha":689,"x_min":10,"x_max":639,"o":"m 521 826 q 600 792 567 826 q 639 706 633 758 q 567 568 621 628 q 446 499 514 508 q 349 560 397 499 q 292 689 300 621 q 521 826 397 826 m 221 51 l 300 378 q 514 376 368 490 l 440 -51 l 385 -517 q 175 -541 288 -560 q 10 -458 63 -522 l 221 51 z "},"¢":{"ha":894,"x_min":49,"x_max":886,"o":"m 364 7 q 123 118 197 35 q 49 304 49 201 q 84 475 49 407 q 186 611 119 543 q 532 786 344 738 l 561 940 q 661 897 632 963 l 621 789 q 785 719 728 765 q 886 581 842 672 q 599 436 843 414 q 550 592 589 517 l 483 175 q 746 296 632 213 q 822 265 799 296 q 828 169 846 233 q 457 6 697 43 l 426 -182 q 321 -131 356 -201 l 364 7 m 506 642 l 465 631 q 381 369 383 514 q 425 210 378 282 l 506 642 z "},"£":{"ha":983,"x_min":26,"x_max":958,"o":"m 332 661 l 268 889 q 418 998 308 942 q 653 1069 528 1054 q 853 994 788 1035 q 935 897 907 960 q 958 838 944 876 q 857 731 942 763 q 638 714 772 699 q 642 825 649 783 q 608 915 635 867 q 544 876 576 911 q 533 556 563 728 l 821 583 q 800 465 858 556 l 514 457 q 436 213 488 336 q 658 189 553 183 l 806 307 q 913 143 936 267 q 843 0 900 79 q 564 20 671 4 q 358 83 457 36 q 190 0 310 18 q 62 95 97 35 q 47 217 26 156 q 131 325 68 278 l 217 281 q 281 451 251 360 l 78 446 q 93 560 51 482 l 307 543 q 332 661 321 597 z "},"¤":{"ha":1229,"x_min":72,"x_max":1238,"o":"m 585 140 q 388 217 482 140 l 260 63 q 128 101 178 67 q 76 178 79 135 q 100 264 72 221 l 276 344 q 236 488 236 418 q 322 706 236 588 l 138 788 q 113 874 110 831 q 167 951 117 917 q 299 990 217 986 l 438 825 q 751 933 579 933 q 928 860 838 933 l 1050 1007 q 1156 983 1111 1004 q 1219 933 1200 963 q 1235 870 1238 904 q 1210 806 1233 836 l 1040 728 q 1092 571 1090 643 q 1004 350 1092 460 l 1157 279 q 1181 193 1185 236 q 1128 116 1178 150 q 996 78 1078 82 l 871 229 q 585 140 735 140 m 615 283 q 803 525 760 388 q 780 679 799 619 q 715 800 761 739 q 592 639 643 732 q 539 464 540 546 q 560 369 538 421 q 615 283 582 317 z "},"¥":{"ha":1065,"x_min":46,"x_max":1079,"o":"m 1024 460 l 701 454 q 690 346 696 388 l 993 392 q 1031 328 1026 378 q 996 231 1035 278 l 681 219 q 669 43 681 208 q 476 4 606 -10 q 307 76 346 18 q 349 199 325 124 l 76 157 q 49 233 46 179 q 85 322 51 286 l 389 318 q 418 403 401 358 l 403 432 l 94 407 q 67 483 64 429 q 103 572 69 536 l 336 553 q 124 892 214 771 q 278 1044 188 1007 q 471 1046 369 1081 l 471 733 l 561 467 l 574 467 l 619 554 l 775 732 l 704 1013 q 931 1062 833 1071 q 1079 990 1029 1053 q 1051 881 1074 929 q 996 791 1028 833 q 940 722 964 749 q 897 676 915 694 q 840 619 878 657 q 786 564 803 581 l 1021 614 q 1063 553 1063 596 q 1024 460 1064 511 z "},"¦":{"ha":543,"x_min":-19,"x_max":638,"o":"m 121 451 q 299 478 213 478 q 449 431 385 478 l 357 103 q 319 -254 346 15 q 134 -285 258 -300 q -19 -217 10 -269 q 90 172 57 21 l 121 451 m 469 1426 q 638 1363 594 1426 l 528 1018 q 489 682 501 803 q 311 638 428 632 q 150 697 194 643 q 260 1088 232 960 l 290 1385 q 469 1426 378 1426 z "},"§":{"ha":993,"x_min":-43,"x_max":972,"o":"m 685 321 q 619 383 653 358 q 572 418 585 408 q 528 444 558 428 q 490 466 497 461 q 404 510 482 471 q 340 426 340 476 q 410 355 357 393 q 507 293 463 317 q 644 224 551 269 q 685 321 689 269 m 590 915 q 499 864 533 894 q 464 801 464 833 q 531 728 464 768 q 681 654 597 689 q 852 558 765 619 q 972 428 939 497 q 779 150 946 250 q 886 29 856 92 q 723 -228 861 -132 q 381 -340 585 -325 q -43 -187 147 -322 q 102 21 21 -43 q 296 46 183 85 q 394 -193 317 -87 q 493 -137 451 -181 q 535 -39 535 -93 q 488 20 535 -10 q 374 79 442 50 q 236 144 306 108 q 113 235 167 179 q 50 358 60 290 q 276 578 129 525 q 138 758 151 658 q 317 973 207 900 q 610 1063 428 1046 q 964 854 850 1054 q 863 737 938 768 q 650 729 788 706 q 590 915 644 846 z "},"¨":{"ha":700,"x_min":133,"x_max":799,"o":"m 133 1017 q 133 1045 133 1017 q 174 1111 133 1072 q 272 1150 215 1150 q 367 1111 328 1150 q 407 1017 407 1072 q 367 923 407 963 q 272 883 328 883 q 174 923 215 883 q 133 1017 133 963 m 799 1017 q 799 990 799 1017 q 760 923 799 963 q 665 883 721 883 q 567 923 608 883 q 525 1017 525 963 q 567 1111 525 1072 q 665 1150 608 1150 q 760 1111 721 1150 q 799 1017 799 1072 z "},"©":{"ha":1282,"x_min":61,"x_max":1288,"o":"m 332 461 q 361 594 332 538 q 446 707 390 650 q 772 861 590 825 q 926 799 883 840 q 999 665 969 758 q 918 576 985 603 q 743 561 851 549 q 714 732 753 638 l 676 722 q 607 507 607 625 q 669 340 604 413 q 899 446 801 374 q 962 419 942 446 q 967 340 982 393 q 825 251 914 290 q 632 200 736 213 q 403 289 474 218 q 332 461 332 360 m 1196 572 q 1069 861 1139 792 q 881 972 992 939 q 728 1004 814 992 q 341 831 499 969 q 153 497 183 693 q 288 192 165 304 q 607 61 410 79 q 1029 233 892 86 q 1196 572 1154 368 m 61 499 q 281 885 106 732 q 735 1074 457 1039 q 1049 992 946 1057 q 1142 919 1104 957 q 1208 822 1181 881 q 1288 575 1256 724 q 600 -8 1182 39 q 207 144 346 11 q 61 499 68 276 z "},"ª":{"ha":788,"x_min":100,"x_max":828,"o":"m 828 996 l 724 799 q 758 467 728 632 q 627 433 726 424 q 463 497 528 442 l 501 574 l 479 593 q 356 451 400 506 q 163 526 226 457 q 101 688 100 594 q 142 864 101 782 q 269 1005 183 946 q 467 1065 356 1064 q 553 936 504 1032 q 575 1054 549 1015 q 752 1058 693 1071 q 828 996 811 1044 m 474 913 q 381 817 414 875 q 349 702 349 760 q 383 607 349 644 q 521 746 406 632 l 525 757 l 532 826 q 474 913 504 881 z "},"«":{"ha":913,"x_min":81,"x_max":908,"o":"m 818 376 q 807 226 839 296 q 714 158 775 157 l 449 472 q 471 579 447 519 l 835 853 q 901 770 893 829 q 857 631 908 711 l 615 483 l 704 433 l 818 376 m 414 376 q 403 226 436 296 q 310 158 371 157 l 82 472 q 104 579 81 519 l 249 682 l 436 853 q 501 770 493 829 q 458 631 510 711 l 249 483 l 338 433 l 414 376 z "},"¬":{"ha":1454,"x_min":88,"x_max":1397,"o":"m 839 589 l 1364 617 q 1376 494 1397 596 l 1317 238 q 1255 226 1293 221 q 1185 256 1217 231 l 1240 474 l 104 458 q 92 519 88 479 q 124 596 97 558 l 839 589 z "},"­":{"ha":819,"x_min":89,"x_max":767,"o":"m 744 556 q 760 500 767 544 q 721 414 753 456 l 106 399 q 94 458 89 418 q 125 535 100 499 l 399 528 l 744 556 z "},"®":{"ha":879,"x_min":135,"x_max":883,"o":"m 547 1069 q 797 972 729 1056 q 849 884 832 929 q 883 765 867 839 q 464 410 819 439 q 224 502 308 421 q 135 719 139 583 q 269 954 163 861 q 547 1069 376 1047 m 468 453 q 717 549 635 467 q 828 764 800 632 q 797 864 811 828 q 751 936 782 900 q 542 1028 694 1006 q 306 922 403 1007 q 190 718 210 838 q 273 533 199 601 q 468 453 347 464 m 351 922 q 497 944 410 944 q 640 909 585 944 q 694 827 696 874 q 669 753 693 781 q 583 696 644 726 q 559 694 572 696 q 542 692 546 692 q 668 643 575 649 q 667 583 686 614 q 604 539 647 553 q 486 690 501 578 l 476 690 q 468 556 476 643 q 395 540 446 536 q 331 568 344 544 q 396 829 374 701 l 386 874 l 363 879 q 348 899 351 886 q 351 922 344 913 m 553 753 q 579 814 579 783 q 507 883 579 875 l 483 783 q 479 735 481 750 q 553 753 519 739 z "},"¯":{"ha":608,"x_min":90,"x_max":699,"o":"m 676 999 q 692 955 699 988 q 654 882 686 922 l 121 865 q 140 978 90 904 l 406 971 l 676 999 z "},"°":{"ha":796,"x_min":119,"x_max":832,"o":"m 507 996 q 428 897 460 953 q 397 798 396 842 q 439 685 397 754 q 565 831 539 746 q 533 944 560 892 q 507 996 526 960 m 533 1088 q 729 1010 632 1088 q 828 858 826 933 q 701 672 832 760 q 413 585 571 585 q 218 651 311 585 q 122 782 125 717 q 237 992 119 896 q 533 1088 354 1088 z "},"±":{"ha":1072,"x_min":69,"x_max":1021,"o":"m 635 693 l 1001 706 q 1013 649 1021 693 q 972 564 1006 604 l 611 568 l 571 339 q 511 338 549 325 q 440 383 474 350 l 486 569 l 158 575 q 150 635 143 596 q 183 713 157 674 l 507 696 l 540 925 q 598 928 556 943 q 675 874 640 914 l 635 693 m 918 285 q 931 227 939 271 q 890 142 924 183 l 86 146 q 75 203 69 164 q 106 281 81 243 l 515 274 l 918 285 z "},"²":{"ha":549,"x_min":81,"x_max":560,"o":"m 399 901 q 354 917 386 917 q 283 868 322 917 l 299 824 q 266 798 293 813 q 228 782 239 783 q 108 931 132 861 q 204 1038 143 996 q 331 1079 265 1079 q 469 991 397 1079 q 540 824 540 903 q 440 668 540 746 l 304 563 l 314 556 l 535 622 q 547 536 560 601 q 486 418 533 471 l 272 456 l 174 439 q 81 583 93 492 l 342 822 q 399 901 389 865 z "},"³":{"ha":513,"x_min":65,"x_max":554,"o":"m 301 907 q 250 886 276 907 l 268 839 q 196 796 244 811 q 134 856 167 815 q 88 931 101 897 q 192 1038 128 997 q 328 1079 256 1079 q 476 1014 400 1079 q 551 890 551 949 q 474 790 554 822 l 406 764 q 508 702 474 733 q 539 629 543 671 q 415 501 535 556 q 125 436 296 447 q 81 497 96 457 q 74 575 65 538 q 336 671 268 613 q 246 708 283 708 l 240 746 l 369 829 q 301 907 350 907 z "},"´":{"ha":426,"x_min":144,"x_max":561,"o":"m 294 1206 q 467 1198 406 1219 q 561 1107 528 1176 l 267 857 q 182 875 219 856 q 149 926 144 894 l 253 1058 l 294 1206 z "},"µ":{"ha":1050,"x_min":-108,"x_max":1033,"o":"m 1033 693 l 906 453 q 947 43 910 269 q 782 1 906 -10 q 575 81 658 13 l 635 207 l 617 222 q 426 0 553 138 q 321 17 389 3 q 168 -462 244 -239 q -6 -458 81 -499 q -108 -349 -93 -417 q 169 431 61 14 q 135 758 160 643 q 253 781 185 779 q 389 760 322 783 q 489 692 456 738 q 386 249 464 531 q 457 217 410 231 q 621 397 571 325 q 707 763 664 644 q 929 772 853 788 q 1033 693 1006 757 z "},"¶":{"ha":975,"x_min":86,"x_max":1044,"o":"m 743 1008 l 761 1129 q 908 1144 811 1151 q 1044 1097 1004 1138 l 964 836 l 868 453 q 846 250 861 407 q 824 25 831 93 q 680 -1 774 -12 q 572 49 586 10 l 669 482 l 726 849 q 639 839 706 853 l 538 453 l 485 25 q 341 -1 435 -12 q 232 49 247 10 q 340 457 308 244 q 166 512 240 460 q 90 658 92 564 q 247 925 86 843 q 743 1008 408 1007 z "},"·":{"ha":529,"x_min":118,"x_max":442,"o":"m 228 351 q 152 383 183 351 q 118 464 121 414 q 186 594 135 538 q 303 658 238 650 q 392 601 349 658 q 442 482 436 544 q 228 351 349 351 z "},"¸":{"ha":583,"x_min":-99,"x_max":471,"o":"m 228 -94 q 338 -56 278 -56 q 434 -101 397 -56 q 460 -212 471 -146 q 367 -367 443 -312 q 193 -419 292 -421 q 17 -374 94 -417 q -96 -271 -61 -332 q -85 -219 -99 -240 q -51 -196 -72 -197 q 45 -269 -3 -247 q 158 -292 93 -292 q 264 -228 256 -292 q 244 -167 271 -196 q 174 -197 217 -172 q 109 -179 139 -197 q 74 -135 79 -161 l 165 49 l 301 49 l 228 -94 z "},"¹":{"ha":424,"x_min":82,"x_max":490,"o":"m 438 885 l 372 583 l 361 432 q 124 463 207 413 l 200 793 l 261 890 l 229 901 l 174 839 q 125 846 151 835 q 82 876 99 857 l 201 1058 q 353 1067 250 1076 q 490 1024 456 1058 l 438 885 z "},"º":{"ha":835,"x_min":111,"x_max":844,"o":"m 228 935 q 256 964 228 935 q 365 1027 283 992 q 542 1063 446 1063 q 739 965 638 1063 q 842 776 840 867 q 783 606 844 686 q 621 474 722 525 q 415 422 519 422 q 214 506 311 422 q 114 665 117 589 q 142 810 111 740 q 228 935 174 879 m 525 957 q 414 826 458 901 q 371 682 369 750 q 389 607 371 650 q 429 535 407 564 q 606 732 564 613 q 563 886 594 822 q 525 957 551 908 z "},"»":{"ha":914,"x_min":50,"x_max":876,"o":"m 140 635 q 151 784 118 714 q 244 853 183 854 l 508 539 q 488 431 510 489 l 124 158 q 58 240 65 181 q 101 379 50 300 l 342 528 l 253 576 l 140 635 m 544 635 q 554 784 522 714 q 647 853 586 854 l 875 539 q 854 431 876 489 l 708 331 l 522 158 q 456 240 464 181 q 500 379 449 300 l 708 528 l 621 576 l 544 635 z "},"¼":{"ha":1317,"x_min":128,"x_max":1242,"o":"m 910 599 q 1022 606 944 606 q 1239 524 1179 606 l 1188 411 l 1150 228 l 1233 232 q 1236 166 1242 210 q 1217 108 1231 122 l 1131 111 l 1121 -24 q 1011 -31 1082 -39 q 910 8 940 -22 l 936 118 l 914 119 l 660 106 q 631 194 622 135 l 910 599 m 915 218 l 961 219 l 971 261 l 1036 472 l 1026 475 l 964 388 l 868 225 l 915 218 m 597 561 l 844 1210 q 967 1212 932 1224 q 1026 1151 1003 1200 l 321 -128 q 201 -110 236 -132 q 161 -37 167 -89 l 597 561 m 275 901 l 219 839 q 171 846 197 835 q 128 876 144 857 l 247 1058 q 399 1067 296 1076 q 536 1024 501 1058 l 483 885 l 418 583 l 407 432 q 169 463 253 413 l 246 793 l 307 890 l 275 901 z "},"½":{"ha":1285,"x_min":129,"x_max":1215,"o":"m 597 561 l 844 1210 q 967 1212 932 1224 q 1026 1151 1003 1200 l 321 -128 q 201 -110 236 -132 q 161 -37 167 -89 l 597 561 m 485 885 l 419 583 l 408 432 q 171 463 254 413 l 247 793 l 308 890 l 276 901 l 221 839 q 172 846 199 835 q 129 876 146 857 l 249 1058 q 400 1067 297 1076 q 538 1024 503 1058 l 485 885 m 1054 433 q 1010 449 1042 449 q 939 400 978 449 l 954 356 q 922 330 949 344 q 883 314 894 315 q 764 463 788 393 q 860 569 799 528 q 987 611 921 611 q 1124 523 1053 611 q 1196 356 1196 435 q 1096 200 1196 278 l 960 94 l 969 88 l 1190 154 q 1202 68 1215 133 q 1142 -50 1189 3 l 928 -12 l 829 -29 q 736 115 749 24 l 997 354 q 1054 433 1044 397 z "},"¾":{"ha":1439,"x_min":126,"x_max":1343,"o":"m 1011 599 q 1125 606 1047 606 q 1342 524 1279 606 l 1289 411 l 1253 228 l 1335 232 q 1338 166 1343 210 q 1318 108 1333 122 l 1233 111 l 1224 -24 q 1113 -31 1185 -39 q 1011 8 1042 -22 l 1038 118 l 1017 119 l 763 106 q 733 194 725 135 l 1011 599 m 1018 218 l 1063 219 l 1072 261 l 1139 472 l 1129 475 l 1067 388 l 971 225 l 1018 218 m 699 561 l 946 1210 q 1069 1212 1033 1224 q 1128 1151 1104 1200 l 422 -128 q 303 -110 338 -132 q 263 -37 268 -89 l 699 561 m 363 907 q 311 886 338 907 l 329 839 q 257 796 306 811 q 195 856 228 815 q 149 931 163 897 q 253 1038 189 997 q 389 1079 317 1079 q 537 1014 461 1079 q 613 890 613 949 q 535 790 615 822 l 467 764 q 569 702 535 733 q 600 629 604 671 q 476 501 596 556 q 186 436 357 447 q 142 497 157 457 q 135 575 126 538 q 397 671 329 613 q 307 708 344 708 l 301 746 l 431 829 q 363 907 411 907 z "},"¿":{"ha":957,"x_min":-254,"x_max":631,"o":"m 479 765 q 558 731 525 765 q 596 644 592 696 q 526 507 579 567 q 404 438 472 447 q 306 499 356 438 q 250 628 257 560 q 479 765 356 765 m 493 -37 q 568 -94 538 -37 q 590 -394 631 -211 q 56 -547 269 -547 q -112 -488 -36 -547 q -221 -337 -187 -429 q -229 -153 -254 -244 q 324 249 -160 128 l 349 378 q 431 392 386 393 q 483 369 476 392 l 560 171 q 411 8 493 51 q 128 -81 271 -4 q -33 -226 -14 -157 q -25 -289 -44 -264 q 200 -247 82 -283 q 415 -156 318 -210 l 418 -58 q 493 -37 471 -37 z "},"À":{"ha":1113,"x_min":21,"x_max":1143,"o":"m 72 335 q 39 400 39 368 q 76 482 39 432 l 231 482 l 347 710 l 413 982 q 626 1038 514 1024 q 819 1042 739 1051 q 939 1008 899 1032 l 906 781 l 931 526 l 1092 553 q 1086 410 1143 504 l 943 400 l 979 39 q 800 -1 935 -8 q 582 63 665 7 l 643 379 l 474 367 l 367 39 q 172 6 293 -8 q 21 71 50 19 l 160 342 l 72 335 m 510 481 l 661 481 l 649 843 l 626 839 l 510 481 m 696 1129 l 596 1271 l 475 1369 q 556 1447 501 1421 q 662 1472 611 1474 q 742 1451 713 1471 l 840 1169 q 776 1127 819 1139 q 696 1129 732 1115 z "},"Á":{"ha":1113,"x_min":21,"x_max":1143,"o":"m 72 335 q 39 400 39 368 q 76 482 39 432 l 231 482 l 347 710 l 413 982 q 626 1038 514 1024 q 819 1042 739 1051 q 939 1008 899 1032 l 906 781 l 931 526 l 1092 553 q 1086 410 1143 504 l 943 400 l 979 39 q 800 -1 935 -8 q 582 63 665 7 l 643 379 l 474 367 l 367 39 q 172 6 293 -8 q 21 71 50 19 l 160 342 l 72 335 m 510 481 l 661 481 l 649 843 l 626 839 l 510 481 m 1038 1371 l 743 1121 q 658 1139 696 1119 q 625 1190 621 1158 l 729 1322 l 771 1469 q 943 1462 882 1483 q 1038 1371 1004 1440 z "},"Â":{"ha":1113,"x_min":21,"x_max":1143,"o":"m 72 335 q 39 400 39 368 q 76 482 39 432 l 231 482 l 347 710 l 413 982 q 626 1038 514 1024 q 819 1042 739 1051 q 939 1008 899 1032 l 906 781 l 931 526 l 1092 553 q 1086 410 1143 504 l 943 400 l 979 39 q 800 -1 935 -8 q 582 63 665 7 l 643 379 l 474 367 l 367 39 q 172 6 293 -8 q 21 71 50 19 l 160 342 l 72 335 m 510 481 l 661 481 l 649 843 l 626 839 l 510 481 m 707 1326 l 475 1122 q 388 1137 424 1119 q 347 1188 351 1154 l 646 1463 q 931 1425 817 1490 l 1085 1176 q 977 1127 1039 1138 q 873 1125 915 1117 q 794 1149 831 1133 l 707 1326 z "},"Ã":{"ha":1113,"x_min":21,"x_max":1153,"o":"m 933 1261 l 1032 1394 q 1116 1383 1079 1403 q 1150 1326 1153 1364 q 901 1121 1044 1167 q 769 1153 828 1131 q 681 1196 710 1176 q 614 1249 653 1215 l 603 1246 l 500 1124 q 410 1140 456 1114 q 368 1210 364 1165 q 475 1319 426 1279 q 610 1410 524 1360 q 926 1261 800 1374 l 933 1261 m 72 335 q 39 400 39 368 q 76 482 39 432 l 231 482 l 347 710 l 413 982 q 626 1038 514 1024 q 819 1042 739 1051 q 939 1008 899 1032 l 906 781 l 931 526 l 1092 553 q 1086 410 1143 504 l 943 400 l 979 39 q 800 -1 935 -8 q 582 63 665 7 l 643 379 l 474 367 l 367 39 q 172 6 293 -8 q 21 71 50 19 l 160 342 l 72 335 m 510 481 l 661 481 l 649 843 l 626 839 l 510 481 z "},"Ä":{"ha":1113,"x_min":21,"x_max":1143,"o":"m 72 335 q 39 400 39 368 q 76 482 39 432 l 231 482 l 347 710 l 413 982 q 626 1038 514 1024 q 819 1042 739 1051 q 939 1008 899 1032 l 906 781 l 931 526 l 1092 553 q 1086 410 1143 504 l 943 400 l 979 39 q 800 -1 935 -8 q 582 63 665 7 l 643 379 l 474 367 l 367 39 q 172 6 293 -8 q 21 71 50 19 l 160 342 l 72 335 m 510 481 l 661 481 l 649 843 l 626 839 l 510 481 m 654 1281 q 654 1254 654 1281 q 615 1187 654 1226 q 519 1147 575 1147 q 422 1187 463 1147 q 381 1281 381 1226 q 422 1375 381 1336 q 519 1414 463 1414 q 615 1375 575 1414 q 654 1281 654 1336 m 1046 1281 q 1046 1254 1046 1281 q 1007 1187 1046 1226 q 912 1147 968 1147 q 814 1187 856 1147 q 772 1281 772 1226 q 814 1375 772 1336 q 912 1414 856 1414 q 1007 1375 968 1414 q 1046 1281 1046 1336 z "},"Å":{"ha":1113,"x_min":21,"x_max":1143,"o":"m 72 335 q 39 400 39 368 q 76 482 39 432 l 231 482 l 347 710 l 413 982 q 626 1038 514 1024 q 819 1042 739 1051 q 939 1008 899 1032 l 906 781 l 931 526 l 1092 553 q 1086 410 1143 504 l 943 400 l 979 39 q 800 -1 935 -8 q 582 63 665 7 l 643 379 l 474 367 l 367 39 q 172 6 293 -8 q 21 71 50 19 l 160 342 l 72 335 m 510 481 l 661 481 l 649 843 l 626 839 l 510 481 m 1000 1292 q 883 1158 972 1203 q 677 1114 793 1114 q 497 1159 561 1114 q 458 1292 432 1204 q 789 1475 513 1475 q 917 1458 869 1475 q 983 1419 964 1440 q 1000 1292 1031 1367 m 686 1193 q 703 1182 694 1182 q 718 1183 713 1182 q 761 1274 746 1217 q 774 1356 776 1332 q 749 1403 768 1403 q 728 1399 733 1403 q 685 1292 696 1354 q 686 1193 665 1224 z "},"Æ":{"ha":1354,"x_min":3,"x_max":1439,"o":"m 635 857 l 518 519 l 675 539 l 658 861 l 635 857 m 1021 1047 q 1346 1038 1144 1047 q 1247 782 1439 913 l 1132 875 q 924 867 1060 889 l 885 782 l 896 574 q 1231 617 1057 607 q 1272 546 1275 601 q 1228 454 1269 490 q 888 444 1032 465 l 842 289 l 842 178 q 1231 250 974 193 q 1278 186 1269 231 q 1253 38 1293 114 q 1032 11 1175 22 q 807 0 889 0 q 579 86 644 0 l 664 426 l 476 410 l 349 39 q 151 6 272 -8 q 3 71 29 19 l 182 393 l 78 383 q 47 449 44 417 q 88 531 49 481 l 256 532 l 351 736 l 415 982 q 1021 1047 610 1047 z "},"Ç":{"ha":1007,"x_min":72,"x_max":999,"o":"m 542 -94 q 651 -56 592 -56 q 748 -101 711 -56 q 774 -212 785 -146 q 681 -367 757 -312 q 507 -419 606 -421 q 331 -374 408 -417 q 218 -271 253 -332 q 228 -219 215 -240 q 263 -196 242 -197 q 359 -269 311 -247 q 472 -292 407 -292 q 578 -228 569 -292 q 558 -167 585 -196 q 488 -197 531 -172 q 423 -179 453 -197 q 388 -135 393 -161 l 461 13 q 173 173 274 54 q 75 458 72 292 q 110 644 76 554 q 211 840 143 733 q 449 994 329 944 q 726 1064 569 1044 q 919 938 856 1017 q 999 746 982 860 q 880 657 976 685 q 682 672 783 629 q 625 917 675 861 l 594 908 q 453 701 500 813 q 404 487 406 590 q 442 317 403 383 q 563 207 481 251 q 847 347 733 267 q 930 321 906 351 q 951 232 954 290 q 603 24 829 106 l 542 -94 z "},"È":{"ha":1010,"x_min":97,"x_max":1093,"o":"m 696 1451 l 794 1169 q 730 1127 774 1139 q 650 1129 686 1115 l 550 1271 l 429 1369 q 510 1447 456 1421 q 616 1472 565 1474 q 696 1451 667 1471 m 751 883 q 563 872 624 883 l 519 769 l 483 581 q 806 625 751 621 q 839 568 833 604 q 807 432 850 506 q 467 453 624 451 l 418 171 q 871 261 710 218 q 935 203 921 246 q 886 33 961 124 l 324 0 q 97 185 110 50 q 126 265 104 204 q 153 340 149 325 q 174 400 158 354 q 197 467 190 446 q 215 527 203 488 q 235 603 226 567 q 256 685 244 640 l 240 874 q 138 906 186 894 q 130 970 126 938 q 151 1021 133 1003 q 584 1044 413 1042 q 1011 1029 756 1046 q 889 753 1093 846 l 751 883 z "},"É":{"ha":1010,"x_min":97,"x_max":1093,"o":"m 751 883 q 563 872 624 883 l 519 769 l 483 581 q 806 625 751 621 q 839 568 833 604 q 807 432 850 506 q 467 453 624 451 l 418 171 q 871 261 710 218 q 935 203 921 246 q 886 33 961 124 l 324 0 q 97 185 110 50 q 126 265 104 204 q 153 340 149 325 q 174 400 158 354 q 197 467 190 446 q 215 527 203 488 q 235 603 226 567 q 256 685 244 640 l 240 874 q 138 906 186 894 q 130 970 126 938 q 151 1021 133 1003 q 584 1044 413 1042 q 1011 1029 756 1046 q 889 753 1093 846 l 751 883 m 725 1469 q 897 1462 836 1483 q 992 1371 958 1440 l 697 1121 q 613 1139 650 1119 q 579 1190 575 1158 l 683 1322 l 725 1469 z "},"Ê":{"ha":1010,"x_min":97,"x_max":1093,"o":"m 751 883 q 563 872 624 883 l 519 769 l 483 581 q 806 625 751 621 q 839 568 833 604 q 807 432 850 506 q 467 453 624 451 l 418 171 q 871 261 710 218 q 935 203 921 246 q 886 33 961 124 l 324 0 q 97 185 110 50 q 126 265 104 204 q 153 340 149 325 q 174 400 158 354 q 197 467 190 446 q 215 527 203 488 q 235 603 226 567 q 256 685 244 640 l 240 874 q 138 906 186 894 q 130 970 126 938 q 151 1021 133 1003 q 584 1044 413 1042 q 1011 1029 756 1046 q 889 753 1093 846 l 751 883 m 301 1188 l 600 1463 q 885 1425 771 1490 l 1039 1176 q 931 1127 993 1138 q 827 1125 869 1117 q 749 1149 785 1133 l 661 1326 l 429 1122 q 342 1137 378 1119 q 301 1188 306 1154 z "},"Ë":{"ha":1010,"x_min":97,"x_max":1093,"o":"m 335 1281 q 335 1309 335 1281 q 376 1375 335 1336 q 473 1414 417 1414 q 569 1375 529 1414 q 608 1281 608 1336 q 569 1187 608 1226 q 473 1147 529 1147 q 376 1187 417 1147 q 335 1281 335 1226 m 1000 1281 q 1000 1254 1000 1281 q 961 1187 1000 1226 q 866 1147 922 1147 q 768 1187 810 1147 q 726 1281 726 1226 q 768 1375 726 1336 q 866 1414 810 1414 q 961 1375 922 1414 q 1000 1281 1000 1336 m 889 753 l 751 883 q 563 872 624 883 l 519 769 l 483 581 q 806 625 751 621 q 839 568 833 604 q 807 432 850 506 q 467 453 624 451 l 418 171 q 871 261 710 218 q 935 203 921 246 q 886 33 961 124 l 324 0 q 97 185 110 50 q 126 265 104 204 q 153 340 149 325 q 174 400 158 354 q 197 467 190 446 q 215 527 203 488 q 235 603 226 567 q 256 685 244 640 l 240 874 q 138 906 186 894 q 130 970 126 938 q 151 1021 133 1003 q 584 1044 413 1042 q 1011 1029 756 1046 q 889 753 1093 846 z "},"Ì":{"ha":494,"x_min":15,"x_max":547,"o":"m 444 1451 l 543 1169 q 478 1127 522 1139 q 399 1129 435 1115 l 299 1271 l 178 1369 q 259 1447 204 1421 q 365 1472 314 1474 q 444 1451 415 1471 m 418 1046 q 547 1021 494 1046 l 415 639 q 396 347 407 551 q 378 43 385 143 q 256 3 338 8 q 103 19 174 -3 q 15 78 32 42 q 185 757 106 317 l 181 988 q 418 1046 301 1046 z "},"Í":{"ha":494,"x_min":15,"x_max":740,"o":"m 474 1469 q 646 1462 585 1483 q 740 1371 707 1440 l 446 1121 q 361 1139 399 1119 q 328 1190 324 1158 l 432 1322 l 474 1469 m 418 1046 q 547 1021 494 1046 l 415 639 q 396 347 407 551 q 378 43 385 143 q 256 3 338 8 q 103 19 174 -3 q 15 78 32 42 q 185 757 106 317 l 181 988 q 418 1046 301 1046 z "},"Î":{"ha":494,"x_min":15,"x_max":788,"o":"m 50 1188 l 349 1463 q 633 1425 519 1490 l 788 1176 q 680 1127 742 1138 q 576 1125 618 1117 q 497 1149 533 1133 l 410 1326 l 178 1122 q 90 1137 126 1119 q 50 1188 54 1154 m 418 1046 q 547 1021 494 1046 l 415 639 q 396 347 407 551 q 378 43 385 143 q 256 3 338 8 q 103 19 174 -3 q 15 78 32 42 q 185 757 106 317 l 181 988 q 418 1046 301 1046 z "},"Ï":{"ha":494,"x_min":15,"x_max":749,"o":"m 418 1046 q 547 1021 494 1046 l 415 639 q 396 347 407 551 q 378 43 385 143 q 256 3 338 8 q 103 19 174 -3 q 15 78 32 42 q 185 757 106 317 l 181 988 q 418 1046 301 1046 m 83 1281 q 83 1309 83 1281 q 124 1375 83 1336 q 222 1414 165 1414 q 317 1375 278 1414 q 357 1281 357 1336 q 317 1187 357 1226 q 222 1147 278 1147 q 124 1187 165 1147 q 83 1281 83 1226 m 749 1281 q 749 1254 749 1281 q 710 1187 749 1226 q 615 1147 671 1147 q 517 1187 558 1147 q 475 1281 475 1226 q 517 1375 475 1336 q 615 1414 558 1414 q 710 1375 671 1414 q 749 1281 749 1336 z "},"Ð":{"ha":1147,"x_min":3,"x_max":1151,"o":"m 643 1046 q 1023 919 894 1046 q 1147 582 1151 793 q 1063 310 1144 438 q 842 79 982 182 q 310 0 585 -7 q 173 69 231 22 q 103 185 115 115 q 211 428 178 339 l 110 407 q 88 593 3 503 l 258 571 q 265 597 260 579 q 272 626 269 615 l 278 825 l 214 817 q 166 899 171 854 q 190 968 161 943 q 411 1024 278 1003 q 643 1046 544 1046 m 482 444 l 443 142 q 622 182 556 151 q 768 355 714 256 q 824 578 822 454 q 781 777 826 701 q 611 864 735 853 q 538 621 550 661 l 657 647 q 717 577 708 625 q 688 472 726 529 l 494 482 l 482 444 z "},"Ñ":{"ha":1139,"x_min":15,"x_max":1194,"o":"m 1064 1044 q 1194 1019 1142 1044 l 1063 640 q 1021 43 1054 532 q 830 1 932 -8 q 658 63 728 11 q 468 794 494 436 l 415 639 q 376 43 397 378 q 253 3 335 8 q 101 19 171 -3 q 15 78 31 42 q 183 749 121 375 l 185 988 q 439 1046 308 1046 q 563 1013 500 1046 q 592 847 571 968 q 682 392 631 608 l 731 288 q 831 743 799 576 l 826 986 q 1064 1044 944 1044 m 589 1246 l 486 1124 q 396 1140 442 1114 q 354 1210 350 1165 q 461 1319 413 1279 q 596 1410 510 1360 q 913 1261 786 1374 l 919 1261 l 1018 1394 q 1102 1383 1065 1403 q 1136 1326 1139 1364 q 888 1121 1031 1167 q 755 1153 814 1131 q 667 1196 696 1176 q 600 1249 639 1215 l 589 1246 z "},"Ò":{"ha":1029,"x_min":54,"x_max":1097,"o":"m 683 1451 l 782 1169 q 717 1127 761 1139 q 638 1129 674 1115 l 538 1271 l 417 1369 q 498 1447 443 1421 q 603 1472 553 1474 q 683 1451 654 1471 m 369 471 q 476 151 369 311 q 642 321 569 219 q 739 524 714 422 q 700 734 728 644 q 607 917 672 824 q 439 706 508 838 q 369 471 369 575 m 54 453 q 131 744 54 603 q 340 976 207 886 q 622 1067 474 1067 q 754 1026 682 1067 q 888 922 826 986 q 992 769 950 858 q 954 311 1097 547 q 738 86 871 172 q 472 0 606 0 q 284 67 382 0 q 120 240 186 133 q 54 453 54 347 z "},"Ó":{"ha":1029,"x_min":54,"x_max":1097,"o":"m 369 471 q 476 151 369 311 q 642 321 569 219 q 739 524 714 422 q 700 734 728 644 q 607 917 672 824 q 439 706 508 838 q 369 471 369 575 m 54 453 q 131 744 54 603 q 340 976 207 886 q 622 1067 474 1067 q 754 1026 682 1067 q 888 922 826 986 q 992 769 950 858 q 954 311 1097 547 q 738 86 871 172 q 472 0 606 0 q 284 67 382 0 q 120 240 186 133 q 54 453 54 347 m 713 1469 q 885 1462 824 1483 q 979 1371 946 1440 l 685 1121 q 600 1139 638 1119 q 567 1190 563 1158 l 671 1322 l 713 1469 z "},"Ô":{"ha":1029,"x_min":54,"x_max":1097,"o":"m 369 471 q 476 151 369 311 q 642 321 569 219 q 739 524 714 422 q 700 734 728 644 q 607 917 672 824 q 439 706 508 838 q 369 471 369 575 m 54 453 q 131 744 54 603 q 340 976 207 886 q 622 1067 474 1067 q 754 1026 682 1067 q 888 922 826 986 q 992 769 950 858 q 954 311 1097 547 q 738 86 871 172 q 472 0 606 0 q 284 67 382 0 q 120 240 186 133 q 54 453 54 347 m 289 1188 l 588 1463 q 872 1425 758 1490 l 1026 1176 q 919 1127 981 1138 q 815 1125 857 1117 q 736 1149 772 1133 l 649 1326 l 417 1122 q 329 1137 365 1119 q 289 1188 293 1154 z "},"Õ":{"ha":1029,"x_min":54,"x_max":1097,"o":"m 551 1410 q 868 1261 742 1374 l 875 1261 l 974 1394 q 1058 1383 1021 1403 q 1092 1326 1094 1364 q 843 1121 986 1167 q 710 1153 769 1131 q 623 1196 651 1176 q 556 1249 594 1215 l 544 1246 l 442 1124 q 351 1140 397 1114 q 310 1210 306 1165 q 417 1319 368 1279 q 551 1410 465 1360 m 369 471 q 476 151 369 311 q 642 321 569 219 q 739 524 714 422 q 700 734 728 644 q 607 917 672 824 q 439 706 508 838 q 369 471 369 575 m 54 453 q 131 744 54 603 q 340 976 207 886 q 622 1067 474 1067 q 754 1026 682 1067 q 888 922 826 986 q 992 769 950 858 q 954 311 1097 547 q 738 86 871 172 q 472 0 606 0 q 284 67 382 0 q 120 240 186 133 q 54 453 54 347 z "},"Ö":{"ha":1029,"x_min":54,"x_max":1097,"o":"m 322 1281 q 322 1309 322 1281 q 363 1375 322 1336 q 460 1414 404 1414 q 556 1375 517 1414 q 596 1281 596 1336 q 556 1187 596 1226 q 460 1147 517 1147 q 363 1187 404 1147 q 322 1281 322 1226 m 988 1281 q 988 1254 988 1281 q 949 1187 988 1226 q 853 1147 910 1147 q 756 1187 797 1147 q 714 1281 714 1226 q 756 1375 714 1336 q 853 1414 797 1414 q 949 1375 910 1414 q 988 1281 988 1336 m 54 453 q 131 744 54 603 q 340 976 207 886 q 622 1067 474 1067 q 754 1026 682 1067 q 888 922 826 986 q 992 769 950 858 q 954 311 1097 547 q 738 86 871 172 q 472 0 606 0 q 284 67 382 0 q 120 240 186 133 q 54 453 54 347 m 369 471 q 476 151 369 311 q 642 321 569 219 q 739 524 714 422 q 700 734 728 644 q 607 917 672 824 q 439 706 508 838 q 369 471 369 575 z "},"×":{"ha":869,"x_min":40,"x_max":878,"o":"m 878 796 l 515 461 l 776 200 q 654 119 749 100 l 443 394 l 138 113 q 58 158 76 131 q 50 226 40 186 l 388 468 l 132 803 q 253 885 153 892 l 461 522 l 771 889 q 858 867 838 883 q 878 796 878 851 z "},"Ø":{"ha":1088,"x_min":-6,"x_max":1158,"o":"m 974 310 q 932 241 974 310 q 758 86 890 172 q 495 0 625 0 q 233 125 365 0 l 161 0 q 37 60 75 26 q -6 156 -1 93 l 132 254 q 74 453 74 356 q 150 744 74 603 q 360 976 226 886 q 642 1067 493 1067 q 772 1028 701 1067 q 904 924 843 989 l 974 1044 q 1107 1006 1063 1039 q 1158 907 1151 972 l 1003 788 q 1056 590 1054 690 q 974 310 1057 449 m 389 471 q 390 439 389 450 l 733 686 q 626 917 703 806 q 458 706 528 838 q 389 471 389 575 m 750 593 l 408 332 q 496 151 433 244 q 661 321 589 219 q 758 524 733 422 q 750 593 753 571 z "},"Ù":{"ha":1021,"x_min":82,"x_max":1064,"o":"m 686 1451 l 785 1169 q 720 1127 764 1139 q 640 1129 676 1115 l 540 1271 l 419 1369 q 501 1447 446 1421 q 606 1472 556 1474 q 686 1451 657 1471 m 978 457 q 819 122 939 243 q 514 0 700 0 q 215 90 328 0 q 82 317 103 179 q 178 1004 140 619 q 418 1063 299 1063 q 546 1038 494 1063 q 404 506 431 674 q 394 299 382 346 q 456 211 414 235 q 611 181 515 181 q 703 403 671 292 q 757 674 736 515 l 696 1004 q 936 1063 817 1063 q 1064 1038 1014 1063 q 978 457 1035 775 z "},"Ú":{"ha":1021,"x_min":82,"x_max":1064,"o":"m 978 457 q 819 122 939 243 q 514 0 700 0 q 215 90 328 0 q 82 317 103 179 q 178 1004 140 619 q 418 1063 299 1063 q 546 1038 494 1063 q 404 506 431 674 q 394 299 382 346 q 456 211 414 235 q 611 181 515 181 q 703 403 671 292 q 757 674 736 515 l 696 1004 q 936 1063 817 1063 q 1064 1038 1014 1063 q 978 457 1035 775 m 715 1469 q 888 1462 826 1483 q 982 1371 949 1440 l 688 1121 q 603 1139 640 1119 q 569 1190 565 1158 l 674 1322 l 715 1469 z "},"Û":{"ha":1021,"x_min":82,"x_max":1064,"o":"m 978 457 q 819 122 939 243 q 514 0 700 0 q 215 90 328 0 q 82 317 103 179 q 178 1004 140 619 q 418 1063 299 1063 q 546 1038 494 1063 q 404 506 431 674 q 394 299 382 346 q 456 211 414 235 q 611 181 515 181 q 703 403 671 292 q 757 674 736 515 l 696 1004 q 936 1063 817 1063 q 1064 1038 1014 1063 q 978 457 1035 775 m 292 1188 l 590 1463 q 875 1425 761 1490 l 1029 1176 q 922 1127 983 1138 q 817 1125 860 1117 q 739 1149 775 1133 l 651 1326 l 419 1122 q 332 1137 368 1119 q 292 1188 296 1154 z "},"Ü":{"ha":1021,"x_min":82,"x_max":1064,"o":"m 325 1281 q 325 1309 325 1281 q 366 1375 325 1336 q 463 1414 407 1414 q 559 1375 519 1414 q 599 1281 599 1336 q 559 1187 599 1226 q 463 1147 519 1147 q 366 1187 407 1147 q 325 1281 325 1226 m 990 1281 q 990 1254 990 1281 q 951 1187 990 1226 q 856 1147 913 1147 q 758 1187 800 1147 q 717 1281 717 1226 q 758 1375 717 1336 q 856 1414 800 1414 q 951 1375 913 1414 q 990 1281 990 1336 m 936 1063 q 1064 1038 1014 1063 q 978 457 1035 775 q 819 122 939 243 q 514 0 700 0 q 215 90 328 0 q 82 317 103 179 q 178 1004 140 619 q 418 1063 299 1063 q 546 1038 494 1063 q 404 506 431 674 q 394 299 382 346 q 456 211 414 235 q 611 181 515 181 q 703 403 671 292 q 757 674 736 515 l 696 1004 q 936 1063 817 1063 z "},"Ý":{"ha":994,"x_min":117,"x_max":1072,"o":"m 689 1469 q 861 1462 800 1483 q 956 1371 922 1440 l 661 1121 q 576 1139 614 1119 q 543 1190 539 1158 l 647 1322 l 689 1469 m 117 892 q 272 1044 181 1007 q 464 1046 363 1081 l 464 733 l 554 464 l 567 464 l 613 554 l 768 732 l 697 1013 q 924 1062 826 1071 q 1072 990 1022 1053 q 1044 881 1067 929 q 980 779 1021 833 q 839 624 939 725 q 697 476 739 522 q 663 43 682 349 q 469 4 599 -10 q 300 76 339 18 q 401 413 358 236 q 117 892 246 721 z "},"Þ":{"ha":994,"x_min":31,"x_max":1007,"o":"m 550 1161 l 458 847 q 597 904 547 889 q 891 807 775 886 q 1006 589 1007 728 q 943 425 1006 497 q 743 281 881 353 q 421 275 575 250 q 406 47 417 182 q 281 4 365 10 q 122 20 196 -1 q 31 78 47 42 q 214 747 150 354 l 197 1110 q 384 1177 290 1164 q 550 1161 478 1190 m 646 422 q 700 576 704 489 q 596 747 700 715 q 446 719 511 747 q 438 564 444 682 q 428 382 431 446 q 646 422 578 354 z "},"ß":{"ha":1074,"x_min":15,"x_max":1054,"o":"m 803 649 l 801 640 q 990 528 926 607 q 1051 361 1054 450 q 940 131 1047 225 q 665 0 832 38 q 516 20 568 6 q 410 76 464 35 q 583 301 394 251 l 672 190 q 789 363 785 249 q 764 458 790 414 q 692 517 738 501 l 554 460 q 488 616 479 528 q 568 750 497 704 l 672 718 q 722 777 703 739 q 742 856 742 815 q 687 965 744 922 q 504 999 629 1007 l 417 817 q 354 35 375 231 q 160 5 279 -12 q 15 79 40 22 q 182 872 164 492 q 284 1051 228 990 q 451 1163 340 1113 q 684 1158 579 1176 q 853 1100 789 1140 q 952 1006 918 1060 q 986 894 986 953 q 935 750 983 818 q 803 649 886 682 z "},"à":{"ha":1086,"x_min":50,"x_max":1081,"o":"m 50 326 q 205 631 50 489 q 607 781 360 772 q 735 614 671 731 q 763 767 728 711 q 981 778 907 794 q 1081 693 1056 763 l 943 453 q 969 43 940 263 q 805 1 926 -10 q 604 79 683 13 l 664 199 l 639 225 q 422 21 507 104 q 141 114 232 29 q 50 326 50 199 m 586 608 q 444 485 497 563 q 392 330 392 407 q 442 219 392 253 q 689 400 528 278 l 700 476 q 586 608 656 568 m 681 865 l 581 1007 l 460 1106 q 541 1183 486 1157 q 647 1208 596 1210 q 726 1188 697 1207 l 825 906 q 760 863 804 875 q 681 865 717 851 z "},"á":{"ha":1086,"x_min":50,"x_max":1081,"o":"m 50 326 q 205 631 50 489 q 607 781 360 772 q 735 614 671 731 q 763 767 728 711 q 981 778 907 794 q 1081 693 1056 763 l 943 453 q 969 43 940 263 q 805 1 926 -10 q 604 79 683 13 l 664 199 l 639 225 q 422 21 507 104 q 141 114 232 29 q 50 326 50 199 m 586 608 q 444 485 497 563 q 392 330 392 407 q 442 219 392 253 q 689 400 528 278 l 700 476 q 586 608 656 568 m 1022 1107 l 728 857 q 643 875 681 856 q 610 926 606 894 l 714 1058 l 756 1206 q 928 1198 867 1219 q 1022 1107 989 1176 z "},"â":{"ha":1086,"x_min":50,"x_max":1081,"o":"m 50 326 q 205 631 50 489 q 607 781 360 772 q 735 614 671 731 q 763 767 728 711 q 981 778 907 794 q 1081 693 1056 763 l 943 453 q 969 43 940 263 q 805 1 926 -10 q 604 79 683 13 l 664 199 l 639 225 q 422 21 507 104 q 141 114 232 29 q 50 326 50 199 m 586 608 q 444 485 497 563 q 392 330 392 407 q 442 219 392 253 q 689 400 528 278 l 700 476 q 586 608 656 568 m 692 1063 l 460 858 q 372 873 408 856 q 332 924 336 890 l 631 1199 q 915 1161 801 1226 l 1069 913 q 962 863 1024 874 q 858 861 900 853 q 779 885 815 869 l 692 1063 z "},"ã":{"ha":1086,"x_min":50,"x_max":1138,"o":"m 918 997 l 1017 1131 q 1101 1119 1064 1139 q 1135 1063 1138 1100 q 886 857 1029 903 q 753 890 813 867 q 666 932 694 913 q 599 985 638 951 l 588 982 l 485 860 q 394 876 440 850 q 353 946 349 901 q 460 1056 411 1015 q 594 1146 508 1096 q 911 997 785 1110 l 918 997 m 50 326 q 205 631 50 489 q 607 781 360 772 q 735 614 671 731 q 763 767 728 711 q 981 778 907 794 q 1081 693 1056 763 l 943 453 q 969 43 940 263 q 805 1 926 -10 q 604 79 683 13 l 664 199 l 639 225 q 422 21 507 104 q 141 114 232 29 q 50 326 50 199 m 586 608 q 444 485 497 563 q 392 330 392 407 q 442 219 392 253 q 689 400 528 278 l 700 476 q 586 608 656 568 z "},"ä":{"ha":1086,"x_min":50,"x_max":1081,"o":"m 50 326 q 205 631 50 489 q 607 781 360 772 q 735 614 671 731 q 763 767 728 711 q 981 778 907 794 q 1081 693 1056 763 l 943 453 q 969 43 940 263 q 805 1 926 -10 q 604 79 683 13 l 664 199 l 639 225 q 422 21 507 104 q 141 114 232 29 q 50 326 50 199 m 586 608 q 444 485 497 563 q 392 330 392 407 q 442 219 392 253 q 689 400 528 278 l 700 476 q 586 608 656 568 m 639 1017 q 639 990 639 1017 q 599 923 639 963 q 503 883 560 883 q 406 923 447 883 q 365 1017 365 963 q 406 1111 365 1072 q 503 1150 447 1150 q 599 1111 560 1150 q 639 1017 639 1072 m 1031 1017 q 1031 990 1031 1017 q 992 923 1031 963 q 897 883 953 883 q 799 923 840 883 q 757 1017 757 963 q 799 1111 757 1072 q 897 1150 840 1150 q 992 1111 953 1150 q 1031 1017 1031 1072 z "},"å":{"ha":1086,"x_min":50,"x_max":1081,"o":"m 50 326 q 205 631 50 489 q 607 781 360 772 q 735 614 671 731 q 763 767 728 711 q 981 778 907 794 q 1081 693 1056 763 l 943 453 q 969 43 940 263 q 805 1 926 -10 q 604 79 683 13 l 664 199 l 639 225 q 422 21 507 104 q 141 114 232 29 q 50 326 50 199 m 586 608 q 444 485 497 563 q 392 330 392 407 q 442 219 392 253 q 689 400 528 278 l 700 476 q 586 608 656 568 m 985 1028 q 867 894 957 939 q 662 850 778 850 q 481 895 546 850 q 443 1028 417 940 q 774 1211 497 1211 q 901 1194 854 1211 q 967 1156 949 1176 q 985 1028 1015 1103 m 672 929 q 688 918 679 918 q 703 919 697 918 q 746 1010 731 953 q 758 1092 761 1068 q 733 1139 753 1139 q 713 1135 718 1139 q 669 1028 681 1090 q 672 929 650 960 z "},"æ":{"ha":1547,"x_min":64,"x_max":1531,"o":"m 600 608 q 458 485 511 563 q 406 330 406 407 q 456 219 406 253 q 678 382 542 279 q 711 482 689 433 q 600 608 665 571 m 1136 636 l 1107 622 q 997 383 1004 514 q 1181 464 1099 419 q 1136 636 1211 574 m 64 326 q 219 631 64 489 q 621 781 374 772 q 672 722 654 753 q 706 659 689 692 q 731 614 724 626 q 758 767 724 711 q 877 786 814 789 q 953 756 940 783 l 894 581 q 1043 725 967 675 q 1250 796 1119 775 q 1417 736 1357 788 q 1451 438 1531 640 q 1237 349 1368 394 q 1004 283 1106 303 q 1074 171 1017 218 q 1361 279 1238 197 q 1440 253 1414 282 q 1451 157 1465 224 q 1271 56 1396 101 q 1042 0 1146 11 q 838 189 883 69 l 817 17 q 681 6 760 -14 q 593 72 603 25 l 642 203 l 629 217 q 525 113 590 182 q 436 21 460 44 q 155 114 246 29 q 64 326 64 199 z "},"ç":{"ha":883,"x_min":50,"x_max":856,"o":"m 481 -94 q 590 -56 531 -56 q 687 -101 650 -56 q 713 -212 724 -146 q 620 -367 696 -312 q 446 -419 544 -421 q 269 -374 347 -417 q 157 -271 192 -332 q 167 -219 154 -240 q 201 -196 181 -197 q 298 -269 250 -247 q 411 -292 346 -292 q 517 -228 508 -292 q 497 -167 524 -196 q 426 -197 469 -172 q 362 -179 392 -197 q 326 -135 332 -161 l 394 3 q 131 111 213 26 q 50 315 50 196 q 85 475 50 407 q 188 611 121 543 q 582 797 363 753 q 775 717 719 772 q 821 651 804 685 q 856 561 838 618 q 758 453 838 485 q 547 436 678 421 q 511 642 558 528 l 467 631 q 382 369 385 514 q 458 169 379 257 q 735 296 618 210 q 811 265 788 296 q 817 169 835 233 q 543 26 721 75 l 481 -94 z "},"è":{"ha":896,"x_min":42,"x_max":907,"o":"m 738 279 q 816 253 790 282 q 828 157 842 224 q 633 52 764 94 q 383 0 503 10 q 126 114 211 25 q 47 322 42 203 q 179 613 56 482 q 626 796 413 768 q 794 736 733 788 q 828 438 907 640 q 613 349 744 394 q 381 283 482 303 q 435 171 390 229 q 738 279 597 190 m 513 636 l 483 622 q 374 383 381 514 q 557 464 475 419 q 513 636 588 574 m 576 865 l 476 1007 l 356 1106 q 437 1183 382 1157 q 542 1208 492 1210 q 622 1188 593 1207 l 721 906 q 656 863 700 875 q 576 865 613 851 z "},"é":{"ha":896,"x_min":42,"x_max":918,"o":"m 626 796 q 794 736 733 788 q 828 438 907 640 q 613 349 744 394 q 381 283 482 303 q 435 171 390 229 q 738 279 597 190 q 816 253 790 282 q 828 157 842 224 q 633 52 764 94 q 383 0 503 10 q 126 114 211 25 q 47 322 42 203 q 179 613 56 482 q 626 796 413 768 m 513 636 l 483 622 q 374 383 381 514 q 557 464 475 419 q 513 636 588 574 m 918 1107 l 624 857 q 539 875 576 856 q 506 926 501 894 l 610 1058 l 651 1206 q 824 1198 763 1219 q 918 1107 885 1176 z "},"ê":{"ha":896,"x_min":42,"x_max":965,"o":"m 626 796 q 794 736 733 788 q 828 438 907 640 q 613 349 744 394 q 381 283 482 303 q 435 171 390 229 q 738 279 597 190 q 816 253 790 282 q 828 157 842 224 q 633 52 764 94 q 383 0 503 10 q 126 114 211 25 q 47 322 42 203 q 179 613 56 482 q 626 796 413 768 m 513 636 l 483 622 q 374 383 381 514 q 557 464 475 419 q 513 636 588 574 m 588 1063 l 356 858 q 268 873 304 856 q 228 924 232 890 l 526 1199 q 811 1161 697 1226 l 965 913 q 858 863 919 874 q 753 861 796 853 q 675 885 711 869 l 588 1063 z "},"ë":{"ha":896,"x_min":42,"x_max":926,"o":"m 653 1017 q 653 1045 653 1017 q 694 1111 653 1072 q 792 1150 736 1150 q 888 1111 849 1150 q 926 1017 926 1072 q 888 923 926 963 q 792 883 849 883 q 694 923 736 883 q 653 1017 653 963 m 626 796 q 794 736 733 788 q 828 438 907 640 q 613 349 744 394 q 381 283 482 303 q 435 171 390 229 q 738 279 597 190 q 816 253 790 282 q 828 157 842 224 q 633 52 764 94 q 383 0 503 10 q 126 114 211 25 q 47 322 42 203 q 179 613 56 482 q 626 796 413 768 m 513 636 l 483 622 q 374 383 381 514 q 557 464 475 419 q 513 636 588 574 m 535 1017 q 535 990 535 1017 q 495 923 535 963 q 399 883 456 883 q 302 923 343 883 q 261 1017 261 963 q 302 1111 261 1072 q 399 1150 343 1150 q 495 1111 456 1150 q 535 1017 535 1072 z "},"ì":{"ha":493,"x_min":15,"x_max":490,"o":"m 392 1188 l 490 906 q 426 863 469 875 q 346 865 382 851 l 246 1007 l 125 1106 q 206 1183 151 1157 q 312 1208 261 1210 q 392 1188 363 1207 m 151 449 l 139 726 q 469 743 347 821 l 394 490 q 376 43 385 390 q 189 5 308 -10 q 15 78 69 19 q 151 449 118 304 z "},"í":{"ha":493,"x_min":15,"x_max":688,"o":"m 151 449 l 139 726 q 469 743 347 821 l 394 490 q 376 43 385 390 q 189 5 308 -10 q 15 78 69 19 q 151 449 118 304 m 421 1206 q 593 1198 532 1219 q 688 1107 654 1176 l 393 857 q 308 875 346 856 q 275 926 271 894 l 379 1058 l 421 1206 z "},"î":{"ha":493,"x_min":-3,"x_max":735,"o":"m 151 449 l 139 726 q 469 743 347 821 l 394 490 q 376 43 385 390 q 189 5 308 -10 q 15 78 69 19 q 151 449 118 304 m -3 924 l 296 1199 q 581 1161 467 1226 l 735 913 q 627 863 689 874 q 523 861 565 853 q 444 885 481 869 l 357 1063 l 125 858 q 38 873 74 856 q -3 924 1 890 z "},"ï":{"ha":493,"x_min":15,"x_max":696,"o":"m 31 1017 q 31 1045 31 1017 q 72 1111 31 1072 q 169 1150 113 1150 q 265 1111 225 1150 q 304 1017 304 1072 q 265 923 304 963 q 169 883 225 883 q 72 923 113 883 q 31 1017 31 963 m 696 1017 q 696 990 696 1017 q 657 923 696 963 q 562 883 618 883 q 464 923 506 883 q 422 1017 422 963 q 464 1111 422 1072 q 562 1150 506 1150 q 657 1111 618 1150 q 696 1017 696 1072 m 151 449 l 139 726 q 469 743 347 821 l 394 490 q 376 43 385 390 q 189 5 308 -10 q 15 78 69 19 q 151 449 118 304 z "},"ð":{"ha":942,"x_min":53,"x_max":1026,"o":"m 754 1068 l 935 1153 q 1011 1100 996 1132 q 1008 1011 1026 1068 l 819 976 q 919 631 924 807 q 454 0 913 147 q 164 120 275 11 q 56 374 53 229 q 209 642 58 518 q 550 764 360 765 q 664 628 600 729 q 628 896 672 768 l 457 821 q 381 893 393 863 q 390 978 369 924 l 578 1000 l 458 1110 q 496 1185 460 1163 q 601 1217 532 1208 q 754 1068 690 1147 m 363 367 q 447 147 363 232 q 640 488 593 299 q 531 607 593 558 q 407 499 451 563 q 363 367 363 435 z "},"ñ":{"ha":1047,"x_min":38,"x_max":1025,"o":"m 806 997 l 904 1131 q 988 1119 951 1139 q 1022 1063 1025 1100 q 774 857 917 903 q 641 890 700 867 q 553 932 582 913 q 486 985 525 951 l 475 982 l 372 860 q 282 876 328 850 q 240 946 236 901 q 347 1056 299 1015 q 482 1146 396 1096 q 799 997 672 1110 l 806 997 m 394 594 l 411 567 q 674 781 533 686 q 876 713 797 774 q 985 575 956 651 l 918 356 q 958 43 918 185 q 793 1 914 -10 q 590 81 672 13 q 623 298 596 174 q 675 499 650 422 q 624 571 660 549 q 431 424 543 525 q 407 43 432 282 q 203 6 335 -10 q 38 79 71 21 q 176 474 121 278 l 124 693 q 425 774 253 801 q 446 657 446 711 l 394 594 z "},"ò":{"ha":911,"x_min":38,"x_max":893,"o":"m 38 347 q 74 481 38 407 q 174 626 111 556 q 338 745 238 697 q 555 793 439 793 q 781 670 671 793 q 893 431 890 547 q 822 229 893 329 q 631 65 750 129 q 386 0 513 0 q 149 110 260 0 q 38 347 38 221 m 517 660 q 393 499 444 592 q 340 324 342 406 q 361 228 339 281 q 417 143 383 176 q 604 385 561 247 q 581 539 600 479 q 517 660 563 599 m 586 1188 l 685 906 q 620 863 664 875 q 540 865 576 851 l 440 1007 l 319 1106 q 401 1183 346 1157 q 506 1208 456 1210 q 586 1188 557 1207 z "},"ó":{"ha":911,"x_min":38,"x_max":893,"o":"m 574 1058 l 615 1206 q 788 1198 726 1219 q 882 1107 849 1176 l 588 857 q 503 875 540 856 q 469 926 465 894 l 574 1058 m 38 347 q 74 481 38 407 q 174 626 111 556 q 338 745 238 697 q 555 793 439 793 q 781 670 671 793 q 893 431 890 547 q 822 229 893 329 q 631 65 750 129 q 386 0 513 0 q 149 110 260 0 q 38 347 38 221 m 517 660 q 393 499 444 592 q 340 324 342 406 q 361 228 339 281 q 417 143 383 176 q 604 385 561 247 q 581 539 600 479 q 517 660 563 599 z "},"ô":{"ha":911,"x_min":38,"x_max":929,"o":"m 192 924 l 490 1199 q 775 1161 661 1226 l 929 913 q 822 863 883 874 q 717 861 760 853 q 639 885 675 869 l 551 1063 l 319 858 q 232 873 268 856 q 192 924 196 890 m 38 347 q 74 481 38 407 q 174 626 111 556 q 338 745 238 697 q 555 793 439 793 q 781 670 671 793 q 893 431 890 547 q 822 229 893 329 q 631 65 750 129 q 386 0 513 0 q 149 110 260 0 q 38 347 38 221 m 517 660 q 393 499 444 592 q 340 324 342 406 q 361 228 339 281 q 417 143 383 176 q 604 385 561 247 q 581 539 600 479 q 517 660 563 599 z "},"õ":{"ha":911,"x_min":38,"x_max":997,"o":"m 38 347 q 74 481 38 407 q 174 626 111 556 q 338 745 238 697 q 555 793 439 793 q 781 670 671 793 q 893 431 890 547 q 822 229 893 329 q 631 65 750 129 q 386 0 513 0 q 149 110 260 0 q 38 347 38 221 m 517 660 q 393 499 444 592 q 340 324 342 406 q 361 228 339 281 q 417 143 383 176 q 604 385 561 247 q 581 539 600 479 q 517 660 563 599 m 447 982 l 344 860 q 254 876 300 850 q 213 946 208 901 q 319 1056 271 1015 q 454 1146 368 1096 q 771 997 644 1110 l 778 997 l 876 1131 q 960 1119 924 1139 q 994 1063 997 1100 q 746 857 889 903 q 613 890 672 867 q 526 932 554 913 q 458 985 497 951 l 447 982 z "},"ö":{"ha":911,"x_min":38,"x_max":893,"o":"m 225 1017 q 225 1045 225 1017 q 266 1111 225 1072 q 363 1150 307 1150 q 459 1111 419 1150 q 499 1017 499 1072 q 459 923 499 963 q 363 883 419 883 q 266 923 307 883 q 225 1017 225 963 m 890 1017 q 890 990 890 1017 q 851 923 890 963 q 756 883 813 883 q 658 923 700 883 q 617 1017 617 963 q 658 1111 617 1072 q 756 1150 700 1150 q 851 1111 813 1150 q 890 1017 890 1072 m 38 347 q 74 481 38 407 q 174 626 111 556 q 338 745 238 697 q 555 793 439 793 q 781 670 671 793 q 893 431 890 547 q 822 229 893 329 q 631 65 750 129 q 386 0 513 0 q 149 110 260 0 q 38 347 38 221 m 517 660 q 393 499 444 592 q 340 324 342 406 q 361 228 339 281 q 417 143 383 176 q 604 385 561 247 q 581 539 600 479 q 517 660 563 599 z "},"÷":{"ha":1171,"x_min":90,"x_max":1131,"o":"m 613 686 q 558 709 581 686 q 535 768 536 732 q 583 862 547 822 q 667 907 619 901 q 731 865 700 907 q 765 779 763 824 q 613 686 699 686 m 513 125 q 458 148 481 125 q 433 207 436 171 q 483 299 446 258 q 565 347 519 340 q 631 305 599 347 q 665 217 663 263 q 513 125 592 125 m 1110 604 q 1124 547 1131 592 q 1086 461 1118 503 l 107 446 q 96 506 90 465 q 126 583 101 546 l 626 575 l 1110 604 z "},"ø":{"ha":1014,"x_min":-6,"x_max":1068,"o":"m 883 229 q 847 179 883 229 q 692 65 811 129 q 451 0 574 0 q 219 101 328 0 l 111 0 q 24 37 50 8 q -6 119 -1 65 l 139 204 q 99 342 99 278 q 135 481 99 407 q 235 626 172 556 q 399 745 299 697 q 613 793 500 793 q 835 678 726 793 l 965 833 q 1040 789 1011 822 q 1058 717 1068 756 l 894 601 q 954 431 951 511 q 883 229 954 329 m 404 358 l 651 503 q 578 660 635 585 q 465 517 514 599 q 404 358 417 435 m 661 440 l 410 264 q 478 143 429 193 q 665 385 622 247 q 661 440 664 404 z "},"ù":{"ha":1036,"x_min":31,"x_max":1006,"o":"m 139 435 l 107 758 q 306 775 194 793 q 461 692 417 757 q 422 499 461 621 q 332 288 382 376 q 431 217 343 242 q 593 396 553 338 q 679 763 635 643 q 901 772 825 788 q 1006 693 978 757 l 878 453 q 919 43 882 269 q 754 1 878 -10 q 547 81 631 13 l 607 207 l 590 221 q 400 0 564 186 q 31 225 72 36 l 139 435 m 571 865 l 471 1007 l 350 1106 q 431 1183 376 1157 q 537 1208 486 1210 q 617 1188 588 1207 l 715 906 q 651 863 694 875 q 571 865 607 851 z "},"ú":{"ha":1036,"x_min":31,"x_max":1006,"o":"m 139 435 l 107 758 q 306 775 194 793 q 461 692 417 757 q 422 499 461 621 q 332 288 382 376 q 431 217 343 242 q 593 396 553 338 q 679 763 635 643 q 901 772 825 788 q 1006 693 978 757 l 878 453 q 919 43 882 269 q 754 1 878 -10 q 547 81 631 13 l 607 207 l 590 221 q 400 0 564 186 q 31 225 72 36 l 139 435 m 913 1107 l 618 857 q 533 875 571 856 q 500 926 496 894 l 604 1058 l 646 1206 q 818 1198 757 1219 q 913 1107 879 1176 z "},"û":{"ha":1036,"x_min":31,"x_max":1006,"o":"m 139 435 l 107 758 q 306 775 194 793 q 461 692 417 757 q 422 499 461 621 q 332 288 382 376 q 431 217 343 242 q 593 396 553 338 q 679 763 635 643 q 901 772 825 788 q 1006 693 978 757 l 878 453 q 919 43 882 269 q 754 1 878 -10 q 547 81 631 13 l 607 207 l 590 221 q 400 0 564 186 q 31 225 72 36 l 139 435 m 582 1063 l 350 858 q 263 873 299 856 q 222 924 226 890 l 521 1199 q 806 1161 692 1226 l 960 913 q 852 863 914 874 q 748 861 790 853 q 669 885 706 869 l 582 1063 z "},"ü":{"ha":1036,"x_min":31,"x_max":1006,"o":"m 139 435 l 107 758 q 306 775 194 793 q 461 692 417 757 q 422 499 461 621 q 332 288 382 376 q 431 217 343 242 q 593 396 553 338 q 679 763 635 643 q 901 772 825 788 q 1006 693 978 757 l 878 453 q 919 43 882 269 q 754 1 878 -10 q 547 81 631 13 l 607 207 l 590 221 q 400 0 564 186 q 31 225 72 36 l 139 435 m 529 1017 q 529 990 529 1017 q 490 923 529 963 q 394 883 450 883 q 297 923 338 883 q 256 1017 256 963 q 297 1111 256 1072 q 394 1150 338 1150 q 490 1111 450 1150 q 529 1017 529 1072 m 921 1017 q 921 990 921 1017 q 882 923 921 963 q 787 883 843 883 q 689 923 731 883 q 647 1017 647 963 q 689 1111 647 1072 q 787 1150 731 1150 q 882 1111 843 1150 q 921 1017 921 1072 z "},"ý":{"ha":965,"x_min":-1,"x_max":992,"o":"m 604 399 l 606 401 q 663 763 640 664 q 885 776 811 792 q 992 693 958 761 l 840 440 q 765 -269 767 -74 q 577 -403 693 -364 q 279 -439 461 -442 q -1 -168 49 -339 q 149 -48 65 -76 q 306 -62 233 -19 q 343 -174 325 -133 q 394 -258 361 -214 q 489 -222 464 -262 q 531 54 506 -57 l 600 186 l 579 204 q 419 36 513 124 q 179 110 275 51 q 65 256 83 169 l 138 436 q 122 609 133 506 q 107 758 111 713 q 227 781 158 781 q 364 758 296 782 q 472 689 432 735 q 364 308 457 522 q 440 242 381 267 q 604 399 529 308 m 899 1107 l 604 857 q 519 875 557 856 q 486 926 482 894 l 590 1058 l 632 1206 q 804 1198 743 1219 q 899 1107 865 1176 z "},"þ":{"ha":1036,"x_min":-33,"x_max":1032,"o":"m 397 586 l 421 565 q 472 635 436 585 q 597 781 533 717 q 913 701 818 778 q 1032 444 1007 624 q 926 250 1000 335 q 754 117 851 165 q 383 1 574 26 q 343 -357 344 -321 q 144 -398 253 -408 q -33 -325 35 -387 q 123 165 58 -124 q 211 747 188 454 l 196 1107 q 550 1163 400 1226 l 453 819 l 458 694 l 397 586 m 400 143 q 628 267 547 185 q 721 463 710 349 q 688 540 711 513 q 617 586 664 567 q 530 517 568 554 q 466 449 492 479 q 439 417 440 418 q 432 409 433 411 q 429 406 431 407 q 415 275 425 365 q 400 143 406 185 z "},"ÿ":{"ha":965,"x_min":-1,"x_max":992,"o":"m 604 399 l 606 401 q 663 763 640 664 q 885 776 811 792 q 992 693 958 761 l 840 440 q 765 -269 767 -74 q 577 -403 693 -364 q 279 -439 461 -442 q -1 -168 49 -339 q 149 -48 65 -76 q 306 -62 233 -19 q 343 -174 325 -133 q 394 -258 361 -214 q 489 -222 464 -262 q 531 54 506 -57 l 600 186 l 579 204 q 419 36 513 124 q 179 110 275 51 q 65 256 83 169 l 138 436 q 122 609 133 506 q 107 758 111 713 q 227 781 158 781 q 364 758 296 782 q 472 689 432 735 q 364 308 457 522 q 440 242 381 267 q 604 399 529 308 m 515 1017 q 515 990 515 1017 q 476 923 515 963 q 380 883 436 883 q 283 923 324 883 q 242 1017 242 963 q 283 1111 242 1072 q 380 1150 324 1150 q 476 1111 436 1150 q 515 1017 515 1072 m 907 1017 q 907 990 907 1017 q 868 923 907 963 q 773 883 829 883 q 675 923 717 883 q 633 1017 633 963 q 675 1111 633 1072 q 773 1150 717 1150 q 868 1111 829 1150 q 907 1017 907 1072 z "},"Ā":{"ha":1113,"x_min":21,"x_max":1143,"o":"m 72 335 q 39 400 39 368 q 76 482 39 432 l 231 482 l 347 710 l 413 982 q 626 1038 514 1024 q 819 1042 739 1051 q 939 1008 899 1032 l 906 781 l 931 526 l 1092 553 q 1086 410 1143 504 l 943 400 l 979 39 q 800 -1 935 -8 q 582 63 665 7 l 643 379 l 474 367 l 367 39 q 172 6 293 -8 q 21 71 50 19 l 160 342 l 72 335 m 510 481 l 661 481 l 649 843 l 626 839 l 510 481 m 968 1146 l 435 1129 q 454 1242 404 1168 l 719 1235 l 990 1263 q 1006 1219 1013 1251 q 968 1146 1000 1186 z "},"ā":{"ha":1086,"x_min":50,"x_max":1081,"o":"m 50 326 q 205 631 50 489 q 607 781 360 772 q 735 614 671 731 q 763 767 728 711 q 981 778 907 794 q 1081 693 1056 763 l 943 453 q 969 43 940 263 q 805 1 926 -10 q 604 79 683 13 l 664 199 l 639 225 q 422 21 507 104 q 141 114 232 29 q 50 326 50 199 m 586 608 q 444 485 497 563 q 392 330 392 407 q 442 219 392 253 q 689 400 528 278 l 700 476 q 586 608 656 568 m 953 882 l 419 865 q 439 978 389 904 l 704 971 l 975 999 q 991 955 997 988 q 953 882 985 922 z "},"Ă":{"ha":1113,"x_min":21,"x_max":1143,"o":"m 72 335 q 39 400 39 368 q 76 482 39 432 l 231 482 l 347 710 l 413 982 q 626 1038 514 1024 q 819 1042 739 1051 q 939 1008 899 1032 l 906 781 l 931 526 l 1092 553 q 1086 410 1143 504 l 943 400 l 979 39 q 800 -1 935 -8 q 582 63 665 7 l 643 379 l 474 367 l 367 39 q 172 6 293 -8 q 21 71 50 19 l 160 342 l 72 335 m 510 481 l 661 481 l 649 843 l 626 839 l 510 481 m 999 1326 q 898 1190 974 1249 q 726 1132 822 1132 q 549 1194 631 1132 q 451 1368 467 1257 q 489 1397 464 1385 q 535 1404 514 1408 q 663 1268 571 1294 q 807 1404 790 1290 q 938 1394 888 1415 q 999 1326 988 1372 z "},"ă":{"ha":1086,"x_min":50,"x_max":1081,"o":"m 50 326 q 205 631 50 489 q 607 781 360 772 q 735 614 671 731 q 763 767 728 711 q 981 778 907 794 q 1081 693 1056 763 l 943 453 q 969 43 940 263 q 805 1 926 -10 q 604 79 683 13 l 664 199 l 639 225 q 422 21 507 104 q 141 114 232 29 q 50 326 50 199 m 586 608 q 444 485 497 563 q 392 330 392 407 q 442 219 392 253 q 689 400 528 278 l 700 476 q 586 608 656 568 m 983 1063 q 883 926 958 985 q 711 868 807 868 q 533 931 615 868 q 436 1104 451 993 q 474 1133 449 1121 q 519 1140 499 1144 q 647 1004 556 1031 q 792 1140 775 1026 q 922 1130 872 1151 q 983 1063 972 1108 z "},"Ą":{"ha":1113,"x_min":21,"x_max":1143,"o":"m 760 -169 q 873 -215 793 -215 q 1036 -157 953 -215 q 1083 -178 1067 -154 q 1099 -243 1100 -201 q 959 -340 1038 -308 q 772 -372 881 -372 q 581 -322 664 -372 q 499 -206 499 -271 q 667 24 499 -85 q 582 63 621 38 l 643 379 l 474 367 l 367 39 q 172 6 293 -8 q 21 71 50 19 l 160 342 l 72 335 q 39 400 39 368 q 76 482 39 432 l 231 482 l 347 710 l 413 982 q 626 1038 514 1024 q 819 1042 739 1051 q 939 1008 899 1032 l 906 781 l 931 526 l 1092 553 q 1086 410 1143 504 l 943 400 l 979 39 q 936 14 965 22 q 760 -169 800 -50 m 510 481 l 661 481 l 649 843 l 626 839 l 510 481 z "},"ą":{"ha":1086,"x_min":50,"x_max":1081,"o":"m 744 -372 q 556 -319 624 -372 q 488 -197 488 -267 q 531 -65 488 -128 q 653 46 574 -1 q 604 79 629 58 l 664 199 l 639 225 q 422 21 507 104 q 141 114 232 29 q 50 326 50 199 q 205 631 50 489 q 607 781 360 772 q 735 614 671 731 q 763 767 728 711 q 981 778 907 794 q 1081 693 1056 763 l 943 453 q 969 43 940 263 q 883 3 942 11 q 742 -82 800 -24 q 679 -204 683 -140 q 943 -160 807 -244 q 1008 -176 990 -156 q 1025 -243 1025 -197 q 902 -337 976 -301 q 744 -372 828 -372 m 586 608 q 444 485 497 563 q 392 330 392 407 q 442 219 392 253 q 689 400 528 278 l 700 476 q 586 608 656 568 z "},"Ć":{"ha":1007,"x_min":72,"x_max":999,"o":"m 625 917 l 594 908 q 453 701 500 813 q 404 487 406 590 q 442 317 403 383 q 563 207 481 251 q 847 347 733 267 q 930 321 906 351 q 951 232 954 290 q 529 0 804 81 q 192 153 311 29 q 75 458 72 276 q 110 644 76 554 q 211 840 143 733 q 449 994 329 944 q 726 1064 569 1044 q 919 938 856 1017 q 999 746 982 860 q 880 657 976 685 q 682 672 783 629 q 625 917 675 861 m 714 1469 q 886 1462 825 1483 q 981 1371 947 1440 l 686 1121 q 601 1139 639 1119 q 568 1190 564 1158 l 672 1322 l 714 1469 z "},"ć":{"ha":883,"x_min":50,"x_max":883,"o":"m 50 315 q 85 475 50 407 q 188 611 121 543 q 582 797 363 753 q 775 717 719 772 q 821 651 804 685 q 856 561 838 618 q 758 453 838 485 q 547 436 678 421 q 511 642 558 528 l 467 631 q 382 369 385 514 q 458 169 379 257 q 735 296 618 210 q 811 265 788 296 q 817 169 835 233 q 645 62 753 108 q 413 0 538 15 q 136 107 222 21 q 50 315 50 193 m 617 1206 q 789 1198 728 1219 q 883 1107 850 1176 l 589 857 q 504 875 542 856 q 471 926 467 894 l 575 1058 l 617 1206 z "},"Č":{"ha":1007,"x_min":72,"x_max":1081,"o":"m 625 917 l 594 908 q 453 701 500 813 q 404 487 406 590 q 442 317 403 383 q 563 207 481 251 q 847 347 733 267 q 930 321 906 351 q 951 232 954 290 q 529 0 804 81 q 192 153 311 29 q 75 458 72 276 q 110 644 76 554 q 211 840 143 733 q 449 994 329 944 q 726 1064 569 1044 q 919 938 856 1017 q 999 746 982 860 q 880 657 976 685 q 682 672 783 629 q 625 917 675 861 m 832 1163 q 538 1146 649 1086 l 354 1413 q 410 1460 369 1444 q 493 1467 450 1476 l 649 1238 l 838 1456 q 1006 1463 926 1482 q 1081 1410 1060 1450 l 832 1163 z "},"č":{"ha":883,"x_min":50,"x_max":983,"o":"m 50 315 q 85 475 50 407 q 188 611 121 543 q 582 797 363 753 q 775 717 719 772 q 821 651 804 685 q 856 561 838 618 q 758 453 838 485 q 547 436 678 421 q 511 642 558 528 l 467 631 q 382 369 385 514 q 458 169 379 257 q 735 296 618 210 q 811 265 788 296 q 817 169 835 233 q 645 62 753 108 q 413 0 538 15 q 136 107 222 21 q 50 315 50 193 m 735 899 q 440 882 551 822 l 257 1149 q 313 1197 272 1181 q 396 1203 353 1213 l 551 974 l 740 1192 q 908 1199 829 1218 q 983 1146 963 1186 l 735 899 z "},"Ď":{"ha":1103,"x_min":58,"x_max":1107,"o":"m 599 1046 q 978 919 850 1046 q 1103 582 1107 793 q 1019 310 1100 438 q 797 79 938 182 q 265 0 540 -7 q 128 69 186 22 q 58 185 71 115 q 228 626 186 449 l 233 825 l 169 817 q 122 899 126 854 q 146 968 117 943 q 367 1024 233 1003 q 599 1046 500 1046 m 438 444 l 399 142 q 578 182 511 151 q 724 355 669 256 q 780 578 778 454 q 736 777 782 701 q 567 864 690 853 q 438 444 457 507 m 1039 1410 l 790 1163 q 496 1146 607 1086 l 313 1413 q 368 1460 328 1444 q 451 1467 408 1476 l 607 1238 l 796 1456 q 964 1463 885 1482 q 1039 1410 1018 1450 z "},"ď":{"ha":1142,"x_min":43,"x_max":1464,"o":"m 1217 1050 l 1193 1285 q 1286 1328 1239 1319 q 1369 1322 1333 1336 q 1464 1236 1443 1293 q 1228 863 1450 1028 q 1129 921 1149 864 l 1217 1050 m 786 747 l 769 1129 q 1111 1163 982 1221 l 1011 818 q 926 43 1003 726 q 744 2 872 -7 q 558 81 617 11 l 646 194 l 628 215 q 419 21 508 106 q 141 110 239 22 q 49 326 43 199 q 92 487 51 407 q 204 632 133 567 q 384 738 275 697 q 621 781 493 779 q 750 593 693 715 q 786 747 772 675 m 689 400 l 713 476 q 586 607 649 572 q 446 485 497 563 q 391 332 394 408 q 440 219 388 256 q 689 400 540 288 z "},"Đ":{"ha":1147,"x_min":3,"x_max":1151,"o":"m 643 1046 q 1023 919 894 1046 q 1147 582 1151 793 q 1063 310 1144 438 q 842 79 982 182 q 310 0 585 -7 q 173 69 231 22 q 103 185 115 115 q 211 428 178 339 l 110 407 q 88 593 3 503 l 258 571 q 265 597 260 579 q 272 626 269 615 l 278 825 l 214 817 q 166 899 171 854 q 190 968 161 943 q 411 1024 278 1003 q 643 1046 544 1046 m 482 444 l 443 142 q 622 182 556 151 q 768 355 714 256 q 824 578 822 454 q 781 777 826 701 q 611 864 735 853 q 538 621 550 661 l 657 647 q 717 577 708 625 q 688 472 726 529 l 494 482 l 482 444 z "},"đ":{"ha":1043,"x_min":43,"x_max":1224,"o":"m 1060 985 l 1201 999 q 1217 955 1224 988 q 1179 882 1211 922 l 1028 878 l 1011 818 q 926 43 1003 726 q 744 2 872 -7 q 558 81 617 11 l 646 194 l 628 215 q 419 21 508 106 q 141 110 239 22 q 49 326 43 199 q 92 487 51 407 q 204 632 133 567 q 384 738 275 697 q 621 781 493 779 q 750 593 693 715 q 786 747 772 675 l 781 869 l 646 865 q 665 978 615 904 l 776 975 l 769 1129 q 1111 1163 982 1221 l 1060 985 m 689 400 l 713 476 q 586 607 649 572 q 446 485 497 563 q 391 332 394 408 q 440 219 388 256 q 689 400 540 288 z "},"Ē":{"ha":1010,"x_min":97,"x_max":1093,"o":"m 944 1263 q 960 1219 967 1251 q 922 1146 954 1186 l 389 1129 q 408 1242 358 1168 l 674 1235 l 944 1263 m 751 883 q 563 872 624 883 l 519 769 l 483 581 q 806 625 751 621 q 839 568 833 604 q 807 432 850 506 q 467 453 624 451 l 418 171 q 871 261 710 218 q 935 203 921 246 q 886 33 961 124 l 324 0 q 97 185 110 50 q 126 265 104 204 q 153 340 149 325 q 174 400 158 354 q 197 467 190 446 q 215 527 203 488 q 235 603 226 567 q 256 685 244 640 l 240 874 q 138 906 186 894 q 130 970 126 938 q 151 1021 133 1003 q 584 1044 413 1042 q 1011 1029 756 1046 q 889 753 1093 846 l 751 883 z "},"ē":{"ha":896,"x_min":42,"x_max":907,"o":"m 626 796 q 794 736 733 788 q 828 438 907 640 q 613 349 744 394 q 381 283 482 303 q 435 171 390 229 q 738 279 597 190 q 816 253 790 282 q 828 157 842 224 q 633 52 764 94 q 383 0 503 10 q 126 114 211 25 q 47 322 42 203 q 179 613 56 482 q 626 796 413 768 m 513 636 l 483 622 q 374 383 381 514 q 557 464 475 419 q 513 636 588 574 m 849 882 l 315 865 q 335 978 285 904 l 600 971 l 871 999 q 887 955 893 988 q 849 882 881 922 z "},"Ė":{"ha":1010,"x_min":97,"x_max":1093,"o":"m 783 1294 q 783 1267 783 1294 q 744 1200 783 1239 q 648 1161 704 1161 q 551 1200 592 1161 q 510 1294 510 1239 q 551 1389 510 1350 q 648 1428 592 1428 q 744 1389 704 1428 q 783 1294 783 1350 m 751 883 q 563 872 624 883 l 519 769 l 483 581 q 806 625 751 621 q 839 568 833 604 q 807 432 850 506 q 467 453 624 451 l 418 171 q 871 261 710 218 q 935 203 921 246 q 886 33 961 124 l 324 0 q 97 185 110 50 q 126 265 104 204 q 153 340 149 325 q 174 400 158 354 q 197 467 190 446 q 215 527 203 488 q 235 603 226 567 q 256 685 244 640 l 240 874 q 138 906 186 894 q 130 970 126 938 q 151 1021 133 1003 q 584 1044 413 1042 q 1011 1029 756 1046 q 889 753 1093 846 l 751 883 z "},"ė":{"ha":896,"x_min":42,"x_max":907,"o":"m 738 279 q 816 253 790 282 q 828 157 842 224 q 633 52 764 94 q 383 0 503 10 q 126 114 211 25 q 47 322 42 203 q 179 613 56 482 q 626 796 413 768 q 794 736 733 788 q 828 438 907 640 q 613 349 744 394 q 381 283 482 303 q 435 171 390 229 q 738 279 597 190 m 513 636 l 483 622 q 374 383 381 514 q 557 464 475 419 q 513 636 588 574 m 710 1031 q 710 1003 710 1031 q 670 936 710 975 q 574 897 631 897 q 477 936 518 897 q 436 1031 436 975 q 477 1125 436 1086 q 574 1164 518 1164 q 670 1125 631 1164 q 710 1031 710 1086 z "},"Ę":{"ha":1010,"x_min":97,"x_max":1093,"o":"m 767 -232 q 947 -165 867 -232 q 998 -186 981 -164 q 1013 -243 1015 -208 q 717 -372 892 -372 q 528 -318 603 -372 q 454 -187 454 -264 q 490 -83 454 -136 q 588 15 525 -29 l 324 0 q 97 185 110 50 q 126 265 104 204 q 153 340 149 325 q 174 400 158 354 q 197 467 190 446 q 215 527 203 488 q 235 603 226 567 q 256 685 244 640 l 240 874 q 138 906 186 894 q 130 970 126 938 q 151 1021 133 1003 q 584 1044 413 1042 q 1011 1029 756 1046 q 889 753 1093 846 l 751 883 q 563 872 624 883 l 519 769 l 483 581 q 806 625 751 621 q 839 568 833 604 q 807 432 850 506 q 467 453 624 451 l 418 171 q 871 261 710 218 q 935 203 921 246 q 886 33 961 124 q 658 -199 699 -43 q 767 -232 703 -232 z "},"ę":{"ha":917,"x_min":43,"x_max":907,"o":"m 490 -221 q 704 -140 613 -221 q 790 -217 790 -133 q 667 -327 754 -282 q 462 -372 579 -372 q 273 -316 344 -372 q 201 -179 201 -260 q 307 15 201 -78 q 108 135 174 53 q 47 322 43 218 q 179 613 56 482 q 626 796 413 768 q 794 736 733 788 q 828 438 907 640 q 613 349 744 394 q 381 283 482 303 q 435 171 390 229 q 738 279 597 190 q 816 253 790 282 q 828 157 842 224 q 614 46 763 92 q 471 -53 538 11 q 382 -190 404 -118 q 490 -221 424 -221 m 513 636 l 483 622 q 374 383 381 514 q 557 464 475 419 q 513 636 588 574 z "},"Ě":{"ha":1010,"x_min":97,"x_max":1093,"o":"m 751 883 q 563 872 624 883 l 519 769 l 483 581 q 806 625 751 621 q 839 568 833 604 q 807 432 850 506 q 467 453 624 451 l 418 171 q 871 261 710 218 q 935 203 921 246 q 886 33 961 124 l 324 0 q 97 185 110 50 q 126 265 104 204 q 153 340 149 325 q 174 400 158 354 q 197 467 190 446 q 215 527 203 488 q 235 603 226 567 q 256 685 244 640 l 240 874 q 138 906 186 894 q 130 970 126 938 q 151 1021 133 1003 q 584 1044 413 1042 q 1011 1029 756 1046 q 889 753 1093 846 l 751 883 m 843 1163 q 549 1146 660 1086 l 365 1413 q 421 1460 381 1444 q 504 1467 461 1476 l 660 1238 l 849 1456 q 1017 1463 938 1482 q 1092 1410 1071 1450 l 843 1163 z "},"ě":{"ha":896,"x_min":42,"x_max":1018,"o":"m 626 796 q 794 736 733 788 q 828 438 907 640 q 613 349 744 394 q 381 283 482 303 q 435 171 390 229 q 738 279 597 190 q 816 253 790 282 q 828 157 842 224 q 633 52 764 94 q 383 0 503 10 q 126 114 211 25 q 47 322 42 203 q 179 613 56 482 q 626 796 413 768 m 513 636 l 483 622 q 374 383 381 514 q 557 464 475 419 q 513 636 588 574 m 1018 1146 l 769 899 q 475 882 586 822 l 292 1149 q 347 1197 307 1181 q 431 1203 388 1213 l 586 974 l 775 1192 q 944 1199 864 1218 q 1018 1146 997 1186 z "},"Ğ":{"ha":1068,"x_min":58,"x_max":1044,"o":"m 985 1326 q 884 1190 960 1249 q 713 1132 808 1132 q 535 1194 617 1132 q 438 1368 453 1257 q 475 1397 450 1385 q 521 1404 500 1408 q 649 1268 557 1294 q 793 1404 776 1290 q 924 1394 874 1415 q 985 1326 974 1372 m 822 293 l 813 301 q 535 0 728 150 q 176 153 293 26 q 61 458 58 281 q 101 660 63 563 q 192 819 139 758 q 422 974 282 911 q 683 1057 561 1038 q 943 947 871 1017 q 1001 878 982 911 q 1043 790 1021 846 q 984 694 1032 736 q 872 645 936 653 q 742 681 808 638 q 737 714 740 689 q 732 747 733 739 q 726 777 731 756 q 719 808 722 799 q 709 835 715 818 q 694 864 703 853 q 654 917 675 896 l 633 917 q 455 708 517 810 q 388 485 393 606 q 528 186 383 314 q 753 396 675 293 l 747 404 l 586 371 q 531 462 538 399 q 569 565 525 525 q 969 551 803 536 q 996 261 1044 456 q 917 19 972 167 q 808 4 863 -7 q 729 56 753 15 q 822 293 786 174 z "},"ğ":{"ha":1056,"x_min":46,"x_max":1075,"o":"m 674 214 l 651 236 q 425 21 467 63 q 140 115 233 29 q 49 326 46 200 q 91 482 51 403 q 199 627 131 561 q 374 736 268 693 q 601 781 479 779 q 726 618 664 726 q 753 763 726 718 q 971 778 899 793 q 1075 693 1043 763 l 933 449 q 856 -221 889 169 q 661 -390 779 -339 q 357 -450 543 -440 q 152 -325 226 -389 q 49 -169 78 -261 q 194 -47 108 -75 q 358 -64 279 -18 q 388 -163 371 -124 q 446 -258 406 -203 q 517 -244 483 -260 q 565 -203 551 -228 q 614 121 589 -97 l 674 214 m 699 478 l 697 476 q 582 607 649 572 q 444 492 493 561 q 392 339 394 422 q 442 219 390 256 q 689 400 528 278 l 699 478 m 983 1063 q 883 926 958 985 q 711 868 807 868 q 533 931 615 868 q 436 1104 451 993 q 474 1133 449 1121 q 519 1140 499 1144 q 647 1004 556 1031 q 792 1140 775 1026 q 922 1130 872 1151 q 983 1063 972 1108 z "},"Ģ":{"ha":1068,"x_min":58,"x_max":1044,"o":"m 822 293 l 813 301 q 535 0 728 150 q 176 153 293 26 q 61 458 58 281 q 101 660 63 563 q 192 819 139 758 q 422 974 282 911 q 683 1057 561 1038 q 943 947 871 1017 q 1001 878 982 911 q 1043 790 1021 846 q 984 694 1032 736 q 872 645 936 653 q 742 681 808 638 q 737 714 740 689 q 732 747 733 739 q 726 777 731 756 q 719 808 722 799 q 709 835 715 818 q 694 864 703 853 q 654 917 675 896 l 633 917 q 455 708 517 810 q 388 485 393 606 q 528 186 383 314 q 753 396 675 293 l 747 404 l 586 371 q 531 462 538 399 q 569 565 525 525 q 969 551 803 536 q 996 261 1044 456 q 917 19 972 167 q 808 4 863 -7 q 729 56 753 15 q 822 293 786 174 m 421 -493 q 322 -435 342 -492 l 410 -306 l 386 -71 q 479 -28 432 -36 q 561 -33 526 -19 q 657 -119 636 -62 q 421 -493 643 -328 z "},"ģ":{"ha":1056,"x_min":46,"x_max":1075,"o":"m 674 214 l 651 236 q 425 21 467 63 q 140 115 233 29 q 49 326 46 200 q 91 482 51 403 q 199 627 131 561 q 374 736 268 693 q 601 781 479 779 q 726 618 664 726 q 753 763 726 718 q 971 778 899 793 q 1075 693 1043 763 l 933 449 q 856 -221 889 169 q 661 -390 779 -339 q 357 -450 543 -440 q 152 -325 226 -389 q 49 -169 78 -261 q 194 -47 108 -75 q 358 -64 279 -18 q 388 -163 371 -124 q 446 -258 406 -203 q 517 -244 483 -260 q 565 -203 551 -228 q 614 121 589 -97 l 674 214 m 699 478 l 697 476 q 582 607 649 572 q 444 492 493 561 q 392 339 394 422 q 442 219 390 256 q 689 400 528 278 l 699 478 m 733 1172 l 829 922 q 741 851 789 872 q 651 836 693 829 q 524 906 563 849 q 663 1365 483 1136 q 783 1333 750 1386 l 733 1172 z "},"Ī":{"ha":494,"x_min":15,"x_max":715,"o":"m 693 1263 q 709 1219 715 1251 q 671 1146 703 1186 l 138 1129 q 157 1242 107 1168 l 422 1235 l 693 1263 m 418 1046 q 547 1021 494 1046 l 415 639 q 396 347 407 551 q 378 43 385 143 q 256 3 338 8 q 103 19 174 -3 q 15 78 32 42 q 185 757 106 317 l 181 988 q 418 1046 301 1046 z "},"ī":{"ha":493,"x_min":15,"x_max":663,"o":"m 640 999 q 656 955 663 988 q 618 882 650 922 l 85 865 q 104 978 54 904 l 369 971 l 640 999 m 151 449 l 139 726 q 469 743 347 821 l 394 490 q 376 43 385 390 q 189 5 308 -10 q 15 78 69 19 q 151 449 118 304 z "},"Į":{"ha":494,"x_min":-57,"x_max":547,"o":"m 147 -179 q 274 -225 193 -225 q 431 -165 354 -225 q 497 -184 478 -162 q 503 -243 515 -206 q 380 -341 461 -307 q 199 -375 299 -375 q 22 -319 100 -375 q -57 -190 -57 -264 q 94 24 -57 -68 q 15 78 32 43 q 185 757 106 317 l 181 988 q 418 1046 301 1046 q 547 1021 494 1046 l 415 639 q 396 347 407 551 q 378 43 385 143 q 339 21 363 29 q 219 -63 283 -6 q 147 -179 154 -121 z "},"į":{"ha":500,"x_min":-39,"x_max":528,"o":"m 279 -228 q 456 -165 376 -228 q 510 -188 492 -167 q 525 -243 528 -210 q 235 -372 421 -372 q 31 -317 100 -372 q -39 -178 -39 -261 q -6 -63 -39 -121 q 86 35 26 -6 q 22 78 46 51 q 158 449 128 310 l 146 726 q 476 743 354 821 l 401 490 q 383 43 392 390 q 343 19 365 28 q 216 -78 268 -19 q 156 -200 164 -136 q 279 -228 214 -228 m 500 1017 q 500 986 500 1017 q 455 908 500 954 q 344 861 410 861 q 231 908 279 861 q 183 1017 183 954 q 231 1126 183 1081 q 344 1172 279 1172 q 455 1126 410 1172 q 500 1017 500 1081 z "},"İ":{"ha":494,"x_min":15,"x_max":547,"o":"m 532 1294 q 532 1267 532 1294 q 492 1200 532 1239 q 397 1161 453 1161 q 299 1200 340 1161 q 258 1294 258 1239 q 299 1389 258 1350 q 397 1428 340 1428 q 492 1389 453 1428 q 532 1294 532 1350 m 418 1046 q 547 1021 494 1046 l 415 639 q 396 347 407 551 q 378 43 385 143 q 256 3 338 8 q 103 19 174 -3 q 15 78 32 42 q 185 757 106 317 l 181 988 q 418 1046 301 1046 z "},"ı":{"ha":493,"x_min":15,"x_max":469,"o":"m 151 449 l 139 726 q 469 743 347 821 l 394 490 q 376 43 385 390 q 189 5 308 -10 q 15 78 69 19 q 151 449 118 304 z "},"Ķ":{"ha":1044,"x_min":29,"x_max":1054,"o":"m 436 1063 q 565 1038 514 1063 l 429 639 l 425 597 l 600 708 l 797 1063 q 991 988 928 1047 q 1043 833 1054 928 q 558 535 922 744 q 703 349 611 410 q 949 274 794 288 q 942 117 992 207 q 767 0 893 28 q 537 202 613 78 q 464 483 461 326 l 417 460 q 406 270 414 413 q 392 43 397 128 q 269 3 351 8 q 117 19 188 -3 q 29 78 46 42 q 199 757 119 317 l 199 1004 q 436 1063 319 1063 m 396 -306 l 372 -71 q 465 -28 418 -36 q 547 -33 513 -19 q 643 -119 622 -62 q 407 -493 629 -328 q 308 -435 328 -492 l 396 -306 z "},"ķ":{"ha":957,"x_min":58,"x_max":954,"o":"m 415 486 l 432 463 q 611 653 525 575 q 811 796 697 731 q 903 749 864 790 q 949 645 943 707 q 904 511 954 583 q 513 403 688 486 q 642 315 567 343 q 864 285 718 288 q 895 191 899 243 q 846 84 892 139 q 729 0 800 29 q 440 290 515 99 q 425 47 435 150 q 300 3 381 10 q 149 21 219 -3 q 58 88 78 44 q 256 742 169 322 l 178 1081 q 301 1158 235 1136 q 409 1177 367 1181 q 489 1160 451 1174 q 508 947 513 1068 q 469 563 504 826 l 415 486 m 421 -306 l 397 -71 q 490 -28 443 -36 q 572 -33 538 -19 q 668 -119 647 -62 q 432 -493 654 -328 q 333 -435 353 -492 l 421 -306 z "},"Ĺ":{"ha":876,"x_min":49,"x_max":815,"o":"m 750 272 q 815 175 815 244 q 776 61 815 106 l 271 0 q 49 183 85 63 q 218 751 158 479 l 215 988 q 411 1044 311 1035 q 582 1021 511 1053 l 436 603 l 383 176 q 750 272 533 206 m 492 1469 q 664 1462 603 1483 q 758 1371 725 1440 l 464 1121 q 379 1139 417 1119 q 346 1190 342 1158 l 450 1322 l 492 1469 z "},"ĺ":{"ha":521,"x_min":31,"x_max":689,"o":"m 214 747 l 197 1110 q 384 1177 290 1164 q 550 1161 478 1190 l 451 824 q 406 47 408 76 q 281 4 365 10 q 122 20 196 -1 q 31 78 47 42 q 214 747 150 354 m 422 1594 q 594 1587 533 1608 q 689 1496 656 1565 l 394 1246 q 310 1264 347 1244 q 276 1315 272 1283 l 381 1447 l 422 1594 z "},"Ļ":{"ha":876,"x_min":49,"x_max":815,"o":"m 750 272 q 815 175 815 244 q 776 61 815 106 l 271 0 q 49 183 85 63 q 218 751 158 479 l 215 988 q 411 1044 311 1035 q 582 1021 511 1053 l 436 603 l 383 176 q 750 272 533 206 m 324 -493 q 225 -435 244 -492 l 313 -306 l 289 -71 q 382 -28 335 -36 q 464 -33 429 -19 q 560 -119 539 -62 q 324 -493 546 -328 z "},"ļ":{"ha":521,"x_min":7,"x_max":550,"o":"m 214 747 l 197 1110 q 384 1177 290 1164 q 550 1161 478 1190 l 451 824 q 406 47 408 76 q 281 4 365 10 q 122 20 196 -1 q 31 78 47 42 q 214 747 150 354 m 106 -493 q 7 -435 26 -492 l 94 -306 l 71 -71 q 164 -28 117 -36 q 247 -33 211 -19 q 342 -119 321 -62 q 106 -493 328 -328 z "},"Ľ":{"ha":876,"x_min":49,"x_max":961,"o":"m 750 272 q 815 175 815 244 q 776 61 815 106 l 271 0 q 49 183 85 63 q 218 751 158 479 l 215 988 q 411 1044 311 1035 q 582 1021 511 1053 l 436 603 l 383 176 q 750 272 533 206 m 725 724 q 626 782 646 725 l 714 911 l 690 1146 q 783 1189 736 1181 q 867 1183 831 1197 q 961 1097 940 1154 q 725 724 947 889 z "},"ľ":{"ha":579,"x_min":31,"x_max":901,"o":"m 214 747 l 197 1110 q 384 1177 290 1164 q 550 1161 478 1190 l 451 824 q 406 47 408 76 q 281 4 365 10 q 122 20 196 -1 q 31 78 47 42 q 214 747 150 354 m 665 863 q 567 921 586 864 l 654 1050 l 631 1285 q 724 1328 676 1319 q 806 1322 771 1336 q 901 1236 881 1293 q 665 863 888 1028 z "},"Ł":{"ha":988,"x_min":22,"x_max":926,"o":"m 861 272 q 926 175 926 244 q 888 61 926 106 l 382 0 q 160 183 196 63 q 258 478 214 326 l 96 422 q 34 515 46 460 q 47 597 22 571 l 294 606 q 329 751 311 672 l 326 988 q 522 1044 422 1035 q 693 1021 622 1053 l 579 693 l 768 758 q 841 701 825 744 q 815 590 857 657 l 543 564 l 494 176 q 861 272 644 206 z "},"ł":{"ha":803,"x_min":35,"x_max":843,"o":"m 568 674 l 760 729 q 831 676 819 715 q 813 563 843 638 l 572 556 l 561 553 q 531 47 546 233 q 406 4 490 10 q 247 20 321 -1 q 156 78 172 42 q 283 471 228 243 l 135 426 q 72 486 92 450 q 79 607 35 553 l 313 606 q 339 747 322 653 l 322 1110 q 509 1177 415 1164 q 675 1161 603 1190 l 576 824 q 568 674 572 750 z "},"Ń":{"ha":1139,"x_min":15,"x_max":1194,"o":"m 1064 1044 q 1194 1019 1142 1044 l 1063 640 q 1021 43 1054 532 q 830 1 932 -8 q 658 63 728 11 q 468 794 494 436 l 415 639 q 376 43 397 378 q 253 3 335 8 q 101 19 171 -3 q 15 78 31 42 q 183 749 121 375 l 185 988 q 439 1046 308 1046 q 563 1013 500 1046 q 592 847 571 968 q 682 392 631 608 l 731 288 q 831 743 799 576 l 826 986 q 1064 1044 944 1044 m 1024 1371 l 729 1121 q 644 1139 682 1119 q 611 1190 607 1158 l 715 1322 l 757 1469 q 929 1462 868 1483 q 1024 1371 990 1440 z "},"ń":{"ha":1047,"x_min":38,"x_max":985,"o":"m 985 575 l 918 356 q 958 43 918 185 q 793 1 914 -10 q 590 81 672 13 q 623 298 596 174 q 675 499 650 422 q 624 571 660 549 q 431 424 543 525 q 407 43 432 282 q 203 6 335 -10 q 38 79 71 21 q 176 474 121 278 l 124 693 q 425 774 253 801 q 446 657 446 711 l 394 594 l 411 567 q 674 781 533 686 q 876 713 797 774 q 985 575 956 651 m 910 1107 l 615 857 q 531 875 568 856 q 497 926 493 894 l 601 1058 l 643 1206 q 815 1198 754 1219 q 910 1107 876 1176 z "},"Ņ":{"ha":1139,"x_min":15,"x_max":1194,"o":"m 1064 1044 q 1194 1019 1142 1044 l 1063 640 q 1021 43 1054 532 q 830 1 932 -8 q 658 63 728 11 q 468 794 494 436 l 415 639 q 376 43 397 378 q 253 3 335 8 q 101 19 171 -3 q 15 78 31 42 q 183 749 121 375 l 185 988 q 439 1046 308 1046 q 563 1013 500 1046 q 592 847 571 968 q 682 392 631 608 l 731 288 q 831 743 799 576 l 826 986 q 1064 1044 944 1044 m 415 -306 l 392 -71 q 485 -28 438 -36 q 567 -33 532 -19 q 663 -119 642 -62 q 426 -493 649 -328 q 328 -435 347 -492 l 415 -306 z "},"ņ":{"ha":1047,"x_min":38,"x_max":985,"o":"m 985 575 l 918 356 q 958 43 918 185 q 793 1 914 -10 q 590 81 672 13 q 623 298 596 174 q 675 499 650 422 q 624 571 660 549 q 431 424 543 525 q 407 43 432 282 q 203 6 335 -10 q 38 79 71 21 q 176 474 121 278 l 124 693 q 425 774 253 801 q 446 657 446 711 l 394 594 l 411 567 q 674 781 533 686 q 876 713 797 774 q 985 575 956 651 m 399 -306 l 375 -71 q 468 -28 421 -36 q 550 -33 515 -19 q 646 -119 625 -62 q 410 -493 632 -328 q 311 -435 331 -492 l 399 -306 z "},"Ň":{"ha":1139,"x_min":15,"x_max":1194,"o":"m 1064 1044 q 1194 1019 1142 1044 l 1063 640 q 1021 43 1054 532 q 830 1 932 -8 q 658 63 728 11 q 468 794 494 436 l 415 639 q 376 43 397 378 q 253 3 335 8 q 101 19 171 -3 q 15 78 31 42 q 183 749 121 375 l 185 988 q 439 1046 308 1046 q 563 1013 500 1046 q 592 847 571 968 q 682 392 631 608 l 731 288 q 831 743 799 576 l 826 986 q 1064 1044 944 1044 m 1124 1410 l 875 1163 q 581 1146 692 1086 l 397 1413 q 453 1460 413 1444 q 536 1467 493 1476 l 692 1238 l 881 1456 q 1050 1463 969 1482 q 1124 1410 1103 1450 z "},"ň":{"ha":1047,"x_min":38,"x_max":1010,"o":"m 394 594 l 411 567 q 674 781 533 686 q 876 713 797 774 q 985 575 956 651 l 918 356 q 958 43 918 185 q 793 1 914 -10 q 590 81 672 13 q 623 298 596 174 q 675 499 650 422 q 624 571 660 549 q 431 424 543 525 q 407 43 432 282 q 203 6 335 -10 q 38 79 71 21 q 176 474 121 278 l 124 693 q 425 774 253 801 q 446 657 446 711 l 394 594 m 1010 1146 l 761 899 q 467 882 578 822 l 283 1149 q 339 1197 299 1181 q 422 1203 379 1213 l 578 974 l 767 1192 q 936 1199 856 1218 q 1010 1146 989 1186 z "},"Ō":{"ha":1029,"x_min":54,"x_max":1097,"o":"m 369 471 q 476 151 369 311 q 642 321 569 219 q 739 524 714 422 q 700 734 728 644 q 607 917 672 824 q 439 706 508 838 q 369 471 369 575 m 54 453 q 131 744 54 603 q 340 976 207 886 q 622 1067 474 1067 q 754 1026 682 1067 q 888 922 826 986 q 992 769 950 858 q 954 311 1097 547 q 738 86 871 172 q 472 0 606 0 q 284 67 382 0 q 120 240 186 133 q 54 453 54 347 m 932 1263 q 948 1219 954 1251 q 910 1146 942 1186 l 376 1129 q 396 1242 346 1168 l 661 1235 l 932 1263 z "},"ō":{"ha":911,"x_min":38,"x_max":893,"o":"m 564 971 l 835 999 q 851 955 857 988 q 813 882 844 922 l 279 865 q 299 978 249 904 l 564 971 m 38 347 q 74 481 38 407 q 174 626 111 556 q 338 745 238 697 q 555 793 439 793 q 781 670 671 793 q 893 431 890 547 q 822 229 893 329 q 631 65 750 129 q 386 0 513 0 q 149 110 260 0 q 38 347 38 221 m 517 660 q 393 499 444 592 q 340 324 342 406 q 361 228 339 281 q 417 143 383 176 q 604 385 561 247 q 581 539 600 479 q 517 660 563 599 z "},"Ő":{"ha":1029,"x_min":54,"x_max":1097,"o":"m 369 471 q 476 151 369 311 q 642 321 569 219 q 739 524 714 422 q 700 734 728 644 q 607 917 672 824 q 439 706 508 838 q 369 471 369 575 m 54 453 q 131 744 54 603 q 340 976 207 886 q 622 1067 474 1067 q 754 1026 682 1067 q 888 922 826 986 q 992 769 950 858 q 954 311 1097 547 q 738 86 871 172 q 472 0 606 0 q 284 67 382 0 q 120 240 186 133 q 54 453 54 347 m 653 1133 l 771 1394 q 1003 1394 933 1417 l 954 1293 l 796 1119 q 653 1133 704 1111 m 353 1133 l 476 1394 q 707 1394 635 1417 l 658 1293 l 514 1119 q 353 1133 411 1111 z "},"ő":{"ha":911,"x_min":38,"x_max":906,"o":"m 256 869 l 379 1131 q 610 1131 538 1153 l 561 1029 l 417 856 q 256 869 314 847 m 556 869 l 674 1131 q 906 1131 836 1153 l 857 1029 l 699 856 q 556 869 607 847 m 38 347 q 74 481 38 407 q 174 626 111 556 q 338 745 238 697 q 555 793 439 793 q 781 670 671 793 q 893 431 890 547 q 822 229 893 329 q 631 65 750 129 q 386 0 513 0 q 149 110 260 0 q 38 347 38 221 m 517 660 q 393 499 444 592 q 340 324 342 406 q 361 228 339 281 q 417 143 383 176 q 604 385 561 247 q 581 539 600 479 q 517 660 563 599 z "},"Œ":{"ha":1521,"x_min":54,"x_max":1629,"o":"m 369 471 q 476 151 369 311 q 761 582 692 306 q 724 761 760 688 q 607 917 689 835 q 439 706 508 838 q 369 471 369 575 m 704 75 q 478 0 574 0 q 284 67 382 0 q 120 240 186 133 q 54 453 54 347 q 131 744 54 603 q 340 976 207 886 q 622 1067 474 1067 q 856 986 714 1067 q 1156 1046 989 1036 q 1547 1036 1322 1056 q 1425 760 1629 853 l 1288 890 q 1089 879 1150 890 l 1036 810 l 994 585 q 1318 625 1196 615 q 1353 568 1346 604 q 1319 432 1363 506 q 975 453 1150 449 l 944 171 q 1383 263 1188 210 q 1447 206 1433 247 q 1399 35 1474 125 l 879 1 q 704 75 782 21 z "},"œ":{"ha":1429,"x_min":38,"x_max":1440,"o":"m 386 0 q 149 110 260 0 q 38 347 38 221 q 74 481 38 407 q 174 626 111 556 q 338 745 238 697 q 556 793 439 793 q 789 661 674 793 q 1160 796 976 771 q 1328 736 1267 788 q 1361 438 1440 640 q 1147 349 1278 394 q 914 283 1015 303 q 968 171 924 229 q 1271 279 1131 190 q 1349 253 1324 282 q 1361 157 1375 224 q 1167 52 1297 94 q 917 0 1036 10 q 707 113 783 32 q 386 0 558 0 m 1046 636 l 1017 622 q 907 383 914 514 q 1090 464 1008 419 q 1046 636 1121 574 m 417 143 q 604 385 561 247 q 581 539 600 479 q 517 660 563 599 q 393 499 444 592 q 340 324 342 406 q 361 228 339 281 q 417 143 383 176 z "},"Ŕ":{"ha":1056,"x_min":88,"x_max":1042,"o":"m 143 1003 q 531 1063 308 1063 q 897 967 753 1063 q 1039 751 1042 872 q 972 561 1036 631 q 750 413 908 492 q 642 401 714 407 q 762 312 689 339 q 972 275 835 285 q 967 116 1019 196 q 801 0 914 36 q 592 153 671 50 q 496 394 514 256 l 471 394 q 461 230 468 346 q 450 43 454 114 q 258 4 390 -8 q 88 76 125 17 q 188 415 151 269 q 258 760 225 560 l 236 876 l 172 889 q 133 943 142 908 q 143 1003 125 978 m 668 558 q 739 718 739 642 q 691 842 739 794 q 551 901 643 889 l 488 639 q 478 511 483 594 q 668 558 574 521 m 897 1371 l 603 1121 q 518 1139 556 1119 q 485 1190 481 1158 l 589 1322 l 631 1469 q 803 1462 742 1483 q 897 1371 864 1440 z "},"ŕ":{"ha":863,"x_min":38,"x_max":879,"o":"m 411 565 l 644 781 q 810 682 747 757 q 879 482 874 607 q 741 418 824 426 q 590 447 658 410 q 567 551 590 472 q 431 440 547 536 q 407 43 432 275 q 202 6 333 -10 q 38 79 71 21 q 176 474 121 278 l 124 693 q 274 767 189 749 q 425 774 360 786 q 446 657 446 715 l 394 594 l 411 565 m 840 1107 l 546 857 q 461 875 499 856 q 428 926 424 894 l 532 1058 l 574 1206 q 746 1198 685 1219 q 840 1107 807 1176 z "},"Ŗ":{"ha":1056,"x_min":88,"x_max":1042,"o":"m 143 1003 q 531 1063 308 1063 q 897 967 753 1063 q 1039 751 1042 872 q 972 561 1036 631 q 750 413 908 492 q 642 401 714 407 q 762 312 689 339 q 972 275 835 285 q 967 116 1019 196 q 801 0 914 36 q 592 153 671 50 q 496 394 514 256 l 471 394 q 461 230 468 346 q 450 43 454 114 q 258 4 390 -8 q 88 76 125 17 q 188 415 151 269 q 258 760 225 560 l 236 876 l 172 889 q 133 943 142 908 q 143 1003 125 978 m 668 558 q 739 718 739 642 q 691 842 739 794 q 551 901 643 889 l 488 639 q 478 511 483 594 q 668 558 574 521 m 432 -306 l 408 -71 q 501 -28 454 -36 q 583 -33 549 -19 q 679 -119 658 -62 q 443 -493 665 -328 q 344 -435 364 -492 l 432 -306 z "},"ŗ":{"ha":863,"x_min":32,"x_max":879,"o":"m 411 565 l 644 781 q 810 682 747 757 q 879 482 874 607 q 741 418 824 426 q 590 447 658 410 q 567 551 590 472 q 431 440 547 536 q 407 43 432 275 q 202 6 333 -10 q 38 79 71 21 q 176 474 121 278 l 124 693 q 274 767 189 749 q 425 774 360 786 q 446 657 446 715 l 394 594 l 411 565 m 119 -306 l 96 -71 q 189 -28 142 -36 q 272 -33 236 -19 q 367 -119 346 -62 q 131 -493 353 -328 q 32 -435 51 -492 l 119 -306 z "},"Ř":{"ha":1056,"x_min":88,"x_max":1042,"o":"m 143 1003 q 531 1063 308 1063 q 897 967 753 1063 q 1039 751 1042 872 q 972 561 1036 631 q 750 413 908 492 q 642 401 714 407 q 762 312 689 339 q 972 275 835 285 q 967 116 1019 196 q 801 0 914 36 q 592 153 671 50 q 496 394 514 256 l 471 394 q 461 230 468 346 q 450 43 454 114 q 258 4 390 -8 q 88 76 125 17 q 188 415 151 269 q 258 760 225 560 l 236 876 l 172 889 q 133 943 142 908 q 143 1003 125 978 m 668 558 q 739 718 739 642 q 691 842 739 794 q 551 901 643 889 l 488 639 q 478 511 483 594 q 668 558 574 521 m 997 1410 l 749 1163 q 454 1146 565 1086 l 271 1413 q 326 1460 286 1444 q 410 1467 367 1476 l 565 1238 l 754 1456 q 922 1463 843 1482 q 997 1410 976 1450 z "},"ř":{"ha":863,"x_min":38,"x_max":940,"o":"m 411 565 l 644 781 q 810 682 747 757 q 879 482 874 607 q 741 418 824 426 q 590 447 658 410 q 567 551 590 472 q 431 440 547 536 q 407 43 432 275 q 202 6 333 -10 q 38 79 71 21 q 176 474 121 278 l 124 693 q 274 767 189 749 q 425 774 360 786 q 446 657 446 715 l 394 594 l 411 565 m 940 1146 l 692 899 q 397 882 508 822 l 214 1149 q 269 1197 229 1181 q 353 1203 310 1213 l 508 974 l 697 1192 q 867 1199 786 1218 q 940 1146 919 1186 z "},"Ś":{"ha":1006,"x_min":19,"x_max":981,"o":"m 613 299 q 565 353 613 325 q 446 415 517 382 q 303 488 375 447 q 174 597 231 529 q 106 747 118 665 q 304 962 172 881 q 611 1063 436 1043 q 834 1004 738 1057 q 981 868 931 951 q 883 732 957 767 q 669 726 810 697 q 607 917 664 840 q 486 856 543 893 q 429 794 429 819 q 478 737 429 768 q 599 668 526 706 q 746 587 671 631 q 882 485 821 543 q 960 365 943 426 q 790 111 935 207 q 433 0 646 15 q 183 77 297 18 q 19 217 68 136 q 340 392 132 457 q 443 146 353 286 q 563 201 514 158 q 613 299 613 244 m 685 1469 q 857 1462 796 1483 q 951 1371 918 1440 l 657 1121 q 572 1139 610 1119 q 539 1190 535 1158 l 643 1322 l 685 1469 z "},"ś":{"ha":831,"x_min":29,"x_max":821,"o":"m 482 214 q 428 266 482 233 q 306 333 374 299 q 171 426 238 368 q 83 546 104 485 q 253 738 144 668 q 501 815 361 808 q 667 766 606 804 q 772 660 728 728 q 707 559 768 590 q 533 544 646 528 q 457 694 506 650 q 379 652 413 678 q 346 604 346 626 q 406 547 346 582 q 539 476 465 511 q 683 386 613 442 q 769 274 753 331 q 619 77 735 149 q 346 0 503 6 q 29 150 114 19 q 121 281 60 236 q 278 293 182 326 q 302 194 288 228 q 354 111 317 160 q 442 155 403 125 q 482 214 482 185 m 554 1206 q 726 1198 665 1219 q 821 1107 788 1176 l 526 857 q 442 875 479 856 q 408 926 404 894 l 513 1058 l 554 1206 z "},"Ş":{"ha":1006,"x_min":19,"x_max":981,"o":"m 613 299 q 565 353 613 325 q 446 415 517 382 q 303 488 375 447 q 174 597 231 529 q 106 747 118 665 q 304 962 172 881 q 611 1063 436 1043 q 834 1004 738 1057 q 981 868 931 951 q 883 732 957 767 q 669 726 810 697 q 607 917 664 840 q 486 856 543 893 q 429 794 429 819 q 478 737 429 768 q 599 668 526 706 q 746 587 671 631 q 882 485 821 543 q 960 365 943 426 q 822 133 939 225 q 526 11 704 42 l 472 -94 q 582 -56 522 -56 q 678 -101 642 -56 q 704 -212 715 -146 q 612 -367 688 -312 q 438 -419 536 -421 q 261 -374 339 -417 q 149 -271 183 -332 q 159 -219 146 -240 q 193 -196 172 -197 q 290 -269 242 -247 q 403 -292 338 -292 q 508 -228 500 -292 q 489 -167 515 -196 q 418 -197 461 -172 q 353 -179 383 -197 q 318 -135 324 -161 l 389 7 q 165 87 265 31 q 19 217 65 143 q 340 392 132 457 q 443 146 353 286 q 563 201 514 158 q 613 299 613 244 z "},"ş":{"ha":831,"x_min":29,"x_max":772,"o":"m 482 214 q 428 266 482 233 q 306 333 374 299 q 171 426 238 368 q 83 546 104 485 q 253 738 144 668 q 501 815 361 808 q 667 766 606 804 q 772 660 728 728 q 707 559 768 590 q 533 544 646 528 q 457 694 506 650 q 379 652 413 678 q 346 604 346 626 q 406 547 346 582 q 539 476 465 511 q 683 386 613 442 q 769 274 753 331 q 651 99 740 168 q 436 10 561 31 l 383 -94 q 493 -56 433 -56 q 590 -101 553 -56 q 615 -212 626 -146 q 523 -367 599 -312 q 349 -419 447 -421 q 172 -374 250 -417 q 60 -271 94 -332 q 70 -219 57 -240 q 104 -196 83 -197 q 201 -269 153 -247 q 314 -292 249 -292 q 419 -228 411 -292 q 400 -167 426 -196 q 329 -197 372 -172 q 265 -179 294 -197 q 229 -135 235 -161 l 299 6 q 29 150 103 35 q 121 281 60 236 q 278 293 182 326 q 302 194 288 228 q 354 111 317 160 q 442 155 403 125 q 482 214 482 185 z "},"Š":{"ha":1006,"x_min":19,"x_max":1051,"o":"m 613 299 q 565 353 613 325 q 446 415 517 382 q 303 488 375 447 q 174 597 231 529 q 106 747 118 665 q 304 962 172 881 q 611 1063 436 1043 q 834 1004 738 1057 q 981 868 931 951 q 883 732 957 767 q 669 726 810 697 q 607 917 664 840 q 486 856 543 893 q 429 794 429 819 q 478 737 429 768 q 599 668 526 706 q 746 587 671 631 q 882 485 821 543 q 960 365 943 426 q 790 111 935 207 q 433 0 646 15 q 183 77 297 18 q 19 217 68 136 q 340 392 132 457 q 443 146 353 286 q 563 201 514 158 q 613 299 613 244 m 803 1163 q 508 1146 619 1086 l 325 1413 q 381 1460 340 1444 q 464 1467 421 1476 l 619 1238 l 808 1456 q 978 1463 897 1482 q 1051 1410 1031 1450 l 803 1163 z "},"š":{"ha":831,"x_min":29,"x_max":921,"o":"m 482 214 q 428 266 482 233 q 306 333 374 299 q 171 426 238 368 q 83 546 104 485 q 253 738 144 668 q 501 815 361 808 q 667 766 606 804 q 772 660 728 728 q 707 559 768 590 q 533 544 646 528 q 457 694 506 650 q 379 652 413 678 q 346 604 346 626 q 406 547 346 582 q 539 476 465 511 q 683 386 613 442 q 769 274 753 331 q 619 77 735 149 q 346 0 503 6 q 29 150 114 19 q 121 281 60 236 q 278 293 182 326 q 302 194 288 228 q 354 111 317 160 q 442 155 403 125 q 482 214 482 185 m 672 899 q 378 882 489 822 l 194 1149 q 250 1197 210 1181 q 333 1203 290 1213 l 489 974 l 678 1192 q 847 1199 767 1218 q 921 1146 900 1186 l 672 899 z "},"Ţ":{"ha":1010,"x_min":101,"x_max":1118,"o":"m 472 -94 q 582 -56 522 -56 q 678 -101 642 -56 q 704 -212 715 -146 q 612 -367 688 -312 q 438 -419 536 -421 q 261 -374 339 -417 q 149 -271 183 -332 q 159 -219 146 -240 q 193 -196 172 -197 q 290 -269 242 -247 q 403 -292 338 -292 q 508 -228 500 -292 q 489 -167 515 -196 q 418 -197 461 -172 q 353 -179 383 -197 q 318 -135 324 -161 l 392 14 q 279 78 297 36 q 442 763 385 383 l 440 844 l 183 810 q 146 1019 101 915 q 599 1044 428 1042 q 1060 1028 771 1047 q 1040 817 1118 951 l 724 856 l 668 650 q 643 43 656 425 q 522 3 604 10 l 472 -94 z "},"ţ":{"ha":846,"x_min":71,"x_max":860,"o":"m 397 -94 q 507 -56 447 -56 q 603 -101 567 -56 q 629 -212 640 -146 q 537 -367 613 -312 q 363 -419 461 -421 q 186 -374 264 -417 q 74 -271 108 -332 q 84 -219 71 -240 q 118 -196 97 -197 q 215 -269 167 -247 q 328 -292 263 -292 q 433 -228 425 -292 q 414 -167 440 -196 q 343 -197 386 -172 q 278 -179 308 -197 q 243 -135 249 -161 l 319 19 q 150 169 190 58 q 304 644 246 407 l 119 614 q 83 689 83 653 q 117 778 82 725 l 317 769 l 292 1026 q 500 1092 407 1088 q 636 1046 593 1096 l 561 813 l 804 857 q 807 697 860 803 l 533 683 l 529 683 q 505 387 524 568 q 483 176 486 206 q 706 318 597 229 q 785 288 765 314 q 799 196 804 263 q 449 4 621 46 l 397 -94 z "},"Ť":{"ha":1010,"x_min":101,"x_max":1118,"o":"m 440 844 l 183 810 q 146 1019 101 915 q 599 1044 428 1042 q 1060 1028 771 1047 q 1040 817 1118 951 l 724 856 l 668 650 q 643 43 656 425 q 442 6 578 -10 q 279 78 306 21 q 442 763 385 383 l 440 844 m 1053 1410 l 804 1163 q 510 1146 621 1086 l 326 1413 q 382 1460 342 1444 q 465 1467 422 1476 l 621 1238 l 810 1456 q 978 1463 899 1482 q 1053 1410 1032 1450 z "},"ť":{"ha":846,"x_min":82,"x_max":1010,"o":"m 763 1050 l 739 1285 q 832 1328 785 1319 q 914 1322 879 1336 q 1010 1236 989 1293 q 774 863 996 1028 q 675 921 694 864 l 763 1050 m 546 768 l 804 815 q 807 656 860 761 l 528 640 q 503 373 521 539 q 483 176 486 207 q 706 318 597 229 q 785 288 765 314 q 799 196 804 263 q 428 0 610 38 q 150 169 206 18 q 293 601 236 385 l 119 572 q 83 647 83 611 q 117 736 82 683 l 321 728 l 292 1026 q 500 1092 407 1088 q 636 1046 593 1096 l 546 768 z "},"Ū":{"ha":1021,"x_min":82,"x_max":1064,"o":"m 935 1263 q 951 1219 957 1251 q 913 1146 944 1186 l 379 1129 q 399 1242 349 1168 l 664 1235 l 935 1263 m 978 457 q 819 122 939 243 q 514 0 700 0 q 215 90 328 0 q 82 317 103 179 q 178 1004 140 619 q 418 1063 299 1063 q 546 1038 494 1063 q 404 506 431 674 q 394 299 382 346 q 456 211 414 235 q 611 181 515 181 q 703 403 671 292 q 757 674 736 515 l 696 1004 q 936 1063 817 1063 q 1064 1038 1014 1063 q 978 457 1035 775 z "},"ū":{"ha":1036,"x_min":31,"x_max":1006,"o":"m 139 435 l 107 758 q 306 775 194 793 q 461 692 417 757 q 422 499 461 621 q 332 288 382 376 q 431 217 343 242 q 593 396 553 338 q 679 763 635 643 q 901 772 825 788 q 1006 693 978 757 l 878 453 q 919 43 882 269 q 754 1 878 -10 q 547 81 631 13 l 607 207 l 590 221 q 400 0 564 186 q 31 225 72 36 l 139 435 m 843 882 l 310 865 q 329 978 279 904 l 594 971 l 865 999 q 881 955 888 988 q 843 882 875 922 z "},"Ů":{"ha":1021,"x_min":82,"x_max":1064,"o":"m 978 457 q 819 122 939 243 q 514 0 700 0 q 215 90 328 0 q 82 317 103 179 q 178 1004 140 619 q 418 1063 299 1063 q 546 1038 494 1063 q 404 506 431 674 q 394 299 382 346 q 456 211 414 235 q 611 181 515 181 q 703 403 671 292 q 757 674 736 515 l 696 1004 q 936 1063 817 1063 q 1064 1038 1014 1063 q 978 457 1035 775 m 718 1356 q 717 1368 718 1356 q 708 1392 715 1381 q 690 1403 701 1403 q 672 1399 678 1403 q 629 1292 640 1354 q 631 1193 610 1224 q 648 1182 639 1182 q 663 1183 657 1182 q 706 1274 690 1217 q 718 1356 721 1332 m 733 1475 q 861 1458 814 1475 q 928 1419 908 1440 q 944 1292 975 1367 q 827 1158 917 1203 q 622 1114 738 1114 q 441 1159 506 1114 q 403 1292 376 1204 q 733 1475 457 1475 z "},"ů":{"ha":1036,"x_min":31,"x_max":1006,"o":"m 139 435 l 107 758 q 306 775 194 793 q 461 692 417 757 q 422 499 461 621 q 332 288 382 376 q 431 217 343 242 q 593 396 553 338 q 679 763 635 643 q 901 772 825 788 q 1006 693 978 757 l 878 453 q 919 43 882 269 q 754 1 878 -10 q 547 81 631 13 l 607 207 l 590 221 q 400 0 564 186 q 31 225 72 36 l 139 435 m 875 1028 q 758 894 847 939 q 552 850 668 850 q 372 895 436 850 q 333 1028 307 940 q 664 1211 388 1211 q 792 1194 744 1211 q 858 1156 839 1176 q 875 1028 906 1103 m 561 929 q 578 918 569 918 q 593 919 588 918 q 636 1010 621 953 q 649 1092 651 1068 q 624 1139 643 1139 q 603 1135 608 1139 q 560 1028 571 1090 q 561 929 540 960 z "},"Ű":{"ha":1021,"x_min":82,"x_max":1064,"o":"m 656 1133 l 774 1394 q 1006 1394 936 1417 l 957 1293 l 799 1119 q 656 1133 707 1111 m 356 1133 l 479 1394 q 710 1394 638 1417 l 661 1293 l 517 1119 q 356 1133 414 1111 m 978 457 q 819 122 939 243 q 514 0 700 0 q 215 90 328 0 q 82 317 103 179 q 178 1004 140 619 q 418 1063 299 1063 q 546 1038 494 1063 q 404 506 431 674 q 394 299 382 346 q 456 211 414 235 q 611 181 515 181 q 703 403 671 292 q 757 674 736 515 l 696 1004 q 936 1063 817 1063 q 1064 1038 1014 1063 q 978 457 1035 775 z "},"ű":{"ha":1036,"x_min":31,"x_max":1006,"o":"m 139 435 l 107 758 q 306 775 194 793 q 461 692 417 757 q 422 499 461 621 q 332 288 382 376 q 431 217 343 242 q 593 396 553 338 q 679 763 635 643 q 901 772 825 788 q 1006 693 978 757 l 878 453 q 919 43 882 269 q 754 1 878 -10 q 547 81 631 13 l 607 207 l 590 221 q 400 0 564 186 q 31 225 72 36 l 139 435 m 592 1029 l 447 856 q 286 869 344 847 l 410 1131 q 640 1131 568 1153 l 592 1029 m 888 1029 l 729 856 q 586 869 638 847 l 704 1131 q 936 1131 867 1153 l 888 1029 z "},"Ų":{"ha":1021,"x_min":82,"x_max":1064,"o":"m 936 1063 q 1064 1038 1014 1063 q 978 457 1035 775 q 847 152 943 269 q 594 8 750 35 q 468 -62 522 -11 q 408 -169 414 -112 q 537 -229 446 -229 q 699 -165 628 -229 q 752 -183 735 -161 q 767 -243 769 -206 q 645 -338 721 -304 q 486 -372 569 -372 q 273 -315 350 -372 q 196 -176 196 -258 q 336 26 196 -61 q 163 138 229 61 q 82 317 97 215 q 178 1004 140 619 q 418 1063 299 1063 q 546 1038 494 1063 q 404 506 431 674 q 394 299 382 346 q 456 211 414 235 q 611 181 515 181 q 703 403 671 292 q 757 674 736 515 l 696 1004 q 936 1063 817 1063 z "},"ų":{"ha":1036,"x_min":31,"x_max":1006,"o":"m 139 435 l 107 758 q 306 775 194 793 q 461 692 417 757 q 422 499 461 621 q 332 288 382 376 q 431 217 343 242 q 593 396 553 338 q 679 763 635 643 q 901 772 825 788 q 1006 693 978 757 l 878 453 q 919 43 882 269 q 842 4 896 15 q 697 -81 757 -21 q 633 -204 638 -140 q 897 -160 761 -244 q 962 -176 944 -156 q 979 -243 979 -197 q 856 -337 931 -301 q 699 -372 782 -372 q 510 -319 578 -372 q 442 -197 442 -267 q 603 44 442 -58 q 547 81 572 60 l 607 207 l 590 221 q 400 0 564 186 q 31 225 72 36 l 139 435 z "},"Ÿ":{"ha":994,"x_min":117,"x_max":1072,"o":"m 768 732 l 697 1013 q 924 1062 826 1071 q 1072 990 1022 1053 q 1044 881 1067 929 q 980 779 1021 833 q 839 624 939 725 q 697 476 739 522 q 663 43 682 349 q 469 4 599 -10 q 300 76 339 18 q 401 413 358 236 q 117 892 246 721 q 272 1044 181 1007 q 464 1046 363 1081 l 464 733 l 554 464 l 567 464 l 613 554 l 768 732 m 299 1281 q 299 1309 299 1281 q 340 1375 299 1336 q 437 1414 381 1414 q 533 1375 493 1414 q 572 1281 572 1336 q 533 1187 572 1226 q 437 1147 493 1147 q 340 1187 381 1147 q 299 1281 299 1226 m 964 1281 q 964 1254 964 1281 q 925 1187 964 1226 q 830 1147 886 1147 q 732 1187 774 1147 q 690 1281 690 1226 q 732 1375 690 1336 q 830 1414 774 1414 q 925 1375 886 1414 q 964 1281 964 1336 z "},"Ź":{"ha":1078,"x_min":33,"x_max":1117,"o":"m 826 0 l 338 111 l 329 107 l 342 50 q 89 6 243 -15 q 33 125 33 47 q 236 386 33 226 q 419 526 325 457 q 732 814 658 704 l 724 826 q 492 865 608 842 q 397 699 426 793 q 106 811 161 675 q 364 1063 183 1000 q 788 946 568 1014 l 828 1060 q 1007 1040 951 1060 q 1086 985 1063 1019 q 1117 896 1110 950 q 864 617 1054 782 q 574 380 715 490 q 400 244 432 269 l 401 233 q 718 218 594 214 q 761 361 744 275 q 965 359 890 389 q 1061 254 1039 329 q 985 119 1033 172 q 826 0 938 67 m 742 1469 q 914 1462 853 1483 q 1008 1371 975 1440 l 714 1121 q 629 1139 667 1119 q 596 1190 592 1158 l 700 1322 l 742 1469 z "},"ź":{"ha":968,"x_min":49,"x_max":982,"o":"m 346 782 l 688 678 l 726 781 q 982 663 956 806 q 896 519 961 589 q 739 392 831 449 q 376 221 574 293 l 372 204 q 615 174 450 190 q 663 293 617 176 q 838 290 774 321 q 918 182 903 260 q 665 0 850 47 q 319 111 439 61 l 308 107 l 326 44 q 101 0 268 -12 q 56 131 49 50 q 128 260 58 197 q 283 363 197 322 q 621 546 554 489 l 619 561 q 443 600 547 579 q 368 465 400 557 q 186 481 247 454 q 104 578 125 507 q 346 782 181 747 m 650 1206 q 822 1198 761 1219 q 917 1107 883 1176 l 622 857 q 538 875 575 856 q 504 926 500 894 l 608 1058 l 650 1206 z "},"Ż":{"ha":1078,"x_min":33,"x_max":1117,"o":"m 800 1294 q 800 1267 800 1294 q 760 1200 800 1239 q 665 1161 721 1161 q 567 1200 608 1161 q 526 1294 526 1239 q 567 1389 526 1350 q 665 1428 608 1428 q 760 1389 721 1428 q 800 1294 800 1350 m 826 0 l 338 111 l 329 107 l 342 50 q 89 6 243 -15 q 33 125 33 47 q 236 386 33 226 q 419 526 325 457 q 732 814 658 704 l 724 826 q 492 865 608 842 q 397 699 426 793 q 106 811 161 675 q 364 1063 183 1000 q 788 946 568 1014 l 828 1060 q 1007 1040 951 1060 q 1086 985 1063 1019 q 1117 896 1110 950 q 864 617 1054 782 q 574 380 715 490 q 400 244 432 269 l 401 233 q 718 218 594 214 q 761 361 744 275 q 965 359 890 389 q 1061 254 1039 329 q 985 119 1033 172 q 826 0 938 67 z "},"ż":{"ha":968,"x_min":49,"x_max":982,"o":"m 708 1031 q 708 1003 708 1031 q 669 936 708 975 q 573 897 629 897 q 476 936 517 897 q 435 1031 435 975 q 476 1125 435 1086 q 573 1164 517 1164 q 669 1125 629 1164 q 708 1031 708 1086 m 346 782 l 688 678 l 726 781 q 982 663 956 806 q 896 519 961 589 q 739 392 831 449 q 376 221 574 293 l 372 204 q 615 174 450 190 q 663 293 617 176 q 838 290 774 321 q 918 182 903 260 q 665 0 850 47 q 319 111 439 61 l 308 107 l 326 44 q 101 0 268 -12 q 56 131 49 50 q 128 260 58 197 q 283 363 197 322 q 621 546 554 489 l 619 561 q 443 600 547 579 q 368 465 400 557 q 186 481 247 454 q 104 578 125 507 q 346 782 181 747 z "},"Ž":{"ha":1078,"x_min":33,"x_max":1117,"o":"m 826 0 l 338 111 l 329 107 l 342 50 q 89 6 243 -15 q 33 125 33 47 q 236 386 33 226 q 419 526 325 457 q 732 814 658 704 l 724 826 q 492 865 608 842 q 397 699 426 793 q 106 811 161 675 q 364 1063 183 1000 q 788 946 568 1014 l 828 1060 q 1007 1040 951 1060 q 1086 985 1063 1019 q 1117 896 1110 950 q 864 617 1054 782 q 574 380 715 490 q 400 244 432 269 l 401 233 q 718 218 594 214 q 761 361 744 275 q 965 359 890 389 q 1061 254 1039 329 q 985 119 1033 172 q 826 0 938 67 m 860 1163 q 565 1146 676 1086 l 382 1413 q 438 1460 397 1444 q 521 1467 478 1476 l 676 1238 l 865 1456 q 1033 1463 954 1482 q 1108 1410 1088 1450 l 860 1163 z "},"ž":{"ha":968,"x_min":49,"x_max":1017,"o":"m 346 782 l 688 678 l 726 781 q 982 663 956 806 q 896 519 961 589 q 739 392 831 449 q 376 221 574 293 l 372 204 q 615 174 450 190 q 663 293 617 176 q 838 290 774 321 q 918 182 903 260 q 665 0 850 47 q 319 111 439 61 l 308 107 l 326 44 q 101 0 268 -12 q 56 131 49 50 q 128 260 58 197 q 283 363 197 322 q 621 546 554 489 l 619 561 q 443 600 547 579 q 368 465 400 557 q 186 481 247 454 q 104 578 125 507 q 346 782 181 747 m 768 899 q 474 882 585 822 l 290 1149 q 346 1197 306 1181 q 429 1203 386 1213 l 585 974 l 774 1192 q 942 1199 863 1218 q 1017 1146 996 1186 l 768 899 z "},"ƒ":{"ha":919,"x_min":-49,"x_max":1024,"o":"m 388 554 l 328 993 q 522 1166 401 1094 q 749 1247 642 1238 q 932 1168 881 1217 q 1024 1017 983 1119 q 922 909 1007 943 q 732 890 838 875 q 713 995 728 954 q 660 1082 699 1036 q 600 1046 633 1090 q 593 592 607 857 l 831 635 q 832 475 885 579 l 586 465 q 488 -290 554 32 q 354 -368 440 -347 q 144 -360 268 -389 l -49 -51 q -12 8 -44 -12 q 53 18 21 28 l 201 -190 q 376 435 329 133 l 153 393 q 116 467 117 431 q 150 556 115 503 l 381 553 l 388 554 z "},"Ș":{"ha":1006,"x_min":19,"x_max":981,"o":"m 613 299 q 565 353 613 325 q 446 415 517 382 q 303 488 375 447 q 174 597 231 529 q 106 747 118 665 q 304 962 172 881 q 611 1063 436 1043 q 834 1004 738 1057 q 981 868 931 951 q 883 732 957 767 q 669 726 810 697 q 607 917 664 840 q 486 856 543 893 q 429 794 429 819 q 478 737 429 768 q 599 668 526 706 q 746 587 671 631 q 882 485 821 543 q 960 365 943 426 q 790 111 935 207 q 433 0 646 15 q 183 77 297 18 q 19 217 68 136 q 340 392 132 457 q 443 146 353 286 q 563 201 514 158 q 613 299 613 244 m 324 -493 q 225 -435 244 -492 l 313 -306 l 289 -71 q 382 -28 335 -36 q 464 -33 429 -19 q 560 -119 539 -62 q 324 -493 546 -328 z "},"ș":{"ha":831,"x_min":29,"x_max":772,"o":"m 482 214 q 428 266 482 233 q 306 333 374 299 q 171 426 238 368 q 83 546 104 485 q 253 738 144 668 q 501 815 361 808 q 667 766 606 804 q 772 660 728 728 q 707 559 768 590 q 533 544 646 528 q 457 694 506 650 q 379 652 413 678 q 346 604 346 626 q 406 547 346 582 q 539 476 465 511 q 683 386 613 442 q 769 274 753 331 q 619 77 735 149 q 346 0 503 6 q 29 150 114 19 q 121 281 60 236 q 278 293 182 326 q 302 194 288 228 q 354 111 317 160 q 442 155 403 125 q 482 214 482 185 m 240 -493 q 142 -435 161 -492 l 229 -306 l 206 -71 q 299 -28 251 -36 q 381 -33 346 -19 q 476 -119 456 -62 q 240 -493 463 -328 z "},"Ț":{"ha":1010,"x_min":101,"x_max":1118,"o":"m 440 844 l 183 810 q 146 1019 101 915 q 599 1044 428 1042 q 1060 1028 771 1047 q 1040 817 1118 951 l 724 856 l 668 650 q 643 43 656 425 q 442 6 578 -10 q 279 78 306 21 q 442 763 385 383 l 440 844 m 340 -306 l 317 -71 q 410 -28 363 -36 q 492 -33 457 -19 q 588 -119 567 -62 q 351 -493 574 -328 q 253 -435 272 -492 l 340 -306 z "},"ț":{"ha":846,"x_min":82,"x_max":860,"o":"m 533 683 l 529 683 q 505 387 524 568 q 483 176 486 206 q 706 318 597 229 q 785 288 765 314 q 799 196 804 263 q 428 0 610 38 q 150 169 206 18 q 304 644 246 407 l 119 614 q 83 689 83 653 q 117 778 82 725 l 317 769 l 292 1026 q 500 1092 407 1088 q 636 1046 593 1096 l 561 813 l 804 857 q 807 697 860 803 l 533 683 m 285 -306 l 261 -71 q 354 -28 307 -36 q 436 -33 401 -19 q 532 -119 511 -62 q 296 -493 518 -328 q 197 -435 217 -492 l 285 -306 z "},"ʼ":{"ha":551,"x_min":219,"x_max":585,"o":"m 326 857 q 219 921 238 861 l 314 1063 l 289 1318 q 390 1366 339 1357 q 481 1360 442 1375 q 585 1265 561 1328 q 326 857 568 1036 z "},"ˆ":{"ha":794,"x_min":129,"x_max":867,"o":"m 129 924 l 428 1199 q 713 1161 599 1226 l 867 913 q 759 863 821 874 q 655 861 697 853 q 576 885 613 869 l 489 1063 l 257 858 q 169 873 206 856 q 129 924 133 890 z "},"ˇ":{"ha":783,"x_min":169,"x_max":896,"o":"m 647 899 q 353 882 464 822 l 169 1149 q 225 1197 185 1181 q 308 1203 265 1213 l 464 974 l 653 1192 q 822 1199 742 1218 q 896 1146 875 1186 l 647 899 z "},"ˉ":{"ha":608,"x_min":90,"x_max":699,"o":"m 676 999 q 692 955 699 988 q 654 882 686 922 l 121 865 q 140 978 90 904 l 406 971 l 676 999 z "},"˘":{"ha":610,"x_min":161,"x_max":708,"o":"m 708 1063 q 608 926 683 985 q 436 868 532 868 q 258 931 340 868 q 161 1104 176 993 q 199 1133 174 1121 q 244 1140 224 1144 q 372 1004 281 1031 q 517 1140 500 1026 q 647 1130 597 1151 q 708 1063 697 1108 z "},"˙":{"ha":333,"x_min":150,"x_max":424,"o":"m 424 1031 q 424 1003 424 1031 q 384 936 424 975 q 288 897 344 897 q 191 936 232 897 q 150 1031 150 975 q 191 1125 150 1086 q 288 1164 232 1164 q 384 1125 344 1164 q 424 1031 424 1086 z "},"˚":{"ha":581,"x_min":107,"x_max":706,"o":"m 449 1092 q 447 1105 449 1092 q 439 1128 446 1117 q 420 1139 432 1139 q 403 1135 408 1139 q 360 1028 371 1090 q 361 929 340 960 q 378 918 369 918 q 393 919 388 918 q 436 1010 421 953 q 449 1092 451 1068 m 464 1211 q 592 1194 544 1211 q 658 1156 639 1176 q 675 1028 706 1103 q 558 894 647 939 q 352 850 468 850 q 172 895 236 850 q 133 1028 107 940 q 464 1211 188 1211 z "},"˛":{"ha":672,"x_min":-75,"x_max":542,"o":"m 213 -169 q 333 -226 240 -226 q 496 -165 425 -226 q 528 -190 515 -167 q 540 -243 542 -212 q 231 -372 419 -372 q 10 -313 96 -372 q -60 -153 -75 -254 q 53 3 -46 -51 q 299 69 153 58 q 390 -10 388 49 q 273 -66 326 -22 q 213 -169 219 -110 z "},"˜":{"ha":792,"x_min":113,"x_max":901,"o":"m 358 1146 q 675 997 549 1110 l 682 997 l 781 1131 q 865 1119 828 1139 q 899 1063 901 1100 q 650 857 793 903 q 517 890 576 867 q 430 932 458 913 q 363 985 401 951 l 351 982 l 249 860 q 158 876 204 850 q 117 946 113 901 q 224 1056 175 1015 q 358 1146 272 1096 z "},"˝":{"ha":660,"x_min":119,"x_max":769,"o":"m 419 869 l 538 1131 q 769 1131 700 1153 l 721 1029 l 563 856 q 419 869 471 847 m 119 869 l 243 1131 q 474 1131 401 1153 l 425 1029 l 281 856 q 119 869 178 847 z "},"π":{"ha":1440,"x_min":43,"x_max":1458,"o":"m 1089 813 l 1268 963 q 1401 917 1350 961 q 1458 807 1451 874 q 1185 650 1357 700 q 1103 203 1100 408 q 1210 261 1169 228 q 1290 176 1275 239 q 1268 29 1304 114 q 1076 -23 1188 -14 q 903 -12 965 -32 q 946 636 818 217 q 753 667 840 649 q 695 361 738 538 q 597 65 653 185 q 467 -9 542 13 q 267 -25 392 -31 q 115 81 161 25 q 43 231 69 136 q 160 343 107 321 q 288 326 214 365 q 310 235 296 271 q 360 150 324 200 q 403 168 396 160 q 538 718 510 535 q 451 750 482 736 l 442 747 l 293 658 q 231 681 257 663 q 207 729 206 699 q 499 963 299 876 q 1065 808 799 844 l 1089 813 z "},"ँ":{"ha":0,"x_min":-476,"x_max":240,"o":"m 240 1083 q 74 979 178 1014 q -131 944 -31 944 q -340 1028 -231 944 q -476 1238 -449 1111 q -360 1344 -429 1317 q -218 1339 -292 1372 q -201 1177 -221 1244 q -122 1061 -181 1110 q 68 1188 8 1092 q 167 1179 119 1207 q 240 1083 215 1151 m 3 1174 q -10 1160 3 1174 q -62 1146 -24 1146 q -130 1174 -101 1146 q -158 1239 -158 1201 q -130 1303 -158 1276 q -62 1331 -101 1331 q 3 1303 -24 1331 q 31 1239 31 1276 q 3 1174 31 1201 z "},"ं":{"ha":0,"x_min":-267,"x_max":36,"o":"m 36 1149 q 36 1118 36 1149 q -8 1044 36 1088 q -114 1000 -51 1000 q -222 1044 -176 1000 q -267 1149 -267 1088 q -222 1253 -267 1210 q -114 1297 -176 1297 q -8 1253 -51 1297 q 36 1149 36 1210 z "},"ः":{"ha":411,"x_min":51,"x_max":360,"o":"m 307 126 q 307 100 307 126 q 269 37 307 74 q 179 0 232 0 q 89 37 126 0 q 51 126 51 74 q 89 215 51 178 q 180 251 126 251 q 270 215 233 251 q 307 126 307 178 m 360 568 q 360 542 360 568 q 322 480 360 517 q 232 443 285 443 q 142 480 179 443 q 104 569 104 517 q 142 658 104 621 q 233 694 179 694 q 323 657 286 694 q 360 568 360 619 z "},"अ":{"ha":1406,"x_min":-25,"x_max":1624,"o":"m 265 619 q 399 614 354 614 q 600 757 526 658 l 592 771 q 367 692 476 763 q 234 785 271 722 q 242 900 197 849 q 435 960 343 946 q 647 963 528 974 q 847 772 782 919 q 700 608 810 667 q 458 533 590 549 l 463 519 q 710 485 606 524 q 1022 640 814 538 l 1054 785 l 924 785 l 896 811 q 947 871 921 853 l 1072 871 l 1082 914 q 1378 871 1304 936 l 1607 871 l 1624 850 q 1583 785 1614 806 l 1385 785 l 1274 582 l 1268 35 q 1112 4 1231 -11 q 903 89 993 19 l 981 447 l 1031 506 l 1028 514 l 813 424 q 860 319 860 379 q 762 160 860 236 q 531 44 664 85 q 288 6 399 3 q 71 76 167 17 q -25 189 -25 135 q 75 281 -25 246 q 183 313 128 299 q 501 400 399 367 q 438 415 479 404 l 313 382 q 242 466 264 417 q 228 558 221 515 q 265 619 236 600 m 590 332 l 283 206 q 312 172 289 190 q 356 147 335 154 q 610 300 533 194 l 590 332 z "},"आ":{"ha":1933,"x_min":-25,"x_max":2151,"o":"m 265 619 q 399 614 354 614 q 600 757 526 658 l 592 771 q 367 692 476 763 q 234 785 271 722 q 242 900 197 849 q 435 960 343 946 q 647 963 528 974 q 847 772 782 919 q 700 608 810 667 q 458 533 590 549 l 463 519 q 710 485 606 524 q 1022 640 814 538 l 1054 785 l 924 785 l 896 811 q 947 871 921 853 l 1072 871 l 1082 914 q 1378 871 1304 936 l 1600 871 l 1610 914 q 1821 922 1749 931 q 1925 871 1893 913 l 2135 871 l 2151 850 q 2111 785 2142 806 l 1903 785 l 1801 582 l 1796 35 q 1640 4 1758 -11 q 1431 89 1521 19 l 1582 785 l 1385 785 l 1274 582 l 1268 35 q 1112 4 1231 -11 q 903 89 993 19 l 981 447 l 1031 506 l 1028 514 l 813 424 q 860 319 860 379 q 762 160 860 236 q 531 44 664 85 q 288 6 399 3 q 71 76 167 17 q -25 189 -25 135 q 75 281 -25 246 q 183 313 128 299 q 501 400 399 367 q 438 415 479 404 l 313 382 q 242 466 264 417 q 228 558 221 515 q 265 619 236 600 m 590 332 l 283 206 q 312 172 289 190 q 356 147 335 154 q 610 300 533 194 l 590 332 z "},"इ":{"ha":818,"x_min":-47,"x_max":1036,"o":"m 1019 871 l 1036 850 q 996 785 1026 806 l 697 785 q 731 763 719 771 q 726 641 751 713 q 649 525 701 569 q 353 474 504 481 l 344 447 q 701 392 432 429 q 700 119 814 322 q 351 13 558 28 l 283 56 l 271 43 q 444 -156 368 -39 q 371 -249 442 -210 q 186 -279 300 -287 q -12 107 111 -46 q 90 256 25 204 q 229 289 156 307 q 297 203 258 236 q 416 236 356 210 q 510 296 476 263 l 506 308 q 323 343 447 321 q 126 381 199 365 q 118 528 82 442 q 251 674 154 614 q 560 715 442 683 l 567 729 q 465 785 533 758 l -19 785 l -47 811 q 4 871 -22 853 l 1019 871 z "},"ई":{"ha":818,"x_min":-47,"x_max":1036,"o":"m 1019 871 l 1036 850 q 996 785 1026 806 l 697 785 q 731 763 719 771 q 726 641 751 713 q 649 525 701 569 q 353 474 504 481 l 344 447 q 701 392 432 429 q 700 119 814 322 q 351 13 558 28 l 283 56 l 271 43 q 444 -156 368 -39 q 371 -249 442 -210 q 186 -279 300 -287 q -12 107 111 -46 q 90 256 25 204 q 229 289 156 307 q 297 203 258 236 q 416 236 356 210 q 510 296 476 263 l 506 308 q 323 343 447 321 q 126 381 199 365 q 118 528 82 442 q 251 674 154 614 q 560 715 442 683 l 567 729 q 465 785 533 758 l -19 785 l -47 811 q 4 871 -22 853 l 1019 871 m 568 1165 l 549 1153 q 599 939 554 1058 q 496 894 585 899 q 313 1124 431 1014 q 401 1268 349 1214 q 542 1349 453 1322 q 727 1321 651 1344 q 867 1244 803 1297 q 850 1127 890 1179 q 717 1049 810 1075 q 568 1165 632 1139 z "},"उ":{"ha":871,"x_min":-49,"x_max":1089,"o":"m 347 524 q 478 519 411 524 q 569 579 540 543 q 614 674 599 615 l 606 688 q 406 601 499 678 q 289 678 328 624 q 274 785 250 732 l -21 785 l -49 811 q 3 871 -24 853 l 1072 871 l 1089 850 q 1049 785 1079 806 l 792 785 q 853 699 824 751 q 775 555 839 610 q 597 453 711 500 l 601 442 q 744 387 699 431 q 790 282 790 343 q 728 153 790 221 q 569 42 667 86 q 375 0 471 -1 q 3 286 106 74 q 108 407 47 374 q 238 417 169 440 q 381 135 271 236 q 502 199 460 167 q 556 274 544 231 q 521 336 549 308 q 408 293 472 319 q 333 372 358 325 q 313 461 308 419 q 347 524 318 503 z "},"ऊ":{"ha":1164,"x_min":-47,"x_max":1382,"o":"m 324 524 q 454 519 388 524 q 546 579 517 543 q 590 674 575 615 l 582 688 q 382 601 475 678 q 265 678 304 624 q 250 785 226 732 l -19 785 l -47 811 q 4 871 -22 853 l 1365 871 l 1382 850 q 1342 785 1372 806 l 775 785 q 829 707 803 754 q 788 649 824 682 q 711 594 753 617 l 715 588 l 849 650 q 1040 538 967 617 q 1129 350 1113 458 q 1072 201 1111 264 q 950 56 1033 138 q 831 115 879 72 q 789 211 782 157 q 949 363 904 283 q 786 508 886 475 q 603 433 726 500 l 607 422 q 726 376 685 413 q 767 280 767 339 q 705 153 767 221 q 545 42 643 86 q 351 0 447 -1 q -21 286 82 74 q 85 407 24 374 q 214 417 146 440 q 357 135 247 236 q 478 199 436 167 q 532 274 521 231 q 497 336 525 308 q 385 293 449 319 q 310 372 335 325 q 290 461 285 419 q 324 524 294 503 z "},"ऋ":{"ha":1565,"x_min":-47,"x_max":1783,"o":"m 1193 0 q 1058 58 1124 0 q 993 182 993 117 q 1056 337 993 247 q 1206 488 1119 426 l 1057 468 q 868 338 957 401 l 865 35 q 709 4 828 -11 q 500 89 590 19 l 524 193 l 592 288 l 572 303 q 406 155 515 242 q 196 0 296 68 q 62 94 104 26 q 58 217 19 161 q 533 435 333 279 q 375 544 467 494 l 265 421 q 101 499 151 450 q 65 615 50 549 q 184 707 118 671 q 310 743 250 743 q 617 507 436 743 l 631 521 l 604 568 l 651 785 l -19 785 l -47 811 q 4 871 -22 853 l 669 871 l 679 914 q 975 871 901 936 l 1767 871 l 1783 850 q 1743 785 1774 806 l 982 785 l 871 582 l 869 453 q 967 518 933 492 q 929 590 939 546 q 1035 676 968 639 q 1142 704 1101 714 q 1178 658 1171 681 q 1174 593 1185 635 q 1339 629 1251 604 q 1422 551 1396 606 q 1429 442 1449 496 q 1196 164 1243 347 l 1217 147 q 1315 210 1268 164 q 1385 310 1361 257 q 1550 189 1511 333 q 1403 54 1500 108 q 1193 0 1307 0 z "},"ऌ":{"ha":1240,"x_min":-47,"x_max":1454,"o":"m 918 447 q 897 465 910 453 q 631 242 803 371 q 424 307 510 238 q 357 440 338 376 q 383 453 367 444 q 444 482 419 472 q 415 526 436 508 q 365 544 393 544 q 293 489 336 544 q 244 386 250 433 q 318 291 274 329 q 450 219 363 253 q 437 92 486 163 q 267 0 388 22 q 60 167 154 53 q -33 360 -35 281 q 74 554 -32 456 q 319 708 181 653 q 494 697 424 714 q 596 647 565 679 q 650 551 626 615 q 551 439 578 486 l 582 411 q 724 537 667 479 q 847 681 782 594 q 957 674 903 686 q 996 785 1000 732 l -19 785 l -47 811 q 4 871 -22 853 l 1438 871 l 1454 850 q 1414 785 1444 806 l 1140 785 q 1076 615 1147 714 q 1172 446 1156 551 q 810 61 1086 258 l 836 39 q 1018 164 931 68 q 1147 128 1108 174 q 1172 18 1185 83 q 1033 -83 1119 -40 q 871 -125 946 -125 q 672 -59 764 -125 q 579 79 579 7 q 625 164 579 118 q 728 247 671 210 q 843 340 786 285 q 918 447 900 394 z "},"ऍ":{"ha":971,"x_min":-49,"x_max":1189,"o":"m 1172 871 l 1189 850 q 1149 785 1179 806 l 976 785 q 853 364 985 556 q 650 475 692 381 q 721 668 714 571 l 697 785 l 472 785 q 333 257 456 508 l 353 244 l 513 342 q 671 324 594 358 q 789 225 747 289 q 614 -344 781 -49 q 438 -305 503 -346 q 372 -189 374 -264 q 539 56 493 -60 l 542 151 l 517 164 l 333 46 q 131 118 206 61 q 61 260 56 175 q 204 592 171 460 l 179 785 l -21 785 l -49 811 q 3 871 -24 853 l 1172 871 m 1096 1119 q 935 976 1039 1032 q 724 921 831 921 q 510 1004 617 921 q 375 1214 403 1088 q 491 1321 422 1293 q 633 1315 560 1349 q 651 1153 631 1221 q 729 1038 671 1086 q 835 1100 794 1051 q 892 1210 876 1149 q 1006 1212 946 1239 q 1096 1119 1067 1185 z "},"ए":{"ha":971,"x_min":-49,"x_max":1189,"o":"m 1172 871 l 1189 850 q 1149 785 1179 806 l 976 785 q 853 364 985 556 q 650 475 692 381 q 721 668 714 571 l 697 785 l 472 785 q 333 257 456 508 l 353 244 l 513 342 q 671 324 594 358 q 789 225 747 289 q 614 -344 781 -49 q 438 -305 503 -346 q 372 -189 374 -264 q 539 56 493 -60 l 542 151 l 517 164 l 333 46 q 131 118 206 61 q 61 260 56 175 q 204 592 171 460 l 179 785 l -21 785 l -49 811 q 3 871 -24 853 l 1172 871 z "},"ऐ":{"ha":971,"x_min":-49,"x_max":1189,"o":"m 1172 871 l 1189 850 q 1149 785 1179 806 l 976 785 q 853 364 985 556 q 650 475 692 381 q 721 668 714 571 l 697 785 l 472 785 q 333 257 456 508 l 353 244 l 513 342 q 671 324 594 358 q 789 225 747 289 q 614 -344 781 -49 q 438 -305 503 -346 q 372 -189 374 -264 q 539 56 493 -60 l 542 151 l 517 164 l 333 46 q 131 118 206 61 q 61 260 56 175 q 204 592 171 460 l 179 785 l -21 785 l -49 811 q 3 871 -24 853 l 1172 871 m 563 1374 q 752 1239 647 1374 q 908 956 857 1104 q 819 921 876 918 q 639 1117 750 1040 l 490 1021 q 327 1135 378 1071 q 297 1263 276 1199 q 563 1374 446 1374 z "},"ऑ":{"ha":1933,"x_min":-25,"x_max":2161,"o":"m 265 619 q 399 614 354 614 q 600 757 526 658 l 592 771 q 367 692 476 763 q 234 785 271 722 q 242 900 197 849 q 435 960 343 946 q 647 963 528 974 q 847 772 782 919 q 700 608 810 667 q 458 533 590 549 l 463 519 q 710 485 606 524 q 1022 640 814 538 l 1054 785 l 924 785 l 896 811 q 947 871 921 853 l 1072 871 l 1082 914 q 1378 871 1304 936 l 1600 871 l 1610 914 q 1821 922 1749 931 q 1925 871 1893 913 l 2135 871 l 2151 850 q 2111 785 2142 806 l 1903 785 l 1801 582 l 1796 35 q 1640 4 1758 -11 q 1431 89 1521 19 l 1582 785 l 1385 785 l 1274 582 l 1268 35 q 1112 4 1231 -11 q 903 89 993 19 l 981 447 l 1031 506 l 1028 514 l 813 424 q 860 319 860 379 q 762 160 860 236 q 531 44 664 85 q 288 6 399 3 q 71 76 167 17 q -25 189 -25 135 q 75 281 -25 246 q 183 313 128 299 q 501 400 399 367 q 438 415 479 404 l 313 382 q 242 466 264 417 q 228 558 221 515 q 265 619 236 600 m 590 332 l 283 206 q 312 172 289 190 q 356 147 335 154 q 610 300 533 194 l 590 332 m 2161 1143 q 2000 1000 2104 1056 q 1789 944 1896 944 q 1575 1028 1682 944 q 1440 1238 1468 1111 q 1556 1344 1488 1317 q 1699 1339 1625 1372 q 1716 1177 1696 1244 q 1794 1061 1736 1110 q 1901 1124 1860 1075 q 1957 1233 1942 1172 q 2072 1235 2011 1263 q 2161 1143 2132 1208 z "},"ओ":{"ha":1933,"x_min":-25,"x_max":2151,"o":"m 265 619 q 399 614 354 614 q 600 757 526 658 l 592 771 q 367 692 476 763 q 234 785 271 722 q 242 900 197 849 q 435 960 343 946 q 647 963 528 974 q 847 772 782 919 q 700 608 810 667 q 458 533 590 549 l 463 519 q 710 485 606 524 q 1022 640 814 538 l 1054 785 l 924 785 l 896 811 q 947 871 921 853 l 1072 871 l 1082 914 q 1378 871 1304 936 l 1600 871 l 1610 914 q 1821 922 1749 931 q 1925 871 1893 913 l 2135 871 l 2151 850 q 2111 785 2142 806 l 1903 785 l 1801 582 l 1796 35 q 1640 4 1758 -11 q 1431 89 1521 19 l 1582 785 l 1385 785 l 1274 582 l 1268 35 q 1112 4 1231 -11 q 903 89 993 19 l 981 447 l 1031 506 l 1028 514 l 813 424 q 860 319 860 379 q 762 160 860 236 q 531 44 664 85 q 288 6 399 3 q 71 76 167 17 q -25 189 -25 135 q 75 281 -25 246 q 183 313 128 299 q 501 400 399 367 q 438 415 479 404 l 313 382 q 242 466 264 417 q 228 558 221 515 q 265 619 236 600 m 590 332 l 283 206 q 312 172 289 190 q 356 147 335 154 q 610 300 533 194 l 590 332 m 1481 1397 q 1670 1263 1565 1397 q 1826 979 1775 1128 q 1738 944 1794 942 q 1557 1140 1668 1064 l 1408 1044 q 1245 1158 1296 1094 q 1215 1286 1194 1222 q 1481 1397 1364 1397 z "},"औ":{"ha":1933,"x_min":-25,"x_max":2151,"o":"m 265 619 q 399 614 354 614 q 600 757 526 658 l 592 771 q 367 692 476 763 q 234 785 271 722 q 242 900 197 849 q 435 960 343 946 q 647 963 528 974 q 847 772 782 919 q 700 608 810 667 q 458 533 590 549 l 463 519 q 710 485 606 524 q 1022 640 814 538 l 1054 785 l 924 785 l 896 811 q 947 871 921 853 l 1072 871 l 1082 914 q 1378 871 1304 936 l 1600 871 l 1610 914 q 1821 922 1749 931 q 1925 871 1893 913 l 2135 871 l 2151 850 q 2111 785 2142 806 l 1903 785 l 1801 582 l 1796 35 q 1640 4 1758 -11 q 1431 89 1521 19 l 1582 785 l 1385 785 l 1274 582 l 1268 35 q 1112 4 1231 -11 q 903 89 993 19 l 981 447 l 1031 506 l 1028 514 l 813 424 q 860 319 860 379 q 762 160 860 236 q 531 44 664 85 q 288 6 399 3 q 71 76 167 17 q -25 189 -25 135 q 75 281 -25 246 q 183 313 128 299 q 501 400 399 367 q 438 415 479 404 l 313 382 q 242 466 264 417 q 228 558 221 515 q 265 619 236 600 m 590 332 l 283 206 q 312 172 289 190 q 356 147 335 154 q 610 300 533 194 l 590 332 m 1247 1308 q 1334 1370 1276 1342 q 1445 1399 1392 1399 q 1571 1356 1499 1399 q 1721 1219 1643 1313 q 1850 1007 1799 1126 q 1815 966 1844 986 q 1743 944 1786 946 q 1607 994 1668 982 l 1563 944 q 1453 966 1508 942 q 1386 1032 1399 990 q 1542 1146 1438 1119 q 1746 1029 1635 1117 l 1756 1039 q 1540 1229 1697 1132 l 1411 1110 q 1272 1192 1315 1146 q 1247 1308 1229 1239 z "},"क":{"ha":1388,"x_min":-76,"x_max":1606,"o":"m 1381 506 q 1356 392 1381 431 q 1318 334 1332 354 q 1270 288 1304 314 q 1218 247 1236 261 q 1152 205 1200 232 q 1085 167 1104 178 q 1008 126 1065 157 q 943 170 960 147 q 940 224 926 193 q 1078 335 1042 289 q 1115 428 1115 381 q 1007 536 1115 521 q 854 435 960 508 l 850 35 q 694 4 813 -11 q 485 89 575 19 l 514 208 l 575 297 l 561 315 q 361 121 433 199 q 113 184 213 121 q 13 360 13 247 q 152 611 13 493 q 454 729 292 729 q 599 603 482 729 q 611 589 607 593 l 621 594 l 646 785 l -49 785 l -76 811 q -25 871 -51 853 l 658 871 l 664 914 q 960 871 886 936 l 1589 871 l 1606 850 q 1565 785 1596 806 l 964 785 q 800 546 940 747 l 819 531 q 1017 708 883 586 q 1274 681 1168 742 q 1381 506 1381 621 m 476 572 q 365 482 411 542 q 318 363 318 422 q 367 279 318 304 q 582 447 499 381 l 586 467 q 476 572 508 547 z "},"ख":{"ha":1494,"x_min":-47,"x_max":1711,"o":"m 472 669 q 319 601 397 669 q 190 682 233 629 q 169 785 147 735 l -19 785 l -47 811 q 4 871 -22 853 l 1163 871 l 1168 914 q 1464 871 1390 936 l 1694 871 l 1711 850 q 1671 785 1701 806 l 1472 785 l 1361 582 l 1354 35 q 1198 4 1317 -11 q 989 89 1079 19 l 1018 208 l 1056 254 l 1042 272 q 767 122 933 196 q 467 32 601 49 q 199 137 331 57 q 10 319 68 217 q 72 461 14 403 q 204 518 129 519 l 257 454 q 436 538 371 482 q 506 664 501 593 q 472 669 493 669 m 1018 579 q 927 510 963 554 q 892 426 892 465 q 909 367 892 388 q 957 347 926 347 q 1025 383 988 347 q 1083 464 1063 418 l 1086 483 q 1018 579 1068 544 m 726 694 q 609 490 726 576 q 318 372 492 403 l 314 361 q 535 218 394 275 q 804 275 642 226 l 797 282 q 689 321 724 288 q 654 406 654 354 q 763 619 654 510 q 989 729 871 729 q 1065 688 1032 729 q 1115 589 1097 647 l 1125 594 l 1150 785 l 661 785 q 726 694 726 733 z "},"ग":{"ha":1208,"x_min":-47,"x_max":1421,"o":"m 657 785 q 623 469 657 639 q 536 196 589 299 q 231 88 446 88 q 84 165 149 110 q -12 290 19 219 q 63 444 0 397 q 392 536 215 478 q 394 675 399 597 l 343 785 l -19 785 l -47 811 q 4 871 -22 853 l 869 871 l 879 914 q 1175 871 1101 936 l 1404 871 l 1421 850 q 1381 785 1411 806 l 1182 785 l 1071 582 l 1065 35 q 909 4 1028 -11 q 700 89 790 19 l 851 785 l 657 785 m 306 258 l 319 264 q 372 414 353 332 q 194 356 310 392 q 306 258 229 299 z "},"घ":{"ha":1181,"x_min":-47,"x_max":1399,"o":"m 121 344 q 178 397 121 372 q 315 449 235 421 q 432 506 396 478 l 421 517 q 242 463 317 475 q 103 546 161 489 q 64 671 44 603 q 274 785 125 732 l -18 785 l -47 811 q 7 871 -22 851 l 847 871 l 857 914 q 1153 871 1079 936 l 1382 871 l 1399 850 q 1358 785 1389 806 l 1160 785 l 1049 582 l 1043 35 q 887 4 1006 -11 q 678 89 768 19 l 711 238 l 776 321 l 765 333 q 565 187 678 251 q 372 115 451 122 q 193 203 265 136 q 121 344 121 271 m 768 506 l 829 785 l 636 785 q 339 640 424 713 l 353 625 q 506 685 360 628 q 640 600 593 653 q 668 482 688 547 q 422 314 544 413 l 436 293 q 768 506 633 344 z "},"ङ":{"ha":893,"x_min":-47,"x_max":1035,"o":"m 1018 871 l 1035 850 q 994 785 1025 806 l 683 785 q 717 763 706 771 q 713 641 738 713 q 635 525 688 569 q 339 474 490 481 l 331 447 q 681 393 413 431 q 679 121 793 324 q 428 38 597 75 q 101 0 260 0 q 14 135 26 61 q 50 247 1 210 q 299 250 169 236 q 496 296 429 264 l 492 308 q 309 343 433 321 q 113 381 185 365 q 104 528 68 442 q 238 674 140 614 q 546 715 428 683 l 553 729 q 442 785 524 754 l -19 785 l -47 811 q 4 871 -22 853 l 1018 871 m 707 489 q 707 511 707 489 q 739 565 707 533 q 817 597 771 597 q 896 565 864 597 q 928 489 928 533 q 896 412 928 444 q 818 379 864 379 q 740 412 772 379 q 707 489 707 444 z "},"च":{"ha":1203,"x_min":-75,"x_max":1421,"o":"m 442 342 l 469 319 q 645 401 571 356 q 793 519 719 446 l 851 785 l -47 785 l -75 811 q -24 871 -50 853 l 869 871 l 879 914 q 1175 871 1101 936 l 1404 871 l 1421 850 q 1381 785 1411 806 l 1182 785 l 1071 582 l 1065 35 q 909 4 1028 -11 q 700 89 790 19 l 736 256 l 792 349 l 775 361 q 401 108 596 188 q 203 190 293 125 q 113 319 113 254 q 160 392 113 364 q 306 455 207 421 q 463 519 406 489 l 451 532 l 101 471 q 22 554 47 506 q 6 644 -3 603 q 47 708 14 686 q 565 701 260 682 q 667 597 639 660 q 663 471 696 535 q 542 402 617 447 q 442 342 468 357 z "},"छ":{"ha":1208,"x_min":-47,"x_max":1399,"o":"m 1024 663 q 1136 506 1136 581 q 969 292 1136 431 q 1050 83 1063 167 q 685 -289 1024 -97 q 539 -174 575 -239 q 540 -51 503 -110 q 661 0 615 -21 q 764 58 707 21 q 843 131 821 94 q 818 185 842 151 q 378 6 564 24 q 203 91 272 31 q 133 234 133 151 q 378 456 133 317 l 368 472 q 199 414 318 451 q 63 526 111 454 q 46 665 15 597 q 269 785 140 738 l -18 785 l -47 811 q 7 871 -22 851 l 1382 871 l 1399 850 q 1358 785 1389 806 l 1058 785 q 1024 663 1056 735 m 832 539 q 879 411 829 486 q 950 497 929 458 q 908 540 936 521 q 860 563 879 558 q 832 539 843 558 m 914 785 l 636 785 q 303 593 460 728 l 313 579 q 446 622 324 582 q 579 516 539 578 q 594 383 619 454 q 413 214 513 332 l 425 201 q 731 307 576 221 q 640 601 610 481 q 740 699 679 658 q 860 744 801 739 q 907 729 890 736 q 914 785 914 760 z "},"ज":{"ha":1240,"x_min":-47,"x_max":1454,"o":"m 472 392 q 426 422 447 410 q 625 607 474 619 q 704 532 675 532 q 777 554 733 532 q 846 603 821 576 l 885 785 l -19 785 l -47 811 q 4 871 -22 853 l 903 871 l 913 914 q 1208 871 1135 936 l 1438 871 l 1454 850 q 1414 785 1444 806 l 1215 785 l 1104 582 l 1099 35 q 942 4 1061 -11 q 733 89 824 19 l 793 354 l 849 435 l 839 447 q 703 399 779 408 l 661 396 l 654 388 l 664 338 q 538 172 660 243 q 294 110 415 101 q 111 231 189 147 q 28 425 33 315 q 101 595 43 507 q 242 740 160 683 q 398 697 342 740 q 447 585 454 653 q 301 390 311 488 q 325 268 294 321 q 422 314 376 275 q 472 392 468 353 z "},"झ":{"ha":1353,"x_min":-47,"x_max":1569,"o":"m 715 382 q 758 286 758 347 q 700 119 758 225 q 351 13 558 28 l 283 56 l 271 43 q 444 -156 368 -39 q 371 -249 442 -210 q 186 -279 300 -287 q -12 107 111 -46 q 90 256 25 204 q 229 289 156 307 q 297 203 258 236 q 416 236 356 210 q 510 296 476 263 l 506 308 q 323 343 447 321 q 126 381 199 365 q 118 528 82 442 q 251 674 154 614 q 560 715 442 683 l 567 729 q 456 785 538 754 l -19 785 l -47 811 q 4 871 -22 853 l 1018 871 l 1028 914 q 1324 871 1250 936 l 1553 871 l 1569 850 q 1529 785 1560 806 l 1331 785 l 1219 582 l 1214 35 q 1058 4 1176 -11 q 849 89 939 19 l 921 422 l 986 500 l 975 514 q 715 382 872 447 m 969 646 l 1000 785 l 697 785 q 731 763 719 771 q 726 641 751 713 q 649 525 701 569 q 353 474 504 481 l 344 447 q 553 413 419 426 q 969 646 822 518 z "},"ञ":{"ha":1160,"x_min":-47,"x_max":1378,"o":"m 60 656 q 174 729 118 707 q 319 751 231 751 q 508 665 407 751 q 613 479 610 578 q 761 565 701 517 l 808 785 l -19 785 l -47 811 q 4 871 -22 853 l 826 871 l 836 914 q 1132 871 1058 936 l 1361 871 l 1378 850 q 1338 785 1368 806 l 1139 785 l 1028 582 l 1022 35 q 866 4 985 -11 q 657 89 747 19 l 710 331 l 785 406 l 774 428 q 579 356 686 385 q 421 185 526 258 q 219 108 315 113 q 65 183 133 124 q -22 329 -3 243 q 81 410 19 385 q 189 408 142 435 q 256 292 201 347 q 361 444 333 351 q 314 581 361 524 q 193 493 251 551 q 76 564 106 526 q 60 656 47 601 z "},"ट":{"ha":864,"x_min":-49,"x_max":1082,"o":"m 315 425 q 276 333 276 389 q 404 160 276 217 q 529 256 469 194 q 625 383 589 318 q 769 342 717 394 q 818 175 822 290 q 371 40 625 40 q 114 160 214 68 q 14 354 14 253 q 149 615 14 501 q 518 688 349 628 l 525 701 q 404 785 458 756 l -21 785 l -49 811 q 3 871 -24 853 l 1065 871 l 1082 850 q 1042 785 1072 806 l 617 785 q 689 735 651 764 q 685 613 710 685 q 607 497 660 542 q 315 425 468 442 z "},"ठ":{"ha":914,"x_min":-49,"x_max":1132,"o":"m 15 354 q 150 615 15 501 q 519 688 376 633 l 526 701 q 406 785 460 756 l -21 785 l -49 811 q 3 871 -24 853 l 1115 871 l 1132 850 q 1092 785 1122 806 l 618 785 q 690 735 653 764 q 667 571 718 665 q 893 458 800 524 q 869 309 901 383 q 774 174 838 235 q 608 75 711 113 q 382 38 506 38 q 117 158 219 67 q 15 354 15 249 m 269 319 q 404 149 269 213 q 582 260 517 185 q 653 424 647 335 q 588 489 629 461 q 317 425 456 440 q 269 319 269 385 z "},"ड":{"ha":819,"x_min":-47,"x_max":1035,"o":"m 1018 871 l 1035 850 q 994 785 1025 806 l 683 785 q 717 763 706 771 q 713 641 738 713 q 635 525 688 569 q 339 474 490 481 l 331 447 q 681 393 413 431 q 679 121 793 324 q 428 38 597 75 q 101 0 260 0 q 14 135 26 61 q 50 247 1 210 q 299 250 169 236 q 496 296 429 264 l 492 308 q 309 343 433 321 q 113 381 185 365 q 104 528 68 442 q 238 674 140 614 q 546 715 428 683 l 553 729 q 442 785 524 754 l -19 785 l -47 811 q 4 871 -22 853 l 1018 871 z "},"ढ":{"ha":1011,"x_min":-49,"x_max":1229,"o":"m 385 374 q 355 356 385 374 q 324 310 324 339 q 347 246 324 281 q 631 435 578 394 q 861 385 768 442 q 954 265 954 328 q 870 137 954 201 q 680 36 786 72 q 497 0 574 0 q 211 90 340 10 q 29 301 82 171 q 51 422 28 368 q 117 506 75 476 q 210 538 144 515 q 308 572 276 561 q 389 603 339 583 q 556 672 483 638 l 560 683 q 419 785 511 739 l -21 785 l -49 811 q 3 871 -24 853 l 1213 871 l 1229 850 q 1189 785 1219 806 l 668 785 q 779 728 728 758 q 714 526 817 635 q 556 454 665 500 q 385 374 447 408 m 689 244 q 610 276 658 264 q 422 169 582 263 q 499 125 456 144 q 624 169 571 135 q 689 244 676 204 z "},"ण":{"ha":1269,"x_min":-49,"x_max":1485,"o":"m 681 785 q 760 549 760 651 q 690 354 760 446 q 523 210 619 263 q 343 158 426 158 q 145 271 240 158 q 50 483 50 383 q 206 785 50 635 l -21 785 l -49 811 q 3 871 -24 853 l 933 871 l 943 914 q 1239 871 1165 936 l 1468 871 l 1485 850 q 1444 785 1475 806 l 1246 785 l 1135 582 l 1129 35 q 973 4 1092 -11 q 764 89 854 19 l 915 785 l 681 785 m 456 785 l 428 785 q 303 496 336 614 q 371 338 315 381 q 513 536 479 385 q 456 785 496 690 z "},"त":{"ha":1004,"x_min":-47,"x_max":1221,"o":"m 1204 871 l 1221 850 q 1181 785 1211 806 l 982 785 l 871 582 l 865 35 q 709 4 828 -11 q 500 89 590 19 l 569 406 l 621 478 l 611 494 q 314 360 481 408 q 292 308 296 338 q 406 129 319 231 q 293 0 415 50 q 117 147 192 65 q 18 301 42 229 q 72 451 44 401 q 150 522 100 500 q 618 632 425 515 l 651 785 l -19 785 l -47 811 q 4 871 -22 853 l 669 871 l 679 914 q 975 871 901 936 l 1204 871 z "},"थ":{"ha":1161,"x_min":54,"x_max":1379,"o":"m 375 128 q 164 203 274 128 q 54 369 54 279 q 110 425 54 396 q 253 497 167 454 q 388 582 339 539 l 264 603 q 163 691 199 647 q 110 801 128 735 q 220 971 132 897 q 408 1057 308 1044 q 587 943 506 1040 q 668 776 668 846 q 601 578 668 667 q 408 410 533 490 q 428 354 400 378 q 486 328 456 331 q 749 506 636 389 l 810 785 l 751 785 l 722 811 q 776 871 747 851 l 828 871 l 838 914 q 1133 871 1060 936 l 1363 871 l 1379 850 q 1339 785 1369 806 l 1140 785 l 1029 582 l 1024 35 q 867 4 986 -11 q 658 89 749 19 l 692 238 l 757 321 l 739 342 q 540 194 651 260 q 375 128 428 128 m 461 735 q 403 868 461 826 q 340 827 371 856 q 310 776 310 799 q 350 689 310 733 l 443 656 q 461 735 461 694 z "},"द":{"ha":879,"x_min":-49,"x_max":1096,"o":"m 139 517 q 260 561 197 542 q 518 688 438 617 l 525 701 q 407 785 475 749 l -21 785 l -49 811 q 3 871 -24 853 l 1079 871 l 1096 850 q 1056 785 1086 806 l 628 785 q 703 735 667 761 q 701 619 726 685 q 621 508 676 553 q 296 347 468 414 q 328 267 296 307 q 406 210 361 226 q 568 369 532 336 q 711 365 631 396 q 836 249 792 333 q 694 -274 749 13 q 506 -243 582 -281 q 418 -146 429 -206 q 588 189 514 82 l 568 201 q 491 112 536 172 q 426 26 446 51 q 128 133 244 40 q 13 345 13 225 q 139 517 13 465 z "},"ध":{"ha":1165,"x_min":17,"x_max":1383,"o":"m 85 329 q 138 378 85 357 q 272 428 190 400 q 396 490 353 457 l 385 501 q 204 446 275 458 q 17 660 17 531 q 195 910 61 782 q 483 1057 329 1039 q 599 1003 549 1057 q 656 850 650 949 q 518 719 622 774 q 300 640 414 664 l 239 667 l 239 656 q 245 618 239 629 q 253 604 251 607 q 260 595 254 601 q 267 588 265 589 q 275 580 268 586 q 283 572 282 574 q 433 636 379 603 q 581 433 610 572 q 386 299 489 382 l 400 278 q 597 369 499 303 q 754 513 696 436 l 814 785 l 731 785 l 701 811 q 756 871 726 851 l 832 871 l 842 914 q 1138 871 1064 936 l 1367 871 l 1383 850 q 1343 785 1374 806 l 1144 785 l 1033 582 l 1028 35 q 872 4 990 -11 q 663 89 753 19 l 694 233 l 760 317 l 744 333 q 532 176 650 246 q 336 100 414 107 q 157 188 229 121 q 85 329 85 256 m 268 743 q 399 785 346 750 q 469 861 453 819 q 431 906 465 900 q 340 833 385 878 q 268 743 294 789 z "},"न":{"ha":1122,"x_min":-49,"x_max":1340,"o":"m 1324 871 l 1340 850 q 1300 785 1331 806 l -21 785 l -49 811 q 3 871 -24 853 l 1324 871 m 722 575 l 707 585 q 546 513 654 560 q 533 201 586 354 q 440 126 515 156 q 293 100 364 97 q 28 251 107 144 q 33 372 17 319 q 90 450 50 425 q 414 565 215 485 q 754 714 613 644 q 976 708 903 729 q 1082 629 1050 688 l 961 468 l 978 35 q 822 4 940 -11 q 613 89 703 19 l 722 575 m 285 246 l 301 254 q 294 406 325 326 q 185 356 226 376 q 224 292 203 317 q 285 246 244 268 z "},"प":{"ha":1054,"x_min":-49,"x_max":1272,"o":"m 1256 871 l 1272 850 q 1232 785 1263 806 l 1033 785 l 922 582 l 917 35 q 760 4 879 -11 q 551 89 642 19 l 606 335 l 657 418 l 646 429 q 354 171 481 278 q 142 224 231 176 q 42 354 53 271 q 167 785 85 579 l -21 785 l -49 811 q 3 871 -24 853 l 721 871 l 731 914 q 1026 871 953 936 l 1256 871 m 654 561 l 703 785 l 501 785 l 410 667 q 317 343 339 482 l 332 336 q 654 561 554 472 z "},"फ":{"ha":1526,"x_min":-47,"x_max":1744,"o":"m 1513 526 q 1446 350 1513 428 q 1276 222 1394 289 q 1128 140 1176 164 l 1054 233 q 1206 349 1164 301 q 1247 446 1247 396 q 1139 557 1247 542 q 928 413 1036 493 l 924 35 q 767 4 886 -11 q 558 89 649 19 l 613 335 l 664 418 l 653 429 q 361 171 488 278 q 149 223 236 178 q 57 344 63 268 q 182 785 93 569 l -19 785 l -47 811 q 4 871 -22 853 l 728 871 l 738 914 q 1033 871 960 936 l 1728 871 l 1744 850 q 1704 785 1735 806 l 1040 785 l 929 582 l 876 521 l 894 503 q 1149 729 996 589 q 1406 702 1300 763 q 1513 526 1513 642 m 661 561 l 710 785 l 508 785 l 417 667 q 324 343 346 482 l 339 336 q 661 561 561 472 z "},"ब":{"ha":1051,"x_min":-47,"x_max":1269,"o":"m 642 332 l 404 104 q 148 172 249 104 q 47 360 47 240 q 188 619 47 501 q 493 736 329 736 q 608 653 553 710 q 674 589 642 621 l 683 594 l 708 785 l -19 785 l -47 811 q 4 871 -22 853 l 721 871 l 726 914 q 1022 871 949 936 l 1253 871 l 1269 850 q 1229 785 1260 806 l 1031 785 l 919 582 l 913 35 q 756 4 875 -11 q 547 89 638 19 l 576 208 l 656 314 l 642 332 m 350 372 q 407 264 350 299 l 528 351 q 386 471 433 419 q 350 372 350 421 m 644 446 l 649 468 q 521 586 583 544 q 446 538 486 571 q 592 401 510 468 q 644 446 621 424 z "},"भ":{"ha":1267,"x_min":67,"x_max":1485,"o":"m 1468 871 l 1485 850 q 1444 785 1475 806 l 846 785 l 818 811 q 869 871 843 853 l 1468 871 m 503 625 l 319 549 q 101 726 163 608 q 163 857 115 828 q 357 949 251 892 q 515 1057 463 1007 q 739 950 679 1057 q 714 631 751 839 q 897 714 792 664 q 1119 708 1046 729 q 1225 629 1193 688 l 1104 468 l 1121 35 q 965 4 1083 -11 q 756 89 846 19 l 865 575 l 850 585 q 690 513 781 553 q 585 182 644 308 q 444 110 533 133 q 288 100 354 88 q 160 172 222 119 q 67 281 99 224 q 88 369 68 325 q 147 425 108 413 q 456 524 271 454 q 465 568 460 538 l 510 614 l 503 625 m 497 840 l 478 849 q 296 742 342 767 q 322 699 303 724 q 356 669 342 674 l 488 701 q 497 840 497 792 m 363 256 l 379 264 q 424 399 419 385 q 264 338 318 357 q 363 256 294 290 z "},"म":{"ha":1208,"x_min":-47,"x_max":1425,"o":"m 1408 871 l 1425 850 q 1385 785 1415 806 l 656 785 q 646 628 653 699 q 838 714 771 679 q 1060 708 986 729 q 1165 629 1133 688 l 1044 468 l 1061 35 q 905 4 1024 -11 q 696 89 786 19 l 806 575 l 792 583 q 629 513 713 547 q 536 190 593 300 q 401 113 493 138 q 228 100 308 89 q 102 170 164 119 q 7 279 40 221 q 82 450 7 410 q 389 535 196 471 q 392 660 396 603 l 342 785 l -19 785 l -47 811 q 4 871 -22 853 l 1408 871 m 303 256 l 319 264 q 369 414 351 336 q 190 356 278 383 q 303 256 226 292 z "},"य":{"ha":1161,"x_min":-47,"x_max":1379,"o":"m 460 647 q 283 611 386 664 q 147 683 193 633 q 121 785 101 732 l -18 785 l -47 811 q 7 871 -22 851 l 828 871 l 838 914 q 1133 871 1060 936 l 1363 871 l 1379 850 q 1339 785 1369 806 l 1140 785 l 1029 582 l 1024 35 q 867 4 986 -11 q 658 89 749 19 l 692 238 l 757 321 l 739 340 q 530 183 647 254 q 360 113 413 113 q 163 190 271 113 q 54 347 54 268 q 247 468 54 399 q 385 542 319 494 q 460 647 450 590 m 696 694 q 610 541 696 622 q 408 394 525 460 q 428 339 400 363 q 486 313 456 315 q 634 400 578 360 q 749 506 690 440 l 810 785 l 647 785 q 696 694 696 739 z "},"र":{"ha":803,"x_min":-47,"x_max":1021,"o":"m 806 694 q 728 536 806 613 q 538 416 651 460 q 318 372 425 372 l 314 361 q 479 302 401 319 q 668 279 557 285 q 688 131 726 225 q 554 -4 650 38 q 247 117 401 19 q 22 326 92 215 q 78 465 26 411 q 204 518 131 519 l 261 449 q 478 538 386 474 q 581 664 569 601 q 529 675 563 675 q 319 601 438 675 q 190 682 233 629 q 169 785 147 735 l -19 785 l -47 811 q 4 871 -22 853 l 1004 871 l 1021 850 q 981 785 1011 806 l 732 785 q 806 694 806 735 z "},"ऱ":{"ha":803,"x_min":-106,"x_max":1021,"o":"m 806 694 q 728 536 806 613 q 538 416 651 460 q 318 372 425 372 l 314 361 q 479 302 401 319 q 668 279 557 285 q 688 131 726 225 q 554 -4 650 38 q 247 117 401 19 q 22 326 92 215 q 78 465 26 411 q 204 518 131 519 l 261 449 q 478 538 386 474 q 581 664 569 601 q 529 675 563 675 q 319 601 438 675 q 190 682 233 629 q 169 785 147 735 l -19 785 l -47 811 q 4 871 -22 853 l 1004 871 l 1021 850 q 981 785 1011 806 l 732 785 q 806 694 806 735 m -106 88 q -106 110 -106 88 q -72 166 -106 133 q 8 199 -39 199 q 87 166 54 199 q 119 88 119 133 q 87 9 119 42 q 8 -24 54 -24 q -72 9 -39 -24 q -106 88 -106 42 z "},"ल":{"ha":1265,"x_min":-47,"x_max":1482,"o":"m 503 482 q 473 526 494 508 q 423 544 451 544 q 352 489 394 544 q 306 386 310 433 q 380 291 335 329 q 514 219 425 253 q 503 92 551 163 q 333 0 454 22 q 124 167 221 53 q 28 368 28 281 q 132 554 28 456 q 375 708 236 653 q 557 696 479 714 q 708 524 696 660 l 611 439 l 625 429 q 881 636 760 513 l 913 785 l -19 785 l -47 811 q 4 871 -22 853 l 931 871 l 940 914 q 1236 871 1163 936 l 1465 871 l 1482 850 q 1442 785 1472 806 l 1243 785 l 1132 582 l 1126 35 q 970 4 1089 -11 q 761 89 851 19 l 822 369 l 879 461 l 869 472 q 628 258 776 381 q 459 330 514 278 q 417 440 404 382 q 460 461 431 447 q 503 482 489 475 z "},"ळ":{"ha":1378,"x_min":-47,"x_max":1596,"o":"m 350 0 q 133 90 225 0 q 40 297 40 179 q 78 399 40 344 q 176 499 115 453 q 323 569 236 544 q 497 585 410 594 q 569 482 515 557 q 651 364 622 407 q 734 449 675 388 q 822 538 793 511 q 899 594 850 564 q 997 635 949 625 q 1024 785 1035 721 l -19 785 l -47 811 q 4 871 -22 853 l 1579 871 l 1596 850 q 1556 785 1586 806 l 1181 785 q 1132 608 1185 697 q 1260 484 1204 563 q 1313 332 1317 406 q 1177 123 1308 228 q 886 0 1046 18 q 699 146 783 53 q 350 0 518 0 m 443 408 q 317 281 333 351 q 353 161 301 210 q 567 285 464 201 q 443 408 476 378 m 899 160 q 990 226 951 181 q 1038 332 1028 272 q 1001 431 1047 392 q 890 326 967 403 q 790 226 814 249 q 899 160 846 172 z "},"व":{"ha":1019,"x_min":-49,"x_max":1236,"o":"m 599 319 l 383 121 q 138 184 233 121 q 42 351 42 247 q 181 610 42 490 q 483 729 319 729 q 642 588 514 733 l 650 594 l 676 785 l -21 785 l -49 811 q 3 871 -24 853 l 689 871 l 694 914 q 990 871 917 936 l 1219 871 l 1236 850 q 1196 785 1226 806 l 997 785 l 886 582 l 881 35 q 724 4 843 -11 q 515 89 606 19 l 543 208 l 611 300 l 599 319 m 506 572 q 390 481 433 538 q 347 365 347 425 q 396 279 347 304 q 610 447 504 361 l 615 467 q 506 572 547 540 z "},"श":{"ha":1297,"x_min":26,"x_max":1515,"o":"m 1499 871 l 1515 850 q 1475 785 1506 806 l 1276 785 l 1165 582 l 1160 35 q 1003 4 1122 -11 q 794 89 885 19 l 946 785 l 847 785 l 819 811 q 871 871 844 853 l 964 871 l 974 914 q 1269 871 1196 936 l 1499 871 m 510 1057 q 699 924 617 1024 q 781 742 781 825 q 712 572 781 658 q 535 429 643 486 q 322 372 426 372 l 318 361 q 464 300 399 317 q 646 279 529 283 q 666 131 704 225 q 532 -4 628 38 q 233 128 374 33 q 26 326 92 224 q 83 465 31 411 q 208 518 135 519 l 265 449 q 482 576 400 476 l 303 607 q 164 801 194 688 q 290 971 189 897 q 510 1057 390 1044 m 542 735 q 465 868 542 814 q 413 828 435 857 q 392 764 392 799 q 432 681 392 729 l 524 649 q 542 735 542 690 z "},"ष":{"ha":1054,"x_min":-49,"x_max":1272,"o":"m 1256 871 l 1272 850 q 1232 785 1263 806 l 1033 785 l 922 582 l 917 35 q 760 4 879 -11 q 551 89 642 19 l 606 335 l 657 418 l 646 429 q 354 171 481 278 q 142 224 231 176 q 42 354 53 271 q 167 785 85 579 l -21 785 l -49 811 q 3 871 -24 853 l 721 871 l 731 914 q 1026 871 953 936 l 1256 871 m 317 343 l 332 336 q 554 481 467 418 q 396 628 453 560 q 317 343 339 478 m 654 561 l 703 785 l 501 785 l 444 711 q 615 529 521 615 q 654 561 629 539 z "},"स":{"ha":1368,"x_min":-47,"x_max":1586,"o":"m 972 446 q 813 373 897 403 q 663 343 728 343 q 471 394 599 343 q 318 372 389 372 l 314 361 q 479 302 401 319 q 668 279 557 285 q 688 131 726 225 q 554 -4 650 38 q 247 117 401 19 q 22 326 92 215 q 78 465 26 411 q 204 518 131 519 l 261 449 q 478 538 386 474 q 581 664 569 601 q 529 675 563 675 q 319 601 438 675 q 190 682 233 629 q 169 785 147 735 l -19 785 l -47 811 q 4 871 -22 853 l 1035 871 l 1044 914 q 1340 871 1267 936 l 1569 871 l 1586 850 q 1546 785 1576 806 l 1347 785 l 1236 582 l 1231 35 q 1074 4 1193 -11 q 865 89 956 19 l 919 340 l 988 431 l 972 446 m 806 694 q 638 467 806 568 q 686 463 663 463 q 833 510 736 463 q 979 610 931 557 l 1017 785 l 732 785 q 806 694 806 735 z "},"ह":{"ha":833,"x_min":-7,"x_max":1057,"o":"m 629 319 q 561 149 629 226 q 424 154 485 131 q 360 214 363 178 q 415 250 388 229 q 388 279 408 269 q 299 228 342 265 q 232 144 256 192 q 255 63 229 100 q 350 -11 281 26 q 549 115 467 25 q 649 71 610 110 q 689 -28 689 32 q 321 -160 546 -160 q 99 -45 196 -131 q 1 131 1 40 q 92 294 1 222 q 307 378 182 367 l 310 390 q 192 469 225 413 q 206 636 150 561 q 575 708 418 656 l 582 722 q 483 785 535 761 l 21 785 l -7 811 q 44 871 18 853 l 1040 871 l 1057 850 q 1017 785 1047 806 l 708 785 q 746 756 729 772 q 742 634 767 706 q 664 518 717 563 q 399 454 536 467 l 396 446 q 569 397 508 425 q 629 319 629 368 z "},"़":{"ha":0,"x_min":-3,"x_max":235,"o":"m 235 117 q 235 93 235 117 q 201 35 235 69 q 117 0 167 0 q 32 34 67 0 q -3 117 -3 68 q 32 199 -3 165 q 117 233 67 233 q 201 199 167 233 q 235 117 235 164 z "},"ऽ":{"ha":818,"x_min":-1,"x_max":1014,"o":"m 669 182 q 633 141 669 182 q 499 50 597 100 q 329 0 401 0 q 149 62 257 0 q -1 172 40 124 q 22 252 4 229 q 92 276 40 275 q 329 146 199 181 q 428 211 392 171 q 467 299 465 251 q 268 422 469 342 q 131 494 193 451 q 71 577 69 538 q 110 682 72 617 q 213 789 147 747 q 544 855 315 829 q 918 871 774 881 q 931 721 1014 825 q 640 718 814 728 q 393 694 465 708 q 356 646 371 678 q 457 588 383 624 q 590 523 531 553 q 698 444 650 493 q 744 344 746 396 q 669 182 742 264 z "},"ा":{"ha":528,"x_min":-49,"x_max":746,"o":"m 729 871 l 746 850 q 706 785 736 806 l 497 785 l 396 582 l 390 35 q 234 4 353 -11 q 25 89 115 19 l 176 785 l -21 785 l -49 811 q 3 871 -24 853 l 194 871 l 204 914 q 415 922 343 931 q 519 871 488 913 l 729 871 z "},"ि":{"ha":528,"x_min":-49,"x_max":1032,"o":"m 190 1167 q 341 1326 232 1256 q 550 1399 450 1397 q 828 1275 692 1364 q 1029 1085 964 1186 q 984 980 1032 1013 q 865 944 936 947 q 690 1117 769 1060 q 488 1214 611 1175 l 467 1194 l 431 871 l 729 871 l 746 850 q 706 785 736 806 l 422 785 q 390 35 385 392 q 234 4 353 -11 q 25 89 115 19 l 185 785 l -21 785 l -49 811 q 3 871 -24 853 l 193 871 l 190 1167 z "},"ी":{"ha":526,"x_min":-254,"x_max":744,"o":"m 199 871 q 265 1194 222 982 l 244 1206 q 96 1091 179 1167 q -39 944 13 1015 q -185 997 -129 953 q -254 1107 -242 1040 q -18 1306 -181 1214 q 269 1399 144 1399 q 431 1338 349 1399 q 563 1183 514 1276 q 399 871 460 1024 l 728 871 l 744 850 q 704 785 735 806 l 382 785 l 394 689 l 390 35 q 234 4 353 -11 q 25 89 115 19 q 181 785 94 381 l -21 785 l -49 811 q 3 871 -24 853 l 199 871 z "},"ु":{"ha":0,"x_min":-908,"x_max":-74,"o":"m -335 -25 q -160 -77 -246 -25 q -74 -187 -74 -129 q -144 -310 -74 -244 q -318 -419 -215 -376 q -513 -462 -421 -462 q -734 -386 -606 -462 q -908 -225 -862 -310 q -809 -101 -874 -139 q -668 -85 -744 -62 q -493 -346 -618 -281 q -365 -273 -421 -324 q -294 -175 -310 -222 q -321 -162 -300 -165 q -432 -256 -372 -186 q -551 -192 -514 -240 q -574 -96 -589 -144 q -335 -25 -465 -25 z "},"ू":{"ha":0,"x_min":-614,"x_max":183,"o":"m -435 -462 q -560 -370 -506 -433 q -614 -234 -614 -307 q -522 -93 -614 -161 q -324 -25 -431 -25 q -67 -95 -217 -25 q 171 -264 82 -165 q 135 -378 183 -322 q -11 -462 88 -433 q -174 -269 -96 -336 q -367 -164 -253 -201 q -412 -208 -392 -172 q -297 -272 -360 -257 q -299 -387 -267 -336 q -435 -462 -332 -439 z "},"ृ":{"ha":0,"x_min":-743,"x_max":-119,"o":"m -122 -311 q -293 -423 -186 -383 q -500 -462 -400 -462 q -672 -411 -600 -462 q -743 -308 -743 -360 q -649 -136 -743 -233 q -429 0 -554 -39 q -326 -48 -354 -15 q -303 -135 -299 -81 q -449 -212 -381 -156 q -544 -325 -518 -268 l -532 -342 q -287 -187 -369 -318 q -162 -226 -204 -192 q -122 -311 -119 -261 z "},"ॄ":{"ha":0,"x_min":-633,"x_max":-168,"o":"m -611 -147 q -502 -57 -587 -100 q -329 0 -417 -14 q -261 -114 -225 -21 q -447 -192 -371 -137 l -437 -208 q -336 -174 -383 -201 q -288 -206 -303 -179 q -290 -275 -274 -232 q -454 -369 -378 -310 l -443 -385 q -247 -281 -317 -351 q -185 -309 -201 -283 q -174 -397 -168 -335 q -472 -490 -292 -489 q -633 -364 -607 -462 q -471 -257 -599 -283 l -474 -244 q -573 -218 -536 -243 q -611 -147 -610 -193 z "},"ॅ":{"ha":0,"x_min":-476,"x_max":244,"o":"m 244 1143 q 83 1000 188 1056 q -128 944 -21 944 q -342 1028 -235 944 q -476 1238 -449 1111 q -360 1344 -429 1317 q -218 1339 -292 1372 q -201 1177 -221 1244 q -122 1061 -181 1110 q -16 1124 -57 1075 q 40 1233 25 1172 q 155 1235 94 1263 q 244 1143 215 1208 z "},"े":{"ha":0,"x_min":-746,"x_max":-114,"o":"m -460 1397 q -270 1263 -375 1397 q -114 979 -165 1128 q -203 944 -146 942 q -383 1140 -272 1064 l -532 1044 q -695 1158 -644 1094 q -725 1286 -746 1222 q -460 1397 -576 1397 z "},"ै":{"ha":0,"x_min":-739,"x_max":-118,"o":"m -721 1308 q -634 1370 -692 1342 q -523 1399 -576 1399 q -397 1356 -469 1399 q -247 1219 -325 1313 q -118 1007 -169 1126 q -153 966 -124 986 q -225 944 -182 946 q -361 994 -300 982 l -406 944 q -515 966 -460 942 q -582 1032 -569 990 q -426 1146 -531 1119 q -222 1029 -333 1117 l -212 1039 q -428 1229 -271 1132 l -557 1110 q -696 1192 -653 1146 q -721 1308 -739 1239 z "},"ॉ":{"ha":528,"x_min":-49,"x_max":754,"o":"m 519 871 l 729 871 l 746 850 q 706 785 736 806 l 497 785 l 396 582 l 390 35 q 234 4 353 -11 q 25 89 115 19 l 176 785 l -21 785 l -49 811 q 3 871 -24 853 l 194 871 l 204 914 q 415 922 343 931 q 519 871 488 913 m 754 1143 q 593 1000 697 1056 q 382 944 489 944 q 168 1028 275 944 q 33 1238 61 1111 q 149 1344 81 1317 q 292 1339 218 1372 q 309 1177 289 1244 q 388 1061 329 1110 q 494 1124 453 1075 q 550 1233 535 1172 q 665 1235 604 1263 q 754 1143 725 1208 z "},"ो":{"ha":528,"x_min":-222,"x_max":746,"o":"m 729 871 l 746 850 q 706 785 736 806 l 497 785 l 396 582 l 390 35 q 234 4 353 -11 q 25 89 115 19 l 176 785 l -21 785 l -49 811 q 3 871 -24 853 l 194 871 l 204 914 q 415 922 343 931 q 519 871 488 913 l 729 871 m 64 1399 q 253 1264 149 1399 q 410 981 358 1129 q 321 946 378 943 q 140 1142 251 1065 l -8 1046 q -172 1160 -121 1096 q -201 1288 -222 1224 q 64 1399 -53 1399 z "},"ौ":{"ha":528,"x_min":-189,"x_max":746,"o":"m 729 871 l 746 850 q 706 785 736 806 l 497 785 l 396 582 l 390 35 q 234 4 353 -11 q 25 89 115 19 l 176 785 l -21 785 l -49 811 q 3 871 -24 853 l 194 871 l 204 914 q 415 922 343 931 q 519 871 488 913 l 729 871 m -171 1308 q -84 1370 -142 1342 q 27 1399 -26 1399 q 153 1356 81 1399 q 303 1219 225 1313 q 432 1007 381 1126 q 397 966 426 986 q 325 944 368 946 q 189 994 250 982 l 144 944 q 35 966 90 942 q -32 1032 -19 990 q 124 1146 19 1119 q 328 1029 217 1117 l 338 1039 q 122 1229 279 1132 l -7 1110 q -146 1192 -103 1146 q -171 1308 -189 1239 z "},"्":{"ha":0,"x_min":-506,"x_max":117,"o":"m 36 -465 q -496 -243 -207 -312 q -468 -90 -506 -146 q -354 -25 -431 -35 q -106 -159 -242 -62 q 117 -349 31 -256 q 36 -465 117 -417 z "},"ॐ":{"ha":1597,"x_min":93,"x_max":1554,"o":"m 1554 958 q 1388 854 1492 889 q 1183 819 1283 819 q 974 903 1083 819 q 838 1113 865 986 q 953 1219 885 1192 q 1096 1214 1022 1247 q 1113 1052 1093 1119 q 1192 936 1133 985 q 1382 1063 1322 967 q 1481 1054 1433 1082 q 1554 958 1529 1026 m 833 465 l 876 483 q 1032 594 942 517 q 1185 749 1122 672 q 1433 635 1344 732 q 1521 397 1521 538 q 1182 0 1461 149 q 1072 40 1115 7 q 1040 201 986 106 q 1329 406 1256 260 q 1229 539 1310 508 q 993 349 1139 422 l 953 349 q 961 303 961 328 q 892 154 960 225 q 719 41 825 83 q 501 0 614 -1 q 93 339 201 100 q 182 466 117 428 q 322 476 247 504 q 528 160 388 263 q 649 219 606 186 q 717 303 692 251 q 667 404 707 360 q 560 371 613 382 q 497 440 513 393 q 511 518 481 488 q 681 599 629 543 q 728 715 732 654 q 722 728 725 724 q 524 636 621 719 q 399 730 436 664 q 404 856 363 796 q 807 925 589 949 q 925 863 881 904 q 1003 744 969 821 q 806 479 985 601 l 833 465 m 1317 1049 q 1304 1035 1317 1049 q 1251 1021 1290 1021 q 1184 1049 1213 1021 q 1156 1114 1156 1076 q 1184 1178 1156 1151 q 1251 1206 1213 1206 q 1317 1178 1290 1206 q 1344 1114 1344 1151 q 1317 1049 1344 1076 z "},"क़":{"ha":1388,"x_min":-76,"x_max":1606,"o":"m 1381 506 q 1356 392 1381 431 q 1318 334 1332 354 q 1270 288 1304 314 q 1218 247 1236 261 q 1152 205 1200 232 q 1085 167 1104 178 q 1008 126 1065 157 q 943 170 960 147 q 940 224 926 193 q 1078 335 1042 289 q 1115 428 1115 381 q 1007 536 1115 521 q 854 435 960 508 l 850 35 q 694 4 813 -11 q 485 89 575 19 l 514 208 l 575 297 l 561 315 q 361 121 433 199 q 113 184 213 121 q 13 360 13 247 q 152 611 13 493 q 454 729 292 729 q 599 603 482 729 q 611 589 607 593 l 621 594 l 646 785 l -49 785 l -76 811 q -25 871 -51 853 l 658 871 l 664 914 q 960 871 886 936 l 1589 871 l 1606 850 q 1565 785 1596 806 l 964 785 q 800 546 940 747 l 819 531 q 1017 708 883 586 q 1274 681 1168 742 q 1381 506 1381 621 m 476 572 q 365 482 411 542 q 318 363 318 422 q 367 279 318 304 q 582 447 499 381 l 586 467 q 476 572 508 547 m 32 -29 q 32 -5 32 -29 q 67 53 32 19 q 151 88 101 88 q 235 53 200 88 q 269 -29 269 19 q 235 -112 269 -78 q 151 -146 200 -146 q 67 -112 101 -146 q 32 -29 32 -78 z "},"ख़":{"ha":1494,"x_min":-47,"x_max":1711,"o":"m 472 669 q 319 601 397 669 q 190 682 233 629 q 169 785 147 735 l -19 785 l -47 811 q 4 871 -22 853 l 1163 871 l 1168 914 q 1464 871 1390 936 l 1694 871 l 1711 850 q 1671 785 1701 806 l 1472 785 l 1361 582 l 1354 35 q 1198 4 1317 -11 q 989 89 1079 19 l 1018 208 l 1056 254 l 1042 272 q 767 122 933 196 q 467 32 601 49 q 199 137 331 57 q 10 319 68 217 q 72 461 14 403 q 204 518 129 519 l 257 454 q 436 538 371 482 q 506 664 501 593 q 472 669 493 669 m 1018 579 q 927 510 963 554 q 892 426 892 465 q 909 367 892 388 q 957 347 926 347 q 1025 383 988 347 q 1083 464 1063 418 l 1086 483 q 1018 579 1068 544 m 726 694 q 609 490 726 576 q 318 372 492 403 l 314 361 q 535 218 394 275 q 804 275 642 226 l 797 282 q 689 321 724 288 q 654 406 654 354 q 763 619 654 510 q 989 729 871 729 q 1065 688 1032 729 q 1115 589 1097 647 l 1125 594 l 1150 785 l 661 785 q 726 694 726 733 m -26 -32 q -26 -8 -26 -32 q 8 51 -26 17 q 92 85 43 85 q 176 51 142 85 q 211 -32 211 17 q 176 -115 211 -81 q 92 -149 142 -149 q 8 -115 43 -149 q -26 -32 -26 -81 z "},"ग़":{"ha":1208,"x_min":-47,"x_max":1421,"o":"m 657 785 q 623 469 657 639 q 536 196 589 299 q 231 88 446 88 q 84 165 149 110 q -12 290 19 219 q 63 444 0 397 q 392 536 215 478 q 394 675 399 597 l 343 785 l -19 785 l -47 811 q 4 871 -22 853 l 869 871 l 879 914 q 1175 871 1101 936 l 1404 871 l 1421 850 q 1381 785 1411 806 l 1182 785 l 1071 582 l 1065 35 q 909 4 1028 -11 q 700 89 790 19 l 851 785 l 657 785 m 306 258 l 319 264 q 372 414 353 332 q 194 356 310 392 q 306 258 229 299 m 96 -99 q 96 -74 96 -99 q 131 -16 96 -50 q 215 18 165 18 q 299 -16 264 18 q 333 -99 333 -50 q 299 -181 333 -147 q 215 -215 264 -215 q 131 -181 165 -215 q 96 -99 96 -147 z "},"ज़":{"ha":1240,"x_min":-47,"x_max":1454,"o":"m 472 392 q 426 422 447 410 q 625 607 474 619 q 704 532 675 532 q 777 554 733 532 q 846 603 821 576 l 885 785 l -19 785 l -47 811 q 4 871 -22 853 l 903 871 l 913 914 q 1208 871 1135 936 l 1438 871 l 1454 850 q 1414 785 1444 806 l 1215 785 l 1104 582 l 1099 35 q 942 4 1061 -11 q 733 89 824 19 l 793 354 l 849 435 l 839 447 q 703 399 779 408 l 661 396 l 654 388 l 664 338 q 538 172 660 243 q 294 110 415 101 q 111 231 189 147 q 28 425 33 315 q 101 595 43 507 q 242 740 160 683 q 398 697 342 740 q 447 585 454 653 q 301 390 311 488 q 325 268 294 321 q 422 314 376 275 q 472 392 468 353 m 167 -97 q 167 -73 167 -97 q 201 -15 167 -49 q 286 19 236 19 q 370 -15 336 19 q 404 -97 404 -50 q 370 -179 404 -144 q 286 -214 336 -214 q 201 -180 236 -214 q 167 -97 167 -146 z "},"ड़":{"ha":819,"x_min":-47,"x_max":1035,"o":"m 1018 871 l 1035 850 q 994 785 1025 806 l 683 785 q 717 763 706 771 q 713 641 738 713 q 635 525 688 569 q 339 474 490 481 l 331 447 q 681 393 413 431 q 679 121 793 324 q 428 38 597 75 q 101 0 260 0 q 14 135 26 61 q 50 247 1 210 q 299 250 169 236 q 496 296 429 264 l 492 308 q 309 343 433 321 q 113 381 185 365 q 104 528 68 442 q 238 674 140 614 q 546 715 428 683 l 553 729 q 442 785 524 754 l -19 785 l -47 811 q 4 871 -22 853 l 1018 871 m 189 -149 q 189 -124 189 -149 q 224 -66 189 -100 q 308 -32 258 -32 q 392 -66 358 -32 q 426 -149 426 -100 q 392 -231 426 -197 q 308 -265 358 -265 q 224 -231 258 -265 q 189 -149 189 -197 z "},"ढ़":{"ha":1011,"x_min":-49,"x_max":1229,"o":"m 385 374 q 355 356 385 374 q 324 310 324 339 q 347 246 324 281 q 631 435 578 394 q 861 385 768 442 q 954 265 954 328 q 870 137 954 201 q 680 36 786 72 q 497 0 574 0 q 211 90 340 10 q 29 301 82 171 q 51 422 28 368 q 117 506 75 476 q 210 538 144 515 q 308 572 276 561 q 389 603 339 583 q 556 672 483 638 l 560 683 q 419 785 511 739 l -21 785 l -49 811 q 3 871 -24 853 l 1213 871 l 1229 850 q 1189 785 1219 806 l 668 785 q 779 728 728 758 q 714 526 817 635 q 556 454 665 500 q 385 374 447 408 m 689 244 q 610 276 658 264 q 422 169 582 263 q 499 125 456 144 q 624 169 571 135 q 689 244 676 204 m 244 -151 q 244 -127 244 -151 q 279 -69 244 -103 q 364 -35 314 -35 q 448 -69 414 -35 q 482 -151 482 -103 q 448 -234 482 -200 q 364 -268 414 -268 q 279 -234 314 -268 q 244 -151 244 -200 z "},"फ़":{"ha":1526,"x_min":-47,"x_max":1744,"o":"m 1513 526 q 1446 350 1513 428 q 1276 222 1394 289 q 1128 140 1176 164 l 1054 233 q 1206 349 1164 301 q 1247 446 1247 396 q 1139 557 1247 542 q 928 413 1036 493 l 924 35 q 767 4 886 -11 q 558 89 649 19 l 613 335 l 664 418 l 653 429 q 361 171 488 278 q 149 223 236 178 q 57 344 63 268 q 182 785 93 569 l -19 785 l -47 811 q 4 871 -22 853 l 728 871 l 738 914 q 1033 871 960 936 l 1728 871 l 1744 850 q 1704 785 1735 806 l 1040 785 l 929 582 l 876 521 l 894 503 q 1149 729 996 589 q 1406 702 1300 763 q 1513 526 1513 642 m 661 561 l 710 785 l 508 785 l 417 667 q 324 343 346 482 l 339 336 q 661 561 561 472 m 50 -3 q 50 22 50 -3 q 85 80 50 46 q 169 114 119 114 q 253 79 219 114 q 288 -3 288 44 q 253 -85 288 -50 q 169 -119 219 -119 q 85 -85 119 -119 q 50 -3 50 -51 z "},"ॠ":{"ha":1510,"x_min":-47,"x_max":1728,"o":"m 1175 129 q 1185 117 1178 124 q 1297 154 1243 125 q 1383 219 1351 183 q 1457 94 1471 213 q 1185 0 1358 3 q 1061 45 1111 8 q 997 142 1011 82 q 1060 219 1010 188 q 1167 257 1110 251 l 1160 268 q 1028 361 1044 269 q 1122 440 1063 407 q 1238 483 1181 474 l 1239 493 l 1104 519 q 869 379 975 440 l 865 35 q 709 4 828 -11 q 500 89 590 19 l 524 193 l 592 288 l 572 303 q 406 155 515 242 q 196 0 296 68 q 62 94 104 26 q 58 217 19 161 q 533 435 333 279 q 375 544 467 494 l 265 421 q 101 499 151 450 q 65 615 50 549 q 184 707 118 671 q 310 743 250 743 q 617 507 436 743 l 631 521 l 604 568 l 651 785 l -19 785 l -47 811 q 4 871 -22 853 l 669 871 l 679 914 q 975 871 901 936 l 1711 871 l 1728 850 q 1688 785 1718 806 l 982 785 l 871 582 l 869 482 q 999 571 947 526 q 964 626 969 600 q 1074 718 1004 679 q 1185 747 1143 757 q 1221 691 1215 719 q 1211 608 1226 663 q 1340 604 1275 593 q 1414 438 1444 554 q 1197 332 1278 406 l 1206 324 q 1297 354 1263 333 q 1340 225 1375 307 q 1175 129 1251 192 z "},"ॡ":{"ha":1240,"x_min":-47,"x_max":1454,"o":"m 918 447 q 897 465 910 453 q 783 353 857 417 q 631 242 710 290 q 424 307 510 238 q 357 440 338 376 q 383 453 367 444 q 444 482 419 472 q 415 526 436 508 q 365 544 393 544 q 293 489 336 544 q 244 386 250 433 q 318 291 274 329 q 450 219 363 253 q 437 92 486 163 q 267 0 388 22 q 60 167 154 53 q -33 360 -35 281 q 74 554 -32 456 q 319 708 181 653 q 494 697 424 714 q 596 647 565 679 q 650 551 626 615 q 551 439 578 486 l 582 411 q 724 537 667 479 q 847 681 782 594 q 957 674 903 686 q 996 785 1000 732 l -19 785 l -47 811 q 4 871 -22 853 l 1438 871 l 1454 850 q 1414 785 1444 806 l 1140 785 q 1076 615 1146 717 q 1158 500 1138 568 q 1099 384 1138 436 q 1023 299 1060 332 q 903 201 986 267 l 908 193 q 981 233 963 217 q 1039 203 1018 233 q 1043 128 1060 174 q 936 74 1004 113 q 836 4 868 35 l 842 -4 q 1099 125 967 33 q 1181 6 1186 122 q 1034 -89 1146 -39 q 838 -149 922 -139 q 626 -33 654 -136 q 776 86 653 56 l 774 94 q 674 111 711 89 q 631 176 638 133 q 658 194 633 178 q 689 215 682 210 q 719 238 696 221 q 753 263 743 254 q 786 288 764 271 q 819 317 808 306 q 849 347 831 329 q 878 379 867 364 q 918 447 911 429 z "},"ॢ":{"ha":0,"x_min":-693,"x_max":4,"o":"m -181 -471 q -298 -433 -243 -471 q -353 -357 -353 -396 q -322 -306 -353 -335 q -254 -253 -292 -276 q -183 -199 -217 -229 q -146 -142 -150 -168 q -151 -135 -146 -139 q -161 -133 -157 -132 q -308 -250 -219 -201 q -424 -217 -378 -256 q -460 -140 -469 -178 q -421 -125 -425 -126 q -460 -94 -435 -96 q -497 -131 -474 -100 q -522 -182 -521 -161 q -476 -238 -500 -218 q -406 -279 -453 -258 q -413 -351 -383 -312 q -517 -400 -443 -389 q -638 -306 -583 -369 q -692 -193 -693 -242 q -629 -89 -690 -144 q -487 -1 -568 -33 q -354 -17 -393 1 q -292 -83 -314 -33 q -331 -136 -325 -128 l -317 -147 q -251 -88 -274 -114 q -199 -17 -229 -62 q -67 -46 -121 -11 q 1 -149 -12 -81 q -211 -367 -46 -246 q -200 -381 -208 -378 q -104 -310 -154 -365 q 4 -390 -6 -300 q -181 -471 -85 -471 z "},"ॣ":{"ha":0,"x_min":-692,"x_max":-4,"o":"m -150 -139 l -158 -133 q -303 -250 -210 -196 q -419 -217 -369 -256 q -460 -140 -469 -179 q -421 -124 -429 -129 q -460 -94 -436 -96 q -499 -133 -479 -107 q -522 -182 -519 -158 q -477 -236 -500 -215 q -406 -279 -454 -257 q -413 -351 -383 -312 q -517 -400 -443 -390 q -634 -310 -576 -375 q -692 -196 -692 -244 q -628 -90 -692 -147 q -487 -1 -565 -33 q -364 -12 -412 4 q -292 -83 -315 -29 q -331 -136 -317 -117 l -321 -144 q -199 -17 -256 -87 q -84 -35 -137 -7 q -14 -106 -31 -62 q -178 -269 -50 -199 l -174 -279 q -111 -258 -142 -275 q -85 -325 -65 -276 q -206 -406 -118 -340 l -200 -412 q -116 -379 -158 -404 q -53 -328 -74 -354 q -8 -394 -4 -328 q -89 -448 -28 -421 q -200 -479 -150 -475 q -317 -415 -287 -467 q -204 -331 -290 -360 l -206 -326 q -270 -327 -242 -336 q -304 -289 -299 -318 q -150 -139 -165 -206 z "},"।":{"ha":683,"x_min":240,"x_max":668,"o":"m 385 706 l 386 1000 q 668 1011 583 1096 l 567 613 q 525 36 536 308 q 374 2 458 -7 q 240 53 290 11 q 385 706 338 442 z "},"॥":{"ha":1111,"x_min":240,"x_max":1096,"o":"m 385 706 l 386 1000 q 668 1011 583 1096 l 567 613 q 525 36 536 308 q 374 2 458 -7 q 240 53 290 11 q 385 706 338 442 m 813 706 l 814 1000 q 1096 1011 1011 1096 l 994 613 q 953 36 964 308 q 802 2 886 -7 q 668 53 718 11 q 813 706 765 442 z "},"०":{"ha":793,"x_min":47,"x_max":771,"o":"m 500 713 q 447 697 472 710 q 289 429 346 601 q 360 231 286 306 q 540 453 501 307 q 500 713 564 579 m 135 178 q 91 237 135 178 q 47 397 47 296 q 138 632 47 499 q 314 814 228 765 q 613 867 493 897 q 771 438 771 685 q 697 265 771 354 q 519 118 622 175 q 333 61 417 61 q 135 178 224 61 z "},"१":{"ha":779,"x_min":90,"x_max":735,"o":"m 735 706 q 669 537 735 653 q 538 317 603 421 q 472 192 472 214 q 488 171 472 171 q 565 199 511 171 q 653 251 619 228 q 715 192 710 251 q 603 92 679 146 q 439 0 526 39 q 175 172 175 24 q 275 344 175 217 q 342 433 324 407 l 431 494 l 415 517 q 299 467 326 478 q 90 667 90 547 q 231 838 119 753 q 452 921 343 922 q 648 854 561 919 q 735 706 735 789 m 442 618 q 468 713 468 671 q 449 754 468 754 q 400 725 435 754 q 349 660 365 696 q 379 599 346 615 q 442 618 413 606 z "},"२":{"ha":856,"x_min":25,"x_max":869,"o":"m 515 921 q 754 821 639 921 q 869 631 869 721 q 740 442 869 542 q 429 278 610 342 q 650 51 519 139 q 586 -72 653 -25 q 421 -107 519 -118 q 250 229 307 38 q 157 217 203 219 q 49 426 25 319 q 219 506 117 492 q 326 489 275 514 q 354 417 335 464 q 522 507 450 454 q 614 611 593 560 q 500 717 594 682 q 403 661 442 697 q 358 617 388 646 q 199 690 240 638 q 181 806 158 742 q 515 921 329 921 z "},"३":{"ha":813,"x_min":15,"x_max":810,"o":"m 300 572 q 432 558 339 567 q 553 728 538 625 l 540 740 q 342 647 428 726 q 213 739 251 679 q 210 857 175 799 q 579 925 378 943 q 810 751 753 869 q 717 589 796 649 q 561 500 649 538 l 567 488 q 716 433 663 479 q 772 320 769 388 q 709 182 775 253 q 547 69 643 111 q 367 28 451 26 l 271 115 l 258 103 q 319 6 281 65 q 436 -187 396 -111 q 361 -275 426 -247 q 188 -290 296 -303 q 15 221 114 -18 q 251 325 122 371 q 354 182 285 267 q 464 240 421 203 q 521 314 507 276 q 481 393 515 361 q 371 335 396 349 q 294 416 321 367 q 269 508 267 465 q 300 572 272 551 z "},"४":{"ha":789,"x_min":53,"x_max":867,"o":"m 310 268 q 339 206 314 236 q 401 161 364 175 q 443 193 425 171 q 400 451 443 356 q 310 268 333 358 m 492 713 q 796 921 639 839 q 845 903 824 924 q 861 850 867 882 q 547 614 658 711 q 654 221 654 432 q 549 74 624 128 q 344 0 475 19 q 135 95 217 18 q 53 267 53 172 q 324 575 142 413 q 68 728 210 675 q 265 921 86 918 q 492 713 396 861 z "},"५":{"ha":786,"x_min":17,"x_max":804,"o":"m 17 385 q 185 688 17 535 q 594 921 354 842 q 663 892 644 914 q 669 821 682 869 q 408 620 532 746 q 283 404 283 494 q 331 296 283 335 q 525 569 433 400 q 804 442 789 589 q 669 108 763 314 q 494 -246 575 -97 q 381 -224 422 -250 q 340 -147 340 -197 q 583 378 535 211 l 568 383 q 356 86 458 224 q 98 188 179 114 q 17 385 17 261 z "},"६":{"ha":813,"x_min":56,"x_max":775,"o":"m 406 25 q 149 110 242 33 q 56 274 56 186 q 122 419 56 361 q 311 488 188 476 l 319 500 q 177 592 231 538 q 131 736 124 646 q 238 852 172 810 q 401 925 304 894 q 754 857 608 943 q 722 739 775 799 q 574 647 669 679 q 397 753 494 740 q 382 740 393 749 q 390 638 378 676 q 449 554 403 599 q 550 583 471 558 q 585 477 601 551 q 494 358 569 403 q 378 404 414 388 q 315 314 343 376 q 342 237 314 279 q 410 179 369 194 q 547 340 483 236 q 769 267 678 406 q 551 -292 635 -28 q 392 -291 456 -312 q 315 -211 329 -269 q 521 113 442 -35 l 507 122 l 406 25 z "},"७":{"ha":1082,"x_min":69,"x_max":1074,"o":"m 813 354 l 800 381 q 643 311 710 338 q 497 397 547 343 q 442 508 446 450 q 458 628 439 565 q 620 744 526 703 q 811 785 714 786 q 995 679 918 757 q 1074 497 1072 601 q 939 228 1043 353 q 686 35 835 104 q 386 -24 538 -35 q 152 185 235 28 q 74 528 69 343 q 164 854 79 714 q 269 883 211 879 q 376 861 326 888 q 439 779 426 835 q 339 456 364 650 q 351 264 328 360 q 435 104 374 168 q 599 185 535 139 q 724 303 663 232 l 813 354 m 696 624 q 674 536 674 589 q 711 449 674 483 q 819 478 756 458 q 710 628 789 592 l 696 624 z "},"८":{"ha":876,"x_min":33,"x_max":840,"o":"m 839 332 q 635 106 764 211 q 392 0 506 0 q 158 115 278 0 q 33 342 38 231 q 297 665 110 500 q 642 911 483 829 q 719 900 697 919 q 747 831 740 881 q 319 339 469 586 q 443 168 331 229 q 753 407 601 222 q 824 390 807 406 q 839 332 840 375 z "},"९":{"ha":671,"x_min":31,"x_max":699,"o":"m 86 629 q 146 758 86 689 q 301 874 206 826 q 486 921 396 921 q 634 864 576 921 q 695 720 692 807 q 644 531 699 633 l 444 440 q 549 279 533 318 q 507 83 583 193 q 320 -35 431 25 q 117 -131 210 -96 q 50 -86 69 -125 q 49 -17 31 -47 q 336 183 272 83 l 342 210 q 251 367 317 276 q 136 528 186 458 q 86 629 86 597 m 388 526 l 476 588 q 485 671 490 626 q 461 728 479 715 q 388 692 422 724 q 344 615 354 660 q 388 526 354 579 z "},"॰":{"ha":642,"x_min":65,"x_max":590,"o":"m 350 511 q 269 361 268 435 q 300 282 269 336 q 393 389 375 328 q 350 511 389 438 m 371 578 q 515 522 443 578 q 588 410 586 465 q 494 273 590 338 q 281 208 399 208 q 138 257 206 208 q 67 353 69 306 q 152 508 65 438 q 371 578 239 578 z "},"ॲ":{"ha":1406,"x_min":-25,"x_max":1647,"o":"m 265 619 q 399 614 354 614 q 600 757 526 658 l 592 771 q 367 692 476 763 q 234 785 271 722 q 242 900 197 849 q 435 960 343 946 q 647 963 528 974 q 847 772 782 919 q 700 608 810 667 q 458 533 590 549 l 463 519 q 710 485 606 524 q 1022 640 814 538 l 1054 785 l 924 785 l 896 811 q 947 871 921 853 l 1072 871 l 1082 914 q 1378 871 1304 936 l 1607 871 l 1624 850 q 1583 785 1614 806 l 1385 785 l 1274 582 l 1268 35 q 1112 4 1231 -11 q 903 89 993 19 l 981 447 l 1031 506 l 1028 514 l 813 424 q 860 319 860 379 q 762 160 860 236 q 531 44 664 85 q 288 6 399 3 q 71 76 167 17 q -25 189 -25 135 q 75 281 -25 246 q 183 313 128 299 q 501 400 399 367 q 438 415 479 404 l 313 382 q 242 466 264 417 q 228 558 221 515 q 265 619 236 600 m 590 332 l 283 206 q 312 172 289 190 q 356 147 335 154 q 610 300 533 194 l 590 332 m 1647 1143 q 1486 1000 1590 1056 q 1275 944 1382 944 q 1061 1028 1168 944 q 926 1238 954 1111 q 1042 1344 974 1317 q 1185 1339 1111 1372 q 1202 1177 1182 1244 q 1281 1061 1222 1110 q 1387 1124 1346 1075 q 1443 1233 1428 1172 q 1558 1235 1497 1263 q 1647 1143 1618 1208 z "},"​":{"ha":0,"x_min":0,"x_max":0,"o":""},"‌":{"ha":0,"x_min":-32,"x_max":33,"o":"m 33 -319 l -32 -319 l -32 1126 l 33 1126 l 33 -319 z "},"‍":{"ha":0,"x_min":-176,"x_max":179,"o":"m 33 -319 l -32 -319 l -32 882 l -128 781 l -174 826 l -44 956 l -176 1088 l -131 1133 l 1 1001 l 135 1133 l 179 1089 l 46 956 l 179 824 l 133 778 l 33 882 l 33 -319 z "},"–":{"ha":963,"x_min":85,"x_max":914,"o":"m 892 556 q 908 500 914 544 q 869 414 901 456 l 101 399 q 90 458 85 418 q 121 535 94 497 l 504 528 l 892 556 z "},"—":{"ha":1438,"x_min":85,"x_max":1389,"o":"m 1368 556 q 1383 500 1389 544 q 1344 414 1376 456 l 101 399 q 90 458 85 418 q 121 535 94 497 l 826 528 l 1368 556 z "}}}
